<svg width="888" height="226" viewBox="0 0 888 226" fill="none" xmlns="http://www.w3.org/2000/svg">
<path d="M817.16 131.076C810.056 131.076 803.205 132.133 796.742 134.11C796.257 64.9287 740.516 9 671.829 9C616.438 9 569.47 45.3921 553.109 95.7413C539.543 88.1258 523.938 83.7605 507.305 83.7605C455.214 83.7605 413 126.338 413 178.88C413 231.422 455.214 274 507.305 274H817.16C856.287 274 888 242.013 888 202.548C888 163.083 856.287 131.096 817.16 131.096V131.076Z" fill="#0F2C23"/>
<path d="M68.3049 117.008C75.1544 117.008 81.7603 118.021 87.9923 119.917C88.4598 53.6072 142.205 0 208.434 0C261.843 0 307.13 34.8814 322.905 83.1407C335.986 75.8413 351.032 71.6573 367.07 71.6573C417.297 71.6573 458 112.468 458 162.829C458 213.189 417.297 254 367.07 254H68.3049C30.5785 254 0 223.341 0 185.514C0 147.687 30.5785 117.027 68.3049 117.027V117.008Z" fill="#0F2C23"/>
</svg>
