<svg xmlns="http://www.w3.org/2000/svg" xmlns:xlink="http://www.w3.org/1999/xlink" width="2000" zoomAndPan="magnify" viewBox="0 0 1500 1499.999933" height="2000" preserveAspectRatio="xMidYMid meet" version="1.0"><defs><clipPath id="240b7d11f2"><path d="M 1223 590.453125 L 1284 590.453125 L 1284 821 L 1223 821 Z M 1223 590.453125 " clip-rule="nonzero"/></clipPath><clipPath id="1c3362c70a"><path d="M 1315 590.453125 L 1493 590.453125 L 1493 823 L 1315 823 Z M 1315 590.453125 " clip-rule="nonzero"/></clipPath><clipPath id="54362f0f0c"><path d="M 241 677 L 419 677 L 419 909.203125 L 241 909.203125 Z M 241 677 " clip-rule="nonzero"/></clipPath></defs><path fill="#ffffff" d="M 1145.34375 633 C 1145.34375 627.199219 1147.277344 621.398438 1152.105469 616.5625 C 1155.980469 611.730469 1161.777344 609.796875 1168.546875 609.796875 C 1175.3125 609.796875 1181.117188 611.730469 1184.980469 616.5625 C 1189.820312 621.398438 1191.753906 626.234375 1191.753906 633 C 1191.753906 639.769531 1189.820312 645.570312 1184.980469 649.4375 C 1180.152344 654.273438 1175.3125 656.207031 1168.546875 656.207031 C 1161.777344 656.207031 1156.945312 654.273438 1152.105469 649.4375 C 1147.277344 644.605469 1145.34375 638.804688 1145.34375 633 Z M 1150.175781 688.117188 L 1185.949219 681.347656 L 1185.949219 824.449219 L 1150.175781 824.449219 Z M 1150.175781 688.117188 " fill-opacity="1" fill-rule="nonzero"/><path fill="#ffffff" d="M 1113.425781 677.488281 L 1077.652344 677.488281 L 1077.652344 758.710938 C 1077.652344 775.148438 1064.117188 789.652344 1046.710938 789.652344 C 1030.277344 789.652344 1015.765625 776.113281 1015.765625 758.710938 L 1015.765625 677.488281 L 979.992188 677.488281 L 979.992188 758.710938 C 979.992188 795.453125 1009.96875 825.425781 1046.710938 825.425781 C 1083.457031 825.425781 1113.425781 795.453125 1113.425781 758.710938 Z M 1113.425781 677.488281 " fill-opacity="1" fill-rule="nonzero"/><path fill="#ffffff" d="M 628.816406 743.238281 L 628.816406 824.460938 L 664.59375 824.460938 L 664.59375 743.238281 C 664.59375 726.800781 678.128906 713.265625 694.566406 713.265625 C 711.003906 713.265625 725.507812 726.800781 725.507812 744.207031 L 725.507812 825.425781 L 761.285156 825.425781 L 761.285156 744.207031 C 761.285156 707.464844 731.308594 677.488281 694.566406 677.488281 C 657.824219 677.488281 628.816406 706.496094 628.816406 743.238281 Z M 628.816406 743.238281 " fill-opacity="1" fill-rule="nonzero"/><g clip-path="url(#240b7d11f2)"><path fill="#ffffff" d="M 1283.605469 791.574219 C 1281.675781 791.574219 1279.742188 791.574219 1277.800781 791.574219 C 1270.070312 791.574219 1264.265625 789.636719 1262.335938 785.769531 C 1260.402344 781.902344 1258.46875 776.101562 1258.46875 770.300781 L 1258.46875 590.453125 L 1223.652344 597.222656 L 1223.652344 770.300781 C 1223.652344 777.066406 1224.628906 783.835938 1225.59375 789.636719 C 1226.5625 795.441406 1229.460938 801.242188 1232.355469 806.074219 C 1236.230469 810.910156 1240.09375 814.777344 1246.867188 816.710938 C 1252.664062 819.613281 1260.402344 820.578125 1270.070312 820.578125 C 1273.9375 820.578125 1277.800781 820.578125 1282.640625 819.613281 L 1282.640625 791.574219 Z M 1283.605469 791.574219 " fill-opacity="1" fill-rule="nonzero"/></g><g clip-path="url(#1c3362c70a)"><path fill="#ffffff" d="M 1491.492188 791.574219 C 1483.757812 791.574219 1477.960938 789.636719 1476.019531 785.769531 C 1474.085938 781.902344 1472.152344 776.101562 1472.152344 770.300781 L 1472.152344 590.453125 L 1437.347656 597.222656 L 1437.347656 681.34375 C 1433.472656 679.410156 1429.609375 677.476562 1424.777344 675.542969 C 1415.105469 671.675781 1405.4375 669.742188 1393.835938 669.742188 C 1383.199219 669.742188 1372.5625 671.675781 1362.890625 675.542969 C 1353.222656 679.410156 1345.484375 684.246094 1337.753906 691.011719 C 1330.984375 697.78125 1325.1875 705.515625 1321.3125 715.1875 C 1317.449219 724.855469 1315.515625 734.523438 1315.515625 746.125 C 1315.515625 757.730469 1317.449219 767.398438 1321.3125 777.066406 C 1325.1875 786.738281 1330.984375 794.472656 1337.753906 801.242188 C 1344.515625 808.011719 1353.222656 812.84375 1362.890625 816.710938 C 1372.5625 820.578125 1382.230469 822.511719 1393.835938 822.511719 C 1404.472656 822.511719 1415.105469 820.578125 1424.777344 816.710938 C 1427.675781 815.746094 1430.574219 813.8125 1433.472656 812.84375 L 1432.507812 811.878906 C 1428.640625 807.042969 1426.710938 802.207031 1425.742188 795.441406 C 1424.777344 790.605469 1423.8125 785.769531 1423.8125 779.96875 C 1420.902344 782.871094 1417.039062 785.769531 1413.175781 787.703125 C 1408.335938 790.605469 1401.574219 791.574219 1394.800781 791.574219 C 1388.027344 791.574219 1381.265625 790.605469 1376.425781 787.703125 C 1371.597656 784.804688 1366.757812 780.9375 1363.859375 777.066406 C 1359.992188 772.234375 1358.0625 767.398438 1356.121094 762.5625 C 1354.1875 756.761719 1353.222656 750.960938 1353.222656 746.125 C 1353.222656 740.324219 1354.1875 735.492188 1356.121094 729.6875 C 1358.0625 723.886719 1359.992188 719.054688 1363.859375 715.1875 C 1367.722656 710.351562 1371.597656 707.449219 1376.425781 704.550781 C 1381.265625 701.648438 1388.027344 700.683594 1394.800781 700.683594 C 1401.574219 700.683594 1408.335938 701.648438 1413.175781 704.550781 C 1418.003906 707.449219 1422.835938 710.351562 1425.742188 715.1875 C 1428.640625 720.019531 1431.539062 724.855469 1433.472656 729.6875 C 1434.449219 731.625 1434.449219 735.492188 1434.449219 738.390625 L 1434.449219 770.300781 C 1434.449219 777.066406 1435.414062 783.835938 1436.378906 789.636719 C 1437.347656 795.441406 1440.246094 801.242188 1443.144531 806.074219 C 1447.015625 810.910156 1450.878906 814.777344 1457.652344 816.710938 C 1463.449219 819.613281 1471.1875 820.578125 1480.855469 820.578125 C 1483.757812 820.578125 1488.585938 820.578125 1492.460938 819.613281 L 1492.460938 791.574219 C 1493.425781 791.574219 1492.460938 791.574219 1491.492188 791.574219 Z M 1491.492188 791.574219 " fill-opacity="1" fill-rule="nonzero"/></g><g clip-path="url(#54362f0f0c)"><path fill="#ffffff" d="M 242.773438 708.425781 C 250.511719 708.425781 256.3125 710.359375 258.246094 714.226562 C 260.179688 718.09375 262.113281 723.898438 262.113281 729.699219 L 262.113281 909.542969 L 296.921875 902.773438 L 296.921875 818.652344 C 300.789062 820.585938 304.65625 822.519531 309.492188 824.457031 C 319.160156 828.324219 328.828125 830.257812 340.433594 830.257812 C 351.070312 830.257812 361.703125 828.324219 371.375 824.457031 C 381.042969 820.585938 388.777344 815.753906 396.515625 808.984375 C 403.28125 802.214844 409.082031 794.480469 412.949219 784.8125 C 416.820312 775.144531 418.753906 765.472656 418.753906 753.871094 C 418.753906 742.269531 416.820312 732.597656 412.949219 722.929688 C 409.082031 713.261719 403.28125 705.523438 396.515625 698.757812 C 389.746094 691.988281 381.042969 687.152344 371.375 683.285156 C 361.703125 679.417969 352.035156 677.484375 340.433594 677.484375 C 329.796875 677.484375 319.160156 679.417969 309.492188 683.285156 C 306.589844 684.253906 303.691406 686.1875 300.789062 687.152344 L 301.757812 688.121094 C 305.625 692.957031 307.558594 697.789062 308.523438 704.558594 C 309.492188 709.390625 310.457031 714.226562 310.457031 720.027344 C 313.359375 717.128906 317.226562 714.226562 321.09375 712.292969 C 325.929688 709.390625 332.699219 708.425781 339.464844 708.425781 C 346.234375 708.425781 353.003906 709.390625 357.835938 712.292969 C 362.671875 715.195312 367.507812 719.0625 370.40625 722.929688 C 374.273438 727.765625 376.207031 732.597656 378.140625 737.433594 C 380.078125 743.234375 381.042969 749.035156 381.042969 753.871094 C 381.042969 759.671875 380.078125 764.507812 378.140625 770.308594 C 376.207031 776.109375 374.273438 780.945312 370.40625 784.8125 C 366.539062 789.644531 362.671875 792.546875 357.835938 795.449219 C 353.003906 798.347656 346.234375 799.316406 339.464844 799.316406 C 332.699219 799.316406 325.929688 798.347656 321.09375 795.449219 C 316.261719 792.546875 311.425781 789.644531 308.523438 784.8125 C 305.625 779.976562 302.722656 775.144531 300.789062 770.308594 C 299.824219 768.375 299.824219 764.507812 299.824219 761.605469 L 299.824219 729.699219 C 299.824219 722.929688 298.855469 716.160156 297.890625 710.359375 C 296.921875 704.558594 294.019531 698.757812 291.121094 693.921875 C 287.253906 689.085938 283.386719 685.21875 276.617188 683.285156 C 270.816406 680.386719 263.078125 679.417969 253.410156 679.417969 C 250.511719 679.417969 245.675781 679.417969 241.808594 680.386719 L 241.808594 708.425781 C 240.839844 708.425781 241.808594 708.425781 242.773438 708.425781 Z M 242.773438 708.425781 " fill-opacity="1" fill-rule="nonzero"/></g><path fill="#ffffff" d="M 591.832031 721 C 587.964844 711.332031 583.128906 703.597656 577.328125 696.828125 C 571.527344 690.058594 563.792969 685.222656 555.089844 682.324219 C 546.386719 679.421875 537.683594 677.488281 527.046875 677.488281 C 516.414062 677.488281 506.742188 679.421875 497.074219 683.289062 C 487.40625 687.15625 479.667969 691.992188 472.902344 698.761719 C 466.132812 705.53125 460.332031 713.265625 456.464844 722.933594 C 452.597656 732.601562 450.664062 743.238281 450.664062 754.84375 C 450.664062 766.445312 452.597656 777.082031 456.464844 786.75 C 460.332031 796.417969 466.132812 804.152344 472.902344 809.957031 C 479.667969 816.726562 487.40625 821.558594 497.074219 824.460938 C 506.742188 827.359375 516.414062 829.292969 528.015625 829.292969 C 546.386719 829.292969 565.726562 824.460938 583.128906 808.988281 L 563.792969 785.785156 C 560.890625 788.683594 552.1875 794.484375 550.253906 795.453125 C 544.453125 798.351562 536.71875 800.285156 528.015625 800.285156 C 523.179688 800.285156 517.378906 799.320312 513.511719 797.386719 C 508.675781 795.453125 504.808594 793.519531 500.941406 789.652344 C 497.074219 786.75 494.175781 782.882812 492.238281 779.015625 C 490.304688 775.148438 488.371094 770.3125 488.371094 764.511719 C 487.40625 750.972656 488.371094 738.40625 488.371094 738.40625 C 489.339844 727.769531 493.207031 720.035156 500.941406 713.265625 C 508.675781 706.496094 517.378906 703.597656 528.015625 703.597656 C 533.816406 703.597656 538.652344 704.5625 543.484375 706.496094 C 547.355469 708.429688 551.222656 711.332031 554.121094 714.230469 C 557.023438 717.132812 558.957031 721 559.921875 724.867188 C 560.890625 728.734375 561.859375 733.570312 561.859375 738.40625 L 499.976562 738.40625 L 499.976562 764.511719 L 596.667969 764.511719 C 596.667969 762.578125 596.667969 761.609375 596.667969 759.675781 C 596.667969 757.742188 596.667969 756.777344 596.667969 754.84375 C 597.632812 742.273438 595.699219 730.667969 591.832031 721 Z M 591.832031 721 " fill-opacity="1" fill-rule="nonzero"/><path fill="#ffffff" d="M 929.222656 720.957031 C 916.308594 706.0625 875.601562 707.054688 875.601562 707.054688 L 846.808594 707.054688 L 846.808594 740.8125 L 881.5625 740.8125 C 890.496094 740.8125 909.359375 740.8125 909.359375 764.644531 C 909.359375 791.453125 888.511719 791.453125 885.53125 791.453125 L 831.914062 791.453125 L 831.914062 659.398438 L 865.675781 659.398438 C 868.652344 659.398438 870.640625 660.390625 873.617188 661.382812 C 875.601562 662.375 878.582031 664.359375 879.574219 666.347656 C 880.566406 668.332031 882.554688 671.3125 883.546875 673.296875 C 884.539062 676.277344 885.53125 679.253906 885.53125 682.234375 C 885.53125 685.210938 884.539062 688.191406 883.546875 691.167969 C 883.546875 691.167969 883.546875 692.160156 882.554688 692.160156 C 905.386719 693.15625 915.316406 697.125 922.273438 700.105469 C 923.265625 696.132812 924.257812 690.175781 924.257812 680.246094 C 924.257812 669.324219 921.28125 624.644531 864.679688 624.644531 L 793.191406 624.644531 L 793.191406 825.210938 L 885.53125 825.210938 C 894.46875 825.210938 902.410156 824.21875 909.359375 822.230469 C 917.300781 820.246094 923.265625 817.265625 929.222656 812.300781 C 935.179688 807.339844 939.148438 801.378906 943.121094 794.429688 C 946.097656 786.488281 948.082031 777.550781 948.082031 766.628906 C 948.082031 752.726562 943.121094 733.863281 929.222656 720.957031 Z M 929.222656 720.957031 " fill-opacity="1" fill-rule="nonzero"/><path fill="#ffffff" d="M 42.796875 649.535156 C 81.261719 615.949219 139.640625 616.636719 177.402344 652.589844 C 217.34375 690.613281 218.894531 754.007812 180.789062 794.046875 C 144.03125 832.660156 83.605469 835.441406 43.390625 801.109375 L 72.242188 770.804688 C 95.664062 789.3125 129.628906 787.277344 150.574219 765.277344 C 172.777344 741.949219 171.960938 705.003906 148.632812 682.800781 C 127.582031 662.753906 95.652344 661.511719 73.203125 678.480469 Z M 42.796875 649.535156 " fill-opacity="1" fill-rule="nonzero"/><path fill="#01db83" d="M 65.242188 694.695312 L 32.78125 662.25 L 1.148438 693.617188 L 33.609375 726.074219 L 1.023438 758.398438 L 32.535156 789.886719 L 65.121094 757.5625 L 96.753906 726.195312 Z M 65.242188 694.695312 " fill-opacity="1" fill-rule="nonzero"/></svg>