<svg xmlns="http://www.w3.org/2000/svg" xmlns:xlink="http://www.w3.org/1999/xlink" width="2000" zoomAndPan="magnify" viewBox="0 0 1500 1499.999933" height="2000" preserveAspectRatio="xMidYMid meet" version="1.0"><defs><clipPath id="c18b136f17"><path d="M 8 670.910156 L 169 670.910156 L 169 829.160156 L 8 829.160156 Z M 8 670.910156 " clip-rule="nonzero"/></clipPath></defs><g clip-path="url(#c18b136f17)"><path fill="#ffffff" d="M 88.589844 771.628906 L 24.542969 735.859375 L 24.542969 724.53125 L 88.589844 760.265625 L 168.648438 715.574219 L 88.589844 670.910156 L 8.53125 715.574219 L 8.53125 749.96875 L 88.589844 794.632812 L 88.589844 805.992188 L 29.226562 772.84375 L 8.53125 784.394531 L 88.589844 829.089844 L 168.648438 784.394531 L 168.648438 749.96875 L 148.015625 738.449219 Z M 88.589844 771.628906 " fill-opacity="1" fill-rule="nonzero"/></g><path fill="#ffffff" d="M 1458.148438 816.71875 L 1428.648438 773.085938 L 1447.1875 753.453125 L 1490.699219 816.71875 Z M 1395.503906 816.71875 L 1395.503906 683.101562 L 1423.285156 683.101562 L 1423.285156 816.71875 Z M 1420.695312 787.878906 L 1420.753906 754.542969 L 1424.808594 754.542969 L 1456.898438 716.496094 L 1488.792969 716.496094 L 1445.664062 766.875 L 1439.074219 766.875 Z M 1420.695312 787.878906 " fill-opacity="1" fill-rule="nonzero"/><path fill="#ffffff" d="M 1334.796875 818.675781 C 1324.527344 818.675781 1315.695312 816.488281 1308.300781 812.152344 C 1300.964844 807.75 1295.285156 801.664062 1291.351562 793.890625 C 1287.449219 786.121094 1285.480469 777.164062 1285.480469 767.019531 C 1285.480469 756.875 1287.449219 747.761719 1291.414062 740.023438 C 1295.40625 732.25 1301.089844 726.164062 1308.453125 721.824219 C 1315.789062 717.425781 1324.558594 715.238281 1334.671875 715.238281 C 1343.410156 715.238281 1351.058594 716.832031 1357.644531 720.015625 C 1364.199219 723.199219 1369.410156 727.660156 1373.25 733.375 C 1377.085938 739.117188 1379.179688 745.859375 1379.585938 753.597656 L 1353.367188 753.597656 C 1352.617188 748.605469 1350.683594 744.578125 1347.5 741.519531 C 1344.378906 738.429688 1340.257812 736.902344 1335.167969 736.902344 C 1330.863281 736.902344 1327.117188 738.085938 1323.871094 740.425781 C 1320.6875 742.738281 1318.226562 746.109375 1316.445312 750.539062 C 1314.664062 754.972656 1313.761719 760.339844 1313.761719 766.644531 C 1313.761719 772.949219 1314.632812 778.472656 1316.382812 782.96875 C 1318.160156 787.464844 1320.65625 790.863281 1323.871094 793.207031 C 1327.085938 795.546875 1330.863281 796.734375 1335.167969 796.734375 C 1338.355469 796.734375 1341.195312 796.078125 1343.722656 794.765625 C 1346.28125 793.457031 1348.40625 791.582031 1350.058594 789.085938 C 1351.742188 786.558594 1352.871094 783.53125 1353.398438 780.003906 L 1379.617188 780.003906 C 1379.179688 787.648438 1377.085938 794.390625 1373.34375 800.226562 C 1369.660156 806.003906 1364.539062 810.527344 1358.019531 813.804688 C 1351.492188 817.082031 1343.785156 818.707031 1334.863281 818.707031 Z M 1334.796875 818.675781 " fill-opacity="1" fill-rule="nonzero"/><path fill="#ffffff" d="M 1221.34375 799.425781 C 1225.433594 799.425781 1229.054688 798.613281 1232.175781 797.019531 C 1235.296875 795.367188 1237.761719 793.152344 1239.542969 790.371094 C 1241.320312 787.59375 1242.226562 784.441406 1242.226562 780.914062 L 1242.226562 770.273438 C 1241.355469 770.835938 1240.167969 771.363281 1238.636719 771.832031 C 1237.167969 772.269531 1235.484375 772.675781 1233.609375 773.082031 C 1231.738281 773.425781 1229.867188 773.769531 1227.992188 774.050781 C 1226.121094 774.296875 1224.4375 774.546875 1222.90625 774.765625 C 1219.628906 775.234375 1216.789062 776.015625 1214.351562 777.046875 C 1211.921875 778.074219 1210.015625 779.511719 1208.671875 781.289062 C 1207.332031 783.039062 1206.644531 785.191406 1206.644531 787.8125 C 1206.644531 791.589844 1208.015625 794.492188 1210.765625 796.492188 C 1213.542969 798.457031 1217.070312 799.425781 1221.34375 799.425781 Z M 1213.386719 818.621094 C 1206.988281 818.621094 1201.304688 817.496094 1196.285156 815.28125 C 1191.289062 813.03125 1187.324219 809.691406 1184.421875 805.292969 C 1181.550781 800.859375 1180.113281 795.335938 1180.113281 788.71875 C 1180.113281 783.164062 1181.144531 778.480469 1183.175781 774.703125 C 1185.203125 770.929688 1188.011719 767.871094 1191.539062 765.558594 C 1195.066406 763.25 1199.058594 761.503906 1203.554688 760.347656 C 1208.082031 759.160156 1212.824219 758.351562 1217.789062 757.882812 C 1223.621094 757.257812 1228.304688 756.695312 1231.863281 756.195312 C 1235.421875 755.632812 1238.011719 754.792969 1239.632812 753.730469 C 1241.257812 752.636719 1242.039062 751.046875 1242.039062 748.894531 L 1242.039062 748.488281 C 1242.039062 744.367188 1240.730469 741.152344 1238.136719 738.90625 C 1235.574219 736.65625 1231.925781 735.503906 1227.179688 735.503906 C 1222.1875 735.503906 1218.191406 736.625 1215.257812 738.84375 C 1212.292969 741.027344 1210.359375 743.742188 1209.390625 747.050781 L 1183.671875 744.960938 C 1184.980469 738.875 1187.542969 733.597656 1191.378906 729.167969 C 1195.21875 724.671875 1200.152344 721.238281 1206.175781 718.867188 C 1212.265625 716.433594 1219.316406 715.214844 1227.308594 715.214844 C 1232.863281 715.214844 1238.199219 715.871094 1243.289062 717.183594 C 1248.40625 718.492188 1252.964844 720.523438 1256.925781 723.238281 C 1260.921875 725.984375 1264.070312 729.511719 1266.382812 733.816406 C 1268.691406 738.09375 1269.847656 743.179688 1269.847656 749.140625 L 1269.847656 816.714844 L 1243.503906 816.714844 L 1243.503906 802.824219 L 1242.726562 802.824219 C 1241.101562 805.949219 1238.949219 808.726562 1236.265625 811.097656 C 1233.578125 813.4375 1230.332031 815.28125 1226.554688 816.652344 C 1222.777344 817.964844 1218.410156 818.621094 1213.445312 818.621094 Z M 1213.386719 818.621094 " fill-opacity="1" fill-rule="nonzero"/><path fill="#ffffff" d="M 1121.898438 692.539062 L 1149.679688 692.539062 L 1149.679688 785.953125 C 1149.679688 788.511719 1150.085938 790.511719 1150.867188 791.945312 C 1151.644531 793.351562 1152.738281 794.320312 1154.144531 794.878906 C 1155.582031 795.441406 1157.234375 795.722656 1159.105469 795.722656 C 1160.417969 795.722656 1161.726562 795.628906 1163.007812 795.410156 C 1164.320312 795.160156 1165.316406 794.941406 1166.003906 794.816406 L 1170.375 815.511719 C 1168.96875 815.949219 1167.03125 816.449219 1164.503906 817.007812 C 1161.980469 817.632812 1158.917969 817.976562 1155.300781 818.132812 C 1148.589844 818.382812 1142.71875 817.507812 1137.695312 815.449219 C 1132.699219 813.421875 1128.800781 810.238281 1126.019531 805.929688 C 1123.246094 801.621094 1121.871094 796.191406 1121.898438 789.605469 Z M 1168.53125 716.539062 L 1168.53125 737.421875 L 1108.203125 737.421875 L 1108.203125 716.539062 Z M 1168.53125 716.539062 " fill-opacity="1" fill-rule="nonzero"/><path fill="#ffffff" d="M 1097.3125 745.085938 L 1071.871094 746.644531 C 1071.4375 744.460938 1070.5 742.527344 1069.0625 740.777344 C 1067.628906 739 1065.722656 737.59375 1063.382812 736.53125 C 1061.070312 735.441406 1058.328125 734.910156 1055.113281 734.910156 C 1050.804688 734.910156 1047.183594 735.816406 1044.21875 737.65625 C 1041.253906 739.4375 1039.785156 741.839844 1039.785156 744.835938 C 1039.785156 747.238281 1040.753906 749.234375 1042.660156 750.890625 C 1044.5625 752.542969 1047.871094 753.855469 1052.523438 754.855469 L 1070.652344 758.503906 C 1080.394531 760.503906 1087.667969 763.71875 1092.4375 768.148438 C 1097.214844 772.582031 1099.621094 778.417969 1099.621094 785.628906 C 1099.621094 792.183594 1097.683594 797.957031 1093.816406 802.917969 C 1089.976562 807.882812 1084.730469 811.753906 1078.019531 814.53125 C 1071.375 817.277344 1063.695312 818.652344 1054.984375 818.652344 C 1041.722656 818.652344 1031.140625 815.902344 1023.273438 810.378906 C 1015.441406 804.824219 1010.855469 797.238281 1009.511719 787.6875 L 1036.851562 786.253906 C 1037.664062 790.308594 1039.695312 793.398438 1042.847656 795.523438 C 1046.03125 797.613281 1050.085938 798.644531 1055.050781 798.644531 C 1060.011719 798.644531 1063.820312 797.707031 1066.785156 795.835938 C 1069.78125 793.929688 1071.308594 791.464844 1071.34375 788.46875 C 1071.308594 785.941406 1070.21875 783.878906 1068.160156 782.257812 C 1066.066406 780.601562 1062.851562 779.355469 1058.511719 778.480469 L 1041.160156 775.015625 C 1031.359375 773.050781 1024.085938 769.679688 1019.3125 764.839844 C 1014.566406 760.003906 1012.195312 753.855469 1012.195312 746.394531 C 1012.195312 739.964844 1013.941406 734.410156 1017.40625 729.761719 C 1020.933594 725.109375 1025.867188 721.519531 1032.199219 718.992188 C 1038.597656 716.464844 1046.0625 715.214844 1054.640625 715.214844 C 1067.285156 715.214844 1077.269531 717.898438 1084.515625 723.238281 C 1091.8125 728.574219 1096.09375 735.878906 1097.3125 745.085938 Z M 1097.3125 745.085938 " fill-opacity="1" fill-rule="nonzero"/><path fill="#ffffff" d="M 929.269531 758.785156 L 929.269531 816.714844 L 901.492188 816.714844 L 901.492188 716.527344 L 927.988281 716.527344 L 927.988281 734.191406 L 929.175781 734.191406 C 931.390625 728.355469 935.105469 723.765625 940.316406 720.367188 C 945.53125 716.933594 951.863281 715.214844 959.296875 715.214844 C 966.253906 715.214844 972.308594 716.746094 977.488281 719.773438 C 982.671875 722.832031 986.699219 727.167969 989.570312 732.820312 C 992.441406 738.4375 993.878906 745.117188 993.878906 752.917969 L 993.878906 816.714844 L 966.097656 816.714844 L 966.097656 757.882812 C 966.128906 751.765625 964.570312 746.957031 961.414062 743.523438 C 958.230469 740.058594 953.863281 738.3125 948.308594 738.3125 C 944.5625 738.3125 941.253906 739.125 938.382812 740.714844 C 935.539062 742.339844 933.328125 744.679688 931.738281 747.769531 C 930.175781 750.828125 929.363281 754.480469 929.332031 758.785156 Z M 929.269531 758.785156 " fill-opacity="1" fill-rule="nonzero"/><path fill="#ffffff" d="M 836.070312 797.136719 C 840.6875 797.136719 844.527344 795.828125 847.617188 793.238281 C 850.710938 790.585938 853.019531 786.964844 854.609375 782.40625 C 856.234375 777.851562 857.011719 772.636719 857.011719 766.800781 C 857.011719 760.964844 856.203125 755.785156 854.609375 751.195312 C 853.050781 746.636719 850.710938 743.019531 847.617188 740.363281 C 844.527344 737.710938 840.6875 736.402344 836.070312 736.402344 C 831.449219 736.402344 827.515625 737.710938 824.332031 740.363281 C 821.210938 743.019531 818.839844 746.636719 817.21875 751.195312 C 815.65625 755.753906 814.878906 760.964844 814.878906 766.800781 C 814.878906 772.636719 815.65625 777.820312 817.21875 782.40625 C 818.839844 786.964844 821.179688 790.585938 824.332031 793.238281 C 827.515625 795.859375 831.417969 797.136719 836.070312 797.136719 Z M 835.941406 818.675781 C 825.800781 818.675781 817.058594 816.519531 809.664062 812.214844 C 802.328125 807.875 796.648438 801.820312 792.621094 794.078125 C 788.628906 786.308594 786.628906 777.257812 786.628906 767.019531 C 786.628906 756.78125 788.628906 747.636719 792.621094 739.898438 C 796.621094 732.125 802.296875 726.070312 809.664062 721.761719 C 817.058594 717.425781 825.832031 715.238281 835.941406 715.238281 C 846.058594 715.238281 854.824219 717.425781 862.160156 721.761719 C 869.558594 726.070312 875.238281 732.125 879.265625 739.898438 C 883.261719 747.636719 885.257812 756.6875 885.257812 767.019531 C 885.257812 777.351562 883.261719 786.308594 879.265625 794.078125 C 875.269531 801.820312 869.558594 807.875 862.160156 812.214844 C 854.824219 816.519531 846.058594 818.675781 835.941406 818.675781 Z M 835.941406 818.675781 " fill-opacity="1" fill-rule="nonzero"/><path fill="#ffffff" d="M 624.953125 816.714844 L 624.953125 716.527344 L 651.449219 716.527344 L 651.449219 734.191406 L 652.636719 734.191406 C 654.726562 728.324219 658.191406 723.703125 663.058594 720.304688 C 667.933594 716.902344 673.769531 715.214844 680.539062 715.214844 C 687.3125 715.214844 693.277344 716.933594 698.082031 720.367188 C 702.917969 723.765625 706.132812 728.355469 707.726562 734.191406 L 708.753906 734.191406 C 710.785156 728.449219 714.5 723.859375 719.835938 720.429688 C 725.238281 716.964844 731.605469 715.214844 738.933594 715.214844 C 748.300781 715.214844 755.882812 718.179688 761.6875 724.140625 C 767.558594 730.070312 770.492188 738.4375 770.492188 749.328125 L 770.492188 816.714844 L 742.773438 816.714844 L 742.773438 754.792969 C 742.773438 749.234375 741.308594 745.054688 738.347656 742.277344 C 735.378906 739.5 731.695312 738.09375 727.265625 738.09375 C 722.207031 738.09375 718.277344 739.714844 715.464844 742.929688 C 712.625 746.113281 711.222656 750.296875 711.222656 755.507812 L 711.222656 816.714844 L 684.285156 816.714844 L 684.285156 754.230469 C 684.285156 749.328125 682.878906 745.398438 680.042969 742.496094 C 677.265625 739.59375 673.578125 738.125 669.023438 738.125 C 665.933594 738.125 663.15625 738.90625 660.660156 740.464844 C 658.222656 741.996094 656.289062 744.148438 654.855469 746.925781 C 653.417969 749.671875 652.699219 752.886719 652.699219 756.570312 L 652.699219 816.714844 L 624.921875 816.714844 Z M 624.953125 816.714844 " fill-opacity="1" fill-rule="nonzero"/><path fill="#ffffff" d="M 459.222656 816.714844 L 459.222656 716.527344 L 485.722656 716.527344 L 485.722656 734.191406 L 486.90625 734.191406 C 488.996094 728.324219 492.464844 723.703125 497.332031 720.304688 C 502.199219 716.902344 508.035156 715.214844 514.808594 715.214844 C 521.582031 715.214844 527.542969 716.933594 532.347656 720.367188 C 537.1875 723.765625 540.402344 728.355469 541.992188 734.191406 L 543.027344 734.191406 C 545.054688 728.449219 548.769531 723.859375 554.105469 720.429688 C 559.503906 716.964844 565.871094 715.214844 573.207031 715.214844 C 582.570312 715.214844 590.15625 718.179688 595.960938 724.140625 C 601.824219 730.070312 604.757812 738.4375 604.757812 749.328125 L 604.757812 816.714844 L 577.046875 816.714844 L 577.046875 754.792969 C 577.046875 749.234375 575.578125 745.054688 572.613281 742.277344 C 569.648438 739.5 565.964844 738.09375 561.53125 738.09375 C 556.476562 738.09375 552.542969 739.714844 549.738281 742.929688 C 546.894531 746.113281 545.488281 750.296875 545.488281 755.507812 L 545.488281 816.714844 L 518.554688 816.714844 L 518.554688 754.230469 C 518.554688 749.328125 517.152344 745.398438 514.308594 742.496094 C 511.53125 739.59375 507.851562 738.125 503.292969 738.125 C 500.203125 738.125 497.421875 738.90625 494.925781 740.464844 C 492.492188 741.996094 490.558594 744.148438 489.121094 746.925781 C 487.6875 749.671875 486.96875 752.886719 486.96875 756.570312 L 486.96875 816.714844 L 459.191406 816.714844 Z M 459.222656 816.714844 " fill-opacity="1" fill-rule="nonzero"/><path fill="#ffffff" d="M 393.804688 797.136719 C 398.425781 797.136719 402.265625 795.828125 405.355469 793.238281 C 408.441406 790.585938 410.753906 786.964844 412.34375 782.40625 C 413.96875 777.851562 414.75 772.636719 414.75 766.800781 C 414.75 760.964844 413.933594 755.785156 412.34375 751.195312 C 410.785156 746.636719 408.441406 743.019531 405.355469 740.363281 C 402.265625 737.710938 398.425781 736.402344 393.804688 736.402344 C 389.1875 736.402344 385.253906 737.710938 382.070312 740.363281 C 378.949219 743.019531 376.578125 746.636719 374.953125 751.195312 C 373.394531 755.753906 372.613281 760.964844 372.613281 766.800781 C 372.613281 772.636719 373.394531 777.820312 374.953125 782.40625 C 376.578125 786.964844 378.917969 790.585938 382.070312 793.238281 C 385.253906 795.859375 389.15625 797.136719 393.804688 797.136719 Z M 393.679688 818.675781 C 383.535156 818.675781 374.796875 816.519531 367.398438 812.214844 C 360.066406 807.875 354.386719 801.820312 350.359375 794.078125 C 346.363281 786.308594 344.367188 777.257812 344.367188 767.019531 C 344.367188 756.78125 346.363281 747.636719 350.359375 739.898438 C 354.355469 732.125 360.035156 726.070312 367.398438 721.761719 C 374.796875 717.425781 383.566406 715.238281 393.679688 715.238281 C 403.792969 715.238281 412.5625 717.425781 419.898438 721.761719 C 427.292969 726.070312 432.976562 732.125 437 739.898438 C 440.996094 747.636719 442.992188 756.6875 442.992188 767.019531 C 442.992188 777.351562 440.996094 786.308594 437 794.078125 C 433.007812 801.820312 427.292969 807.875 419.898438 812.214844 C 412.5625 816.519531 403.792969 818.675781 393.679688 818.675781 Z M 393.679688 818.675781 " fill-opacity="1" fill-rule="nonzero"/><path fill="#ffffff" d="M 330.503906 729.898438 L 301.945312 729.898438 C 301.414062 726.214844 300.355469 722.90625 298.761719 720.035156 C 297.140625 717.132812 295.078125 714.636719 292.550781 712.605469 C 290.023438 710.578125 287.121094 708.984375 283.8125 707.925781 C 280.535156 706.832031 277.007812 706.300781 273.167969 706.300781 C 266.238281 706.300781 260.214844 708.019531 255.097656 711.453125 C 249.980469 714.851562 245.984375 719.816406 243.175781 726.339844 C 240.335938 732.832031 238.929688 740.695312 238.929688 749.964844 C 238.929688 759.234375 240.335938 767.507812 243.175781 773.96875 C 246.046875 780.460938 250.042969 785.328125 255.191406 788.636719 C 260.339844 791.945312 266.269531 793.601562 273.011719 793.601562 C 276.789062 793.601562 280.285156 793.101562 283.53125 792.101562 C 286.808594 791.101562 289.679688 789.636719 292.207031 787.730469 C 294.734375 785.765625 296.828125 783.394531 298.480469 780.617188 C 300.167969 777.839844 301.351562 774.65625 302.007812 771.097656 L 330.566406 771.222656 C 329.816406 777.339844 327.976562 783.269531 325.011719 788.980469 C 322.109375 794.628906 318.175781 799.6875 313.214844 804.179688 C 308.3125 808.613281 302.414062 812.140625 295.609375 814.761719 C 288.835938 817.320312 281.160156 818.601562 272.574219 818.601562 C 260.652344 818.601562 250.011719 815.917969 240.617188 810.515625 C 231.253906 805.117188 223.886719 797.3125 218.425781 787.109375 C 213.023438 776.902344 210.339844 764.511719 210.339844 749.996094 C 210.339844 735.484375 213.085938 723.03125 218.546875 712.824219 C 224.042969 702.617188 231.46875 694.816406 240.863281 689.480469 C 250.261719 684.078125 260.839844 681.394531 272.574219 681.394531 C 280.316406 681.394531 287.496094 682.488281 294.113281 684.671875 C 300.761719 686.855469 306.660156 690.007812 311.777344 694.191406 C 316.894531 698.3125 321.078125 703.398438 324.292969 709.390625 C 327.570312 715.382812 329.628906 722.25 330.566406 729.992188 Z M 330.503906 729.898438 " fill-opacity="1" fill-rule="nonzero"/></svg>