<svg width="1437" height="893" viewBox="0 0 1437 893" fill="none" xmlns="http://www.w3.org/2000/svg">
<path d="M532.851 165.5V174.313H597.149V165.5H612.385V228.813H596.149V232.5H533.851V228.813H517.615V165.5H532.851ZM619.5 209.705V219.581H613.385V209.705H619.5ZM516.615 209.705V219.581H510.5V209.705H516.615ZM619.5 194.754V204.63H613.385V194.754H619.5ZM516.615 194.754V204.63H510.5V194.754H516.615Z" stroke="#5E0F00" stroke-opacity="0.1"/>
<path d="M574.896 219.872V212.783H567.84V189.766H574.896V182.597H597.629V189.766H604.763V212.783H597.629V219.872H574.896ZM576.465 210.955H596.059V191.52H576.465V210.955Z" fill="#5E0F00" fill-opacity="0.1"/>
<path d="M597.129 183.097V190.266H604.263V212.283H597.129V219.372H575.396V212.283H568.34V190.266H575.396V183.097H597.129ZM575.965 211.454H596.56V191.02H575.965V211.454Z" stroke="#5E0F00" stroke-opacity="0.1"/>
<path d="M532.427 219.872V212.783H525.371V189.766H532.427V182.597H555.16V189.766H562.294V212.783H555.16V219.872H532.427ZM533.996 210.955H553.596V191.52H533.996V210.955Z" fill="#5E0F00" fill-opacity="0.1"/>
<path d="M554.66 183.097V190.266H561.794V212.283H554.66V219.372H532.927V212.283H525.871V190.266H532.927V183.097H554.66ZM533.496 211.454H554.096V191.02H533.496V211.454Z" stroke="#5E0F00" stroke-opacity="0.1"/>
<path d="M430.851 110.5V119.313H495.149V110.5H510.385V173.813H494.149V177.5H431.851V173.813H415.615V110.5H430.851ZM517.5 154.705V164.581H511.385V154.705H517.5ZM414.615 154.705V164.581H408.5V154.705H414.615ZM517.5 139.754V149.63H511.385V139.754H517.5ZM414.615 139.754V149.63H408.5V139.754H414.615Z" stroke="#5E0F00" stroke-opacity="0.1"/>
<path d="M472.896 164.872V157.783H465.84V134.766H472.896V127.597H495.629V134.766H502.763V157.783H495.629V164.872H472.896ZM474.465 155.955H494.059V136.52H474.465V155.955Z" fill="#5E0F00" fill-opacity="0.1"/>
<path d="M495.129 128.097V135.266H502.263V157.283H495.129V164.372H473.396V157.283H466.34V135.266H473.396V128.097H495.129ZM473.965 156.454H494.56V136.02H473.965V156.454Z" stroke="#5E0F00" stroke-opacity="0.1"/>
<path d="M430.427 164.872V157.783H423.371V134.766H430.427V127.597H453.16V134.766H460.294V157.783H453.16V164.872H430.427ZM431.996 155.955H451.596V136.52H431.996V155.955Z" fill="#5E0F00" fill-opacity="0.1"/>
<path d="M452.66 128.097V135.266H459.794V157.283H452.66V164.372H430.927V157.283H423.871V135.266H430.927V128.097H452.66ZM431.496 156.454H452.096V136.02H431.496V156.454Z" stroke="#5E0F00" stroke-opacity="0.1"/>
<path d="M226.851 0.5V9.31348H291.149V0.5H306.385V63.8135H290.149V67.5H227.851V63.8135H211.615V0.5H226.851ZM313.5 44.7051V54.5811H307.385V44.7051H313.5ZM210.615 44.7051V54.5811H204.5V44.7051H210.615ZM313.5 29.7539V39.6299H307.385V29.7539H313.5ZM210.615 29.7539V39.6299H204.5V29.7539H210.615Z" stroke="#5E0F00" stroke-opacity="0.1"/>
<path d="M268.896 54.8724V47.783H261.84V24.7659H268.896V17.5967H291.629V24.7659H298.763V47.783H291.629V54.8724H268.896ZM270.465 45.9546H290.059V26.5196H270.465V45.9546Z" fill="#5E0F00" fill-opacity="0.1"/>
<path d="M291.129 18.0967V25.2657H298.263V47.2833H291.129V54.3721H269.396V47.2833H262.34V25.2657H269.396V18.0967H291.129ZM269.965 46.4542H290.56V26.0196H269.965V46.4542Z" stroke="#5E0F00" stroke-opacity="0.1"/>
<path d="M226.427 54.8724V47.783H219.371V24.7659H226.427V17.5967H249.16V24.7659H256.294V47.783H249.16V54.8724H226.427ZM227.996 45.9546H247.596V26.5196H227.996V45.9546Z" fill="#5E0F00" fill-opacity="0.1"/>
<path d="M248.66 18.0967V25.2657H255.794V47.2833H248.66V54.3721H226.927V47.2833H219.871V25.2657H226.927V18.0967H248.66ZM227.496 46.4542H248.096V26.0196H227.496V46.4542Z" stroke="#5E0F00" stroke-opacity="0.1"/>
<path d="M328.851 55.5V64.3135H393.149V55.5H408.385V118.813H392.149V122.5H329.851V118.813H313.615V55.5H328.851ZM415.5 99.7051V109.581H409.385V99.7051H415.5ZM312.615 99.7051V109.581H306.5V99.7051H312.615ZM415.5 84.7539V94.6299H409.385V84.7539H415.5ZM312.615 84.7539V94.6299H306.5V84.7539H312.615Z" stroke="#5E0F00" stroke-opacity="0.1"/>
<path d="M370.896 109.872V102.783H363.84V79.7659H370.896V72.5967H393.629V79.7659H400.763V102.783H393.629V109.872H370.896ZM372.465 100.955H392.059V81.5196H372.465V100.955Z" fill="#5E0F00" fill-opacity="0.1"/>
<path d="M393.129 73.0967V80.2657H400.263V102.283H393.129V109.372H371.396V102.283H364.34V80.2657H371.396V73.0967H393.129ZM371.965 101.454H392.56V81.0196H371.965V101.454Z" stroke="#5E0F00" stroke-opacity="0.1"/>
<path d="M328.427 109.872V102.783H321.371V79.7659H328.427V72.5967H351.16V79.7659H358.294V102.783H351.16V109.872H328.427ZM329.996 100.955H349.596V81.5196H329.996V100.955Z" fill="#5E0F00" fill-opacity="0.1"/>
<path d="M350.66 73.0967V80.2657H357.794V102.283H350.66V109.372H328.927V102.283H321.871V80.2657H328.927V73.0967H350.66ZM329.496 101.454H350.096V81.0196H329.496V101.454Z" stroke="#5E0F00" stroke-opacity="0.1"/>
<path d="M532.851 55.5V64.3135H597.149V55.5H612.385V118.813H596.149V122.5H533.851V118.813H517.615V55.5H532.851ZM619.5 99.7051V109.581H613.385V99.7051H619.5ZM516.615 99.7051V109.581H510.5V99.7051H516.615ZM619.5 84.7539V94.6299H613.385V84.7539H619.5ZM516.615 84.7539V94.6299H510.5V84.7539H516.615Z" stroke="#5E0F00" stroke-opacity="0.1"/>
<path d="M574.896 109.872V102.783H567.84V79.7659H574.896V72.5967H597.629V79.7659H604.763V102.783H597.629V109.872H574.896ZM576.465 100.955H596.059V81.5196H576.465V100.955Z" fill="#5E0F00" fill-opacity="0.1"/>
<path d="M597.129 73.0967V80.2657H604.263V102.283H597.129V109.372H575.396V102.283H568.34V80.2657H575.396V73.0967H597.129ZM575.965 101.454H596.56V81.0196H575.965V101.454Z" stroke="#5E0F00" stroke-opacity="0.1"/>
<path d="M532.427 109.872V102.783H525.371V79.7659H532.427V72.5967H555.16V79.7659H562.294V102.783H555.16V109.872H532.427ZM533.996 100.955H553.596V81.5196H533.996V100.955Z" fill="#5E0F00" fill-opacity="0.1"/>
<path d="M554.66 73.0967V80.2657H561.794V102.283H554.66V109.372H532.927V102.283H525.871V80.2657H532.927V73.0967H554.66ZM533.496 101.454H554.096V81.0196H533.496V101.454Z" stroke="#5E0F00" stroke-opacity="0.1"/>
<path d="M430.851 0.5V9.31348H495.149V0.5H510.385V63.8135H494.149V67.5H431.851V63.8135H415.615V0.5H430.851ZM517.5 44.7051V54.5811H511.385V44.7051H517.5ZM414.615 44.7051V54.5811H408.5V44.7051H414.615ZM517.5 29.7539V39.6299H511.385V29.7539H517.5ZM414.615 29.7539V39.6299H408.5V29.7539H414.615Z" stroke="#5E0F00" stroke-opacity="0.1"/>
<path d="M472.896 54.8724V47.783H465.84V24.7659H472.896V17.5967H495.629V24.7659H502.763V47.783H495.629V54.8724H472.896ZM474.465 45.9546H494.059V26.5196H474.465V45.9546Z" fill="#5E0F00" fill-opacity="0.1"/>
<path d="M495.129 18.0967V25.2657H502.263V47.2833H495.129V54.3721H473.396V47.2833H466.34V25.2657H473.396V18.0967H495.129ZM473.965 46.4542H494.56V26.0196H473.965V46.4542Z" stroke="#5E0F00" stroke-opacity="0.1"/>
<path d="M430.427 54.8724V47.783H423.371V24.7659H430.427V17.5967H453.16V24.7659H460.294V47.783H453.16V54.8724H430.427ZM431.996 45.9546H451.596V26.5196H431.996V45.9546Z" fill="#5E0F00" fill-opacity="0.1"/>
<path d="M452.66 18.0967V25.2657H459.794V47.2833H452.66V54.3721H430.927V47.2833H423.871V25.2657H430.927V18.0967H452.66ZM431.496 46.4542H452.096V26.0196H431.496V46.4542Z" stroke="#5E0F00" stroke-opacity="0.1"/>
<path d="M532.851 275.5V284.313H597.149V275.5H612.385V338.813H596.149V342.5H533.851V338.813H517.615V275.5H532.851ZM619.5 319.705V329.581H613.385V319.705H619.5ZM516.615 319.705V329.581H510.5V319.705H516.615ZM619.5 304.754V314.63H613.385V304.754H619.5ZM516.615 304.754V314.63H510.5V304.754H516.615Z" stroke="#5E0F00" stroke-opacity="0.1"/>
<path d="M574.896 329.872V322.783H567.84V299.766H574.896V292.597H597.629V299.766H604.763V322.783H597.629V329.872H574.896ZM576.465 320.955H596.059V301.52H576.465V320.955Z" fill="#5E0F00" fill-opacity="0.1"/>
<path d="M597.129 293.097V300.266H604.263V322.283H597.129V329.372H575.396V322.283H568.34V300.266H575.396V293.097H597.129ZM575.965 321.454H596.56V301.02H575.965V321.454Z" stroke="#5E0F00" stroke-opacity="0.1"/>
<path d="M532.427 329.872V322.783H525.371V299.766H532.427V292.597H555.16V299.766H562.294V322.783H555.16V329.872H532.427ZM533.996 320.955H553.596V301.52H533.996V320.955Z" fill="#5E0F00" fill-opacity="0.1"/>
<path d="M554.66 293.097V300.266H561.794V322.283H554.66V329.372H532.927V322.283H525.871V300.266H532.927V293.097H554.66ZM533.496 321.454H554.096V301.02H533.496V321.454Z" stroke="#5E0F00" stroke-opacity="0.1"/>
<path d="M430.851 220.5V229.313H495.149V220.5H510.385V283.813H494.149V287.5H431.851V283.813H415.615V220.5H430.851ZM517.5 264.705V274.581H511.385V264.705H517.5ZM414.615 264.705V274.581H408.5V264.705H414.615ZM517.5 249.754V259.63H511.385V249.754H517.5ZM414.615 249.754V259.63H408.5V249.754H414.615Z" stroke="#5E0F00" stroke-opacity="0.1"/>
<path d="M472.896 274.872V267.783H465.84V244.766H472.896V237.597H495.629V244.766H502.763V267.783H495.629V274.872H472.896ZM474.465 265.955H494.059V246.52H474.465V265.955Z" fill="#5E0F00" fill-opacity="0.1"/>
<path d="M495.129 238.097V245.266H502.263V267.283H495.129V274.372H473.396V267.283H466.34V245.266H473.396V238.097H495.129ZM473.965 266.454H494.56V246.02H473.965V266.454Z" stroke="#5E0F00" stroke-opacity="0.1"/>
<path d="M430.427 274.872V267.783H423.371V244.766H430.427V237.597H453.16V244.766H460.294V267.783H453.16V274.872H430.427ZM431.996 265.955H451.596V246.52H431.996V265.955Z" fill="#5E0F00" fill-opacity="0.1"/>
<path d="M452.66 238.097V245.266H459.794V267.283H452.66V274.372H430.927V267.283H423.871V245.266H430.927V238.097H452.66ZM431.496 266.454H452.096V246.02H431.496V266.454Z" stroke="#5E0F00" stroke-opacity="0.1"/>
<path d="M532.851 385.5V394.314H597.149V385.5H612.385V448.814H596.149V452.5H533.851V448.814H517.615V385.5H532.851ZM619.5 429.705V439.581H613.385V429.705H619.5ZM516.615 429.705V439.581H510.5V429.705H516.615ZM619.5 414.754V424.63H613.385V414.754H619.5ZM516.615 414.754V424.63H510.5V414.754H516.615Z" stroke="#5E0F00" stroke-opacity="0.1"/>
<path d="M574.896 439.872V432.783H567.84V409.766H574.896V402.597H597.629V409.766H604.763V432.783H597.629V439.872H574.896ZM576.465 430.955H596.059V411.52H576.465V430.955Z" fill="#5E0F00" fill-opacity="0.1"/>
<path d="M597.129 403.097V410.266H604.263V432.283H597.129V439.372H575.396V432.283H568.34V410.266H575.396V403.097H597.129ZM575.965 431.454H596.56V411.02H575.965V431.454Z" stroke="#5E0F00" stroke-opacity="0.1"/>
<path d="M532.427 439.872V432.783H525.371V409.766H532.427V402.597H555.16V409.766H562.294V432.783H555.16V439.872H532.427ZM533.996 430.955H553.596V411.52H533.996V430.955Z" fill="#5E0F00" fill-opacity="0.1"/>
<path d="M554.66 403.097V410.266H561.794V432.283H554.66V439.372H532.927V432.283H525.871V410.266H532.927V403.097H554.66ZM533.496 431.454H554.096V411.02H533.496V431.454Z" stroke="#5E0F00" stroke-opacity="0.1"/>
<path d="M328.851 275.5V284.313H393.149V275.5H408.385V338.813H392.149V342.5H329.851V338.813H313.615V275.5H328.851ZM415.5 319.705V329.581H409.385V319.705H415.5ZM312.615 319.705V329.581H306.5V319.705H312.615ZM415.5 304.754V314.63H409.385V304.754H415.5ZM312.615 304.754V314.63H306.5V304.754H312.615Z" stroke="#5E0F00" stroke-opacity="0.04"/>
<path d="M370.896 329.872V322.783H363.84V299.766H370.896V292.597H393.629V299.766H400.763V322.783H393.629V329.872H370.896ZM372.465 320.955H392.059V301.52H372.465V320.955Z" fill="#5E0F00" fill-opacity="0.04"/>
<path d="M393.129 293.097V300.266H400.263V322.283H393.129V329.372H371.396V322.283H364.34V300.266H371.396V293.097H393.129ZM371.965 321.454H392.56V301.02H371.965V321.454Z" stroke="#5E0F00" stroke-opacity="0.04"/>
<path d="M328.427 329.872V322.783H321.371V299.766H328.427V292.597H351.16V299.766H358.294V322.783H351.16V329.872H328.427ZM329.996 320.955H349.596V301.52H329.996V320.955Z" fill="#5E0F00" fill-opacity="0.04"/>
<path d="M350.66 293.097V300.266H357.794V322.283H350.66V329.372H328.927V322.283H321.871V300.266H328.927V293.097H350.66ZM329.496 321.454H350.096V301.02H329.496V321.454Z" stroke="#5E0F00" stroke-opacity="0.04"/>
<path d="M226.851 220.5V229.313H291.149V220.5H306.385V283.813H290.149V287.5H227.851V283.813H211.615V220.5H226.851ZM313.5 264.705V274.581H307.385V264.705H313.5ZM210.615 264.705V274.581H204.5V264.705H210.615ZM313.5 249.754V259.63H307.385V249.754H313.5ZM210.615 249.754V259.63H204.5V249.754H210.615Z" stroke="#5E0F00" stroke-opacity="0.04"/>
<path d="M268.896 274.872V267.783H261.84V244.766H268.896V237.597H291.629V244.766H298.763V267.783H291.629V274.872H268.896ZM270.465 265.955H290.059V246.52H270.465V265.955Z" fill="#5E0F00" fill-opacity="0.04"/>
<path d="M291.129 238.097V245.266H298.263V267.283H291.129V274.372H269.396V267.283H262.34V245.266H269.396V238.097H291.129ZM269.965 266.454H290.56V246.02H269.965V266.454Z" stroke="#5E0F00" stroke-opacity="0.04"/>
<path d="M226.427 274.872V267.783H219.371V244.766H226.427V237.597H249.16V244.766H256.294V267.783H249.16V274.872H226.427ZM227.996 265.955H247.596V246.52H227.996V265.955Z" fill="#5E0F00" fill-opacity="0.04"/>
<path d="M248.66 238.097V245.266H255.794V267.283H248.66V274.372H226.927V267.283H219.871V245.266H226.927V238.097H248.66ZM227.496 266.454H248.096V246.02H227.496V266.454Z" stroke="#5E0F00" stroke-opacity="0.04"/>
<path d="M226.851 110.5V119.313H291.149V110.5H306.385V173.813H290.149V177.5H227.851V173.813H211.615V110.5H226.851ZM313.5 154.705V164.581H307.385V154.705H313.5ZM210.615 154.705V164.581H204.5V154.705H210.615ZM313.5 139.754V149.63H307.385V139.754H313.5ZM210.615 139.754V149.63H204.5V139.754H210.615Z" stroke="#5E0F00" stroke-opacity="0.04"/>
<path d="M268.896 164.872V157.783H261.84V134.766H268.896V127.597H291.629V134.766H298.763V157.783H291.629V164.872H268.896ZM270.465 155.955H290.059V136.52H270.465V155.955Z" fill="#5E0F00" fill-opacity="0.04"/>
<path d="M291.129 128.097V135.266H298.263V157.283H291.129V164.372H269.396V157.283H262.34V135.266H269.396V128.097H291.129ZM269.965 156.454H290.56V136.02H269.965V156.454Z" stroke="#5E0F00" stroke-opacity="0.04"/>
<path d="M226.427 164.872V157.783H219.371V134.766H226.427V127.597H249.16V134.766H256.294V157.783H249.16V164.872H226.427ZM227.996 155.955H247.596V136.52H227.996V155.955Z" fill="#5E0F00" fill-opacity="0.04"/>
<path d="M248.66 128.097V135.266H255.794V157.283H248.66V164.372H226.927V157.283H219.871V135.266H226.927V128.097H248.66ZM227.496 156.454H248.096V136.02H227.496V156.454Z" stroke="#5E0F00" stroke-opacity="0.04"/>
<path d="M124.851 55.5V64.3135H189.149V55.5H204.385V118.813H188.149V122.5H125.851V118.813H109.615V55.5H124.851ZM211.5 99.7051V109.581H205.385V99.7051H211.5ZM108.615 99.7051V109.581H102.5V99.7051H108.615ZM211.5 84.7539V94.6299H205.385V84.7539H211.5ZM108.615 84.7539V94.6299H102.5V84.7539H108.615Z" stroke="#5E0F00" stroke-opacity="0.04"/>
<path d="M166.896 109.872V102.783H159.84V79.7659H166.896V72.5967H189.629V79.7659H196.763V102.783H189.629V109.872H166.896ZM168.465 100.955H188.059V81.5196H168.465V100.955Z" fill="#5E0F00" fill-opacity="0.04"/>
<path d="M189.129 73.0967V80.2657H196.263V102.283H189.129V109.372H167.396V102.283H160.34V80.2657H167.396V73.0967H189.129ZM167.965 101.454H188.56V81.0196H167.965V101.454Z" stroke="#5E0F00" stroke-opacity="0.04"/>
<path d="M124.427 109.872V102.783H117.371V79.7659H124.427V72.5967H147.16V79.7659H154.294V102.783H147.16V109.872H124.427ZM125.996 100.955H145.596V81.5196H125.996V100.955Z" fill="#5E0F00" fill-opacity="0.04"/>
<path d="M146.66 73.0967V80.2657H153.794V102.283H146.66V109.372H124.927V102.283H117.871V80.2657H124.927V73.0967H146.66ZM125.496 101.454H146.096V81.0196H125.496V101.454Z" stroke="#5E0F00" stroke-opacity="0.04"/>
<path d="M124.851 165.5V174.313H189.149V165.5H204.385V228.813H188.149V232.5H125.851V228.813H109.615V165.5H124.851ZM211.5 209.705V219.581H205.385V209.705H211.5ZM108.615 209.705V219.581H102.5V209.705H108.615ZM211.5 194.754V204.63H205.385V194.754H211.5ZM108.615 194.754V204.63H102.5V194.754H108.615Z" stroke="#5E0F00" stroke-opacity="0.04"/>
<path d="M166.896 219.872V212.783H159.84V189.766H166.896V182.597H189.629V189.766H196.763V212.783H189.629V219.872H166.896ZM168.465 210.955H188.059V191.52H168.465V210.955Z" fill="#5E0F00" fill-opacity="0.04"/>
<path d="M189.129 183.097V190.266H196.263V212.283H189.129V219.372H167.396V212.283H160.34V190.266H167.396V183.097H189.129ZM167.965 211.454H188.56V191.02H167.965V211.454Z" stroke="#5E0F00" stroke-opacity="0.04"/>
<path d="M124.427 219.872V212.783H117.371V189.766H124.427V182.597H147.16V189.766H154.294V212.783H147.16V219.872H124.427ZM125.996 210.955H145.596V191.52H125.996V210.955Z" fill="#5E0F00" fill-opacity="0.04"/>
<path d="M146.66 183.097V190.266H153.794V212.283H146.66V219.372H124.927V212.283H117.871V190.266H124.927V183.097H146.66ZM125.496 211.454H146.096V191.02H125.496V211.454Z" stroke="#5E0F00" stroke-opacity="0.04"/>
<path d="M328.851 165.5V174.313H393.149V165.5H408.385V228.813H392.149V232.5H329.851V228.813H313.615V165.5H328.851ZM415.5 209.705V219.581H409.385V209.705H415.5ZM312.615 209.705V219.581H306.5V209.705H312.615ZM415.5 194.754V204.63H409.385V194.754H415.5ZM312.615 194.754V204.63H306.5V194.754H312.615Z" stroke="#5E0F00" stroke-opacity="0.04"/>
<path d="M370.896 219.872V212.783H363.84V189.766H370.896V182.597H393.629V189.766H400.763V212.783H393.629V219.872H370.896ZM372.465 210.955H392.059V191.52H372.465V210.955Z" fill="#5E0F00" fill-opacity="0.04"/>
<path d="M393.129 183.097V190.266H400.263V212.283H393.129V219.372H371.396V212.283H364.34V190.266H371.396V183.097H393.129ZM371.965 211.454H392.56V191.02H371.965V211.454Z" stroke="#5E0F00" stroke-opacity="0.04"/>
<path d="M328.427 219.872V212.783H321.371V189.766H328.427V182.597H351.16V189.766H358.294V212.783H351.16V219.872H328.427ZM329.996 210.955H349.596V191.52H329.996V210.955Z" fill="#5E0F00" fill-opacity="0.04"/>
<path d="M350.66 183.097V190.266H357.794V212.283H350.66V219.372H328.927V212.283H321.871V190.266H328.927V183.097H350.66ZM329.496 211.454H350.096V191.02H329.496V211.454Z" stroke="#5E0F00" stroke-opacity="0.04"/>
<path d="M328.851 385.5V394.314H393.149V385.5H408.385V448.814H392.149V452.5H329.851V448.814H313.615V385.5H328.851ZM415.5 429.705V439.581H409.385V429.705H415.5ZM312.615 429.705V439.581H306.5V429.705H312.615ZM415.5 414.754V424.63H409.385V414.754H415.5ZM312.615 414.754V424.63H306.5V414.754H312.615Z" stroke="#5E0F00" stroke-opacity="0.03"/>
<path d="M370.896 439.872V432.783H363.84V409.766H370.896V402.597H393.629V409.766H400.763V432.783H393.629V439.872H370.896ZM372.465 430.955H392.059V411.52H372.465V430.955Z" fill="#5E0F00" fill-opacity="0.03"/>
<path d="M393.129 403.097V410.266H400.263V432.283H393.129V439.372H371.396V432.283H364.34V410.266H371.396V403.097H393.129ZM371.965 431.454H392.56V411.02H371.965V431.454Z" stroke="#5E0F00" stroke-opacity="0.03"/>
<path d="M328.427 439.872V432.783H321.371V409.766H328.427V402.597H351.16V409.766H358.294V432.783H351.16V439.872H328.427ZM329.996 430.955H349.596V411.52H329.996V430.955Z" fill="#5E0F00" fill-opacity="0.03"/>
<path d="M350.66 403.097V410.266H357.794V432.283H350.66V439.372H328.927V432.283H321.871V410.266H328.927V403.097H350.66ZM329.496 431.454H350.096V411.02H329.496V431.454Z" stroke="#5E0F00" stroke-opacity="0.03"/>
<path d="M226.851 330.5V339.314H291.149V330.5H306.385V393.814H290.149V397.5H227.851V393.814H211.615V330.5H226.851ZM313.5 374.705V384.581H307.385V374.705H313.5ZM210.615 374.705V384.581H204.5V374.705H210.615ZM313.5 359.754V369.63H307.385V359.754H313.5ZM210.615 359.754V369.63H204.5V359.754H210.615Z" stroke="#5E0F00" stroke-opacity="0.03"/>
<path d="M268.896 384.872V377.783H261.84V354.766H268.896V347.597H291.629V354.766H298.763V377.783H291.629V384.872H268.896ZM270.465 375.955H290.059V356.52H270.465V375.955Z" fill="#5E0F00" fill-opacity="0.03"/>
<path d="M291.129 348.097V355.266H298.263V377.283H291.129V384.372H269.396V377.283H262.34V355.266H269.396V348.097H291.129ZM269.965 376.454H290.56V356.02H269.965V376.454Z" stroke="#5E0F00" stroke-opacity="0.03"/>
<path d="M226.427 384.872V377.783H219.371V354.766H226.427V347.597H249.16V354.766H256.294V377.783H249.16V384.872H226.427ZM227.996 375.955H247.596V356.52H227.996V375.955Z" fill="#5E0F00" fill-opacity="0.03"/>
<path d="M248.66 348.097V355.266H255.794V377.283H248.66V384.372H226.927V377.283H219.871V355.266H226.927V348.097H248.66ZM227.496 376.454H248.096V356.02H227.496V376.454Z" stroke="#5E0F00" stroke-opacity="0.03"/>
<path d="M226.851 440.5V449.314H291.149V440.5H306.385V503.814H290.149V507.5H227.851V503.814H211.615V440.5H226.851ZM313.5 484.705V494.581H307.385V484.705H313.5ZM210.615 484.705V494.581H204.5V484.705H210.615ZM313.5 469.754V479.63H307.385V469.754H313.5ZM210.615 469.754V479.63H204.5V469.754H210.615Z" stroke="#5E0F00" stroke-opacity="0.015"/>
<path d="M268.896 494.872V487.783H261.84V464.766H268.896V457.597H291.629V464.766H298.763V487.783H291.629V494.872H268.896ZM270.465 485.955H290.059V466.52H270.465V485.955Z" fill="#5E0F00" fill-opacity="0.015"/>
<path d="M291.129 458.097V465.266H298.263V487.283H291.129V494.372H269.396V487.283H262.34V465.266H269.396V458.097H291.129ZM269.965 486.454H290.56V466.02H269.965V486.454Z" stroke="#5E0F00" stroke-opacity="0.015"/>
<path d="M226.427 494.872V487.783H219.371V464.766H226.427V457.597H249.16V464.766H256.294V487.783H249.16V494.872H226.427ZM227.996 485.955H247.596V466.52H227.996V485.955Z" fill="#5E0F00" fill-opacity="0.015"/>
<path d="M248.66 458.097V465.266H255.794V487.283H248.66V494.372H226.927V487.283H219.871V465.266H226.927V458.097H248.66ZM227.496 486.454H248.096V466.02H227.496V486.454Z" stroke="#5E0F00" stroke-opacity="0.015"/>
<path d="M124.851 385.5V394.314H189.149V385.5H204.385V448.814H188.149V452.5H125.851V448.814H109.615V385.5H124.851ZM211.5 429.705V439.581H205.385V429.705H211.5ZM108.615 429.705V439.581H102.5V429.705H108.615ZM211.5 414.754V424.63H205.385V414.754H211.5ZM108.615 414.754V424.63H102.5V414.754H108.615Z" stroke="#5E0F00" stroke-opacity="0.015"/>
<path d="M166.896 439.872V432.783H159.84V409.766H166.896V402.597H189.629V409.766H196.763V432.783H189.629V439.872H166.896ZM168.465 430.955H188.059V411.52H168.465V430.955Z" fill="#5E0F00" fill-opacity="0.015"/>
<path d="M189.129 403.097V410.266H196.263V432.283H189.129V439.372H167.396V432.283H160.34V410.266H167.396V403.097H189.129ZM167.965 431.454H188.56V411.02H167.965V431.454Z" stroke="#5E0F00" stroke-opacity="0.015"/>
<path d="M124.427 439.872V432.783H117.371V409.766H124.427V402.597H147.16V409.766H154.294V432.783H147.16V439.872H124.427ZM125.996 430.955H145.596V411.52H125.996V430.955Z" fill="#5E0F00" fill-opacity="0.015"/>
<path d="M146.66 403.097V410.266H153.794V432.283H146.66V439.372H124.927V432.283H117.871V410.266H124.927V403.097H146.66ZM125.496 431.454H146.096V411.02H125.496V431.454Z" stroke="#5E0F00" stroke-opacity="0.015"/>
<path d="M124.851 275.5V284.313H189.149V275.5H204.385V338.813H188.149V342.5H125.851V338.813H109.615V275.5H124.851ZM211.5 319.705V329.581H205.385V319.705H211.5ZM108.615 319.705V329.581H102.5V319.705H108.615ZM211.5 304.754V314.63H205.385V304.754H211.5ZM108.615 304.754V314.63H102.5V304.754H108.615Z" stroke="#5E0F00" stroke-opacity="0.015"/>
<path d="M166.896 329.872V322.783H159.84V299.766H166.896V292.597H189.629V299.766H196.763V322.783H189.629V329.872H166.896ZM168.465 320.955H188.059V301.52H168.465V320.955Z" fill="#5E0F00" fill-opacity="0.015"/>
<path d="M189.129 293.097V300.266H196.263V322.283H189.129V329.372H167.396V322.283H160.34V300.266H167.396V293.097H189.129ZM167.965 321.454H188.56V301.02H167.965V321.454Z" stroke="#5E0F00" stroke-opacity="0.015"/>
<path d="M124.427 329.872V322.783H117.371V299.766H124.427V292.597H147.16V299.766H154.294V322.783H147.16V329.872H124.427ZM125.996 320.955H145.596V301.52H125.996V320.955Z" fill="#5E0F00" fill-opacity="0.015"/>
<path d="M146.66 293.097V300.266H153.794V322.283H146.66V329.372H124.927V322.283H117.871V300.266H124.927V293.097H146.66ZM125.496 321.454H146.096V301.02H125.496V321.454Z" stroke="#5E0F00" stroke-opacity="0.015"/>
<path d="M226.851 550.5V559.314H291.149V550.5H306.385V613.814H290.149V617.5H227.851V613.814H211.615V550.5H226.851ZM313.5 594.705V604.581H307.385V594.705H313.5ZM210.615 594.705V604.581H204.5V594.705H210.615ZM313.5 579.754V589.63H307.385V579.754H313.5ZM210.615 579.754V589.63H204.5V579.754H210.615Z" stroke="#5E0F00" stroke-opacity="0.015"/>
<path d="M268.896 604.872V597.783H261.84V574.766H268.896V567.597H291.629V574.766H298.763V597.783H291.629V604.872H268.896ZM270.465 595.955H290.059V576.52H270.465V595.955Z" fill="#5E0F00" fill-opacity="0.015"/>
<path d="M291.129 568.097V575.266H298.263V597.283H291.129V604.372H269.396V597.283H262.34V575.266H269.396V568.097H291.129ZM269.965 596.454H290.56V576.02H269.965V596.454Z" stroke="#5E0F00" stroke-opacity="0.015"/>
<path d="M226.427 604.872V597.783H219.371V574.766H226.427V567.597H249.16V574.766H256.294V597.783H249.16V604.872H226.427ZM227.996 595.955H247.596V576.52H227.996V595.955Z" fill="#5E0F00" fill-opacity="0.015"/>
<path d="M248.66 568.097V575.266H255.794V597.283H248.66V604.372H226.927V597.283H219.871V575.266H226.927V568.097H248.66ZM227.496 596.454H248.096V576.02H227.496V596.454Z" stroke="#5E0F00" stroke-opacity="0.015"/>
<path d="M124.851 495.5V504.314H189.149V495.5H204.385V558.814H188.149V562.5H125.851V558.814H109.615V495.5H124.851ZM211.5 539.705V549.581H205.385V539.705H211.5ZM108.615 539.705V549.581H102.5V539.705H108.615ZM211.5 524.754V534.63H205.385V524.754H211.5ZM108.615 524.754V534.63H102.5V524.754H108.615Z" stroke="#5E0F00" stroke-opacity="0.015"/>
<path d="M166.896 549.872V542.783H159.84V519.766H166.896V512.597H189.629V519.766H196.763V542.783H189.629V549.872H166.896ZM168.465 540.955H188.059V521.52H168.465V540.955Z" fill="#5E0F00" fill-opacity="0.015"/>
<path d="M189.129 513.097V520.266H196.263V542.283H189.129V549.372H167.396V542.283H160.34V520.266H167.396V513.097H189.129ZM167.965 541.454H188.56V521.02H167.965V541.454Z" stroke="#5E0F00" stroke-opacity="0.015"/>
<path d="M124.427 549.872V542.783H117.371V519.766H124.427V512.597H147.16V519.766H154.294V542.783H147.16V549.872H124.427ZM125.996 540.955H145.596V521.52H125.996V540.955Z" fill="#5E0F00" fill-opacity="0.015"/>
<path d="M146.66 513.097V520.266H153.794V542.283H146.66V549.372H124.927V542.283H117.871V520.266H124.927V513.097H146.66ZM125.496 541.454H146.096V521.02H125.496V541.454Z" stroke="#5E0F00" stroke-opacity="0.015"/>
<path d="M226.851 660.5V669.314H291.149V660.5H306.385V723.814H290.149V727.5H227.851V723.814H211.615V660.5H226.851ZM313.5 704.705V714.581H307.385V704.705H313.5ZM210.615 704.705V714.581H204.5V704.705H210.615ZM313.5 689.754V699.63H307.385V689.754H313.5ZM210.615 689.754V699.63H204.5V689.754H210.615Z" stroke="#5E0F00" stroke-opacity="0.015"/>
<path d="M268.896 714.872V707.783H261.84V684.766H268.896V677.597H291.629V684.766H298.763V707.783H291.629V714.872H268.896ZM270.465 705.955H290.059V686.52H270.465V705.955Z" fill="#5E0F00" fill-opacity="0.015"/>
<path d="M291.129 678.097V685.266H298.263V707.283H291.129V714.372H269.396V707.283H262.34V685.266H269.396V678.097H291.129ZM269.965 706.454H290.56V686.02H269.965V706.454Z" stroke="#5E0F00" stroke-opacity="0.015"/>
<path d="M226.427 714.872V707.783H219.371V684.766H226.427V677.597H249.16V684.766H256.294V707.783H249.16V714.872H226.427ZM227.996 705.955H247.596V686.52H227.996V705.955Z" fill="#5E0F00" fill-opacity="0.015"/>
<path d="M248.66 678.097V685.266H255.794V707.283H248.66V714.372H226.927V707.283H219.871V685.266H226.927V678.097H248.66ZM227.496 706.454H248.096V686.02H227.496V706.454Z" stroke="#5E0F00" stroke-opacity="0.015"/>
<path d="M22.8506 0.5V9.31348H87.1494V0.5H102.385V63.8135H86.1494V67.5H23.8506V63.8135H7.61523V0.5H22.8506ZM109.5 44.7051V54.5811H103.385V44.7051H109.5ZM6.61523 44.7051V54.5811H0.5V44.7051H6.61523ZM109.5 29.7539V39.6299H103.385V29.7539H109.5ZM6.61523 29.7539V39.6299H0.5V29.7539H6.61523Z" stroke="#5E0F00" stroke-opacity="0.07"/>
<path d="M64.896 54.8724V47.783H57.8398V24.7659H64.896V17.5967H87.6285V24.7659H94.7631V47.783H87.6285V54.8724H64.896ZM66.4651 45.9546H86.0594V26.5196H66.4651V45.9546Z" fill="#5E0F00" fill-opacity="0.04"/>
<path d="M87.1289 18.0967V25.2657H94.2627V47.2833H87.1289V54.3721H65.3955V47.2833H58.3398V25.2657H65.3955V18.0967H87.1289ZM65.9648 46.4542H86.5596V26.0196H65.9648V46.4542Z" stroke="#5E0F00" stroke-opacity="0.07"/>
<path d="M22.4272 54.8724V47.783H15.3711V24.7659H22.4272V17.5967H45.1598V24.7659H52.2944V47.783H45.1598V54.8724H22.4272ZM23.9963 45.9546H43.5956V26.5196H23.9963V45.9546Z" fill="#5E0F00" fill-opacity="0.04"/>
<path d="M44.6602 18.0967V25.2657H51.7939V47.2833H44.6602V54.3721H22.9268V47.2833H15.8711V25.2657H22.9268V18.0967H44.6602ZM23.4961 46.4542H44.0957V26.0196H23.4961V46.4542Z" stroke="#5E0F00" stroke-opacity="0.07"/>
<path d="M22.8506 110.5V119.313H87.1494V110.5H102.385V173.813H86.1494V177.5H23.8506V173.813H7.61523V110.5H22.8506ZM109.5 154.705V164.581H103.385V154.705H109.5ZM6.61523 154.705V164.581H0.5V154.705H6.61523ZM109.5 139.754V149.63H103.385V139.754H109.5ZM6.61523 139.754V149.63H0.5V139.754H6.61523Z" stroke="#5E0F00" stroke-opacity="0.07"/>
<path d="M64.896 164.872V157.783H57.8398V134.766H64.896V127.597H87.6285V134.766H94.7631V157.783H87.6285V164.872H64.896ZM66.4651 155.955H86.0594V136.52H66.4651V155.955Z" fill="#5E0F00" fill-opacity="0.04"/>
<path d="M87.1289 128.097V135.266H94.2627V157.283H87.1289V164.372H65.3955V157.283H58.3398V135.266H65.3955V128.097H87.1289ZM65.9648 156.454H86.5596V136.02H65.9648V156.454Z" stroke="#5E0F00" stroke-opacity="0.07"/>
<path d="M22.4272 164.872V157.783H15.3711V134.766H22.4272V127.597H45.1598V134.766H52.2944V157.783H45.1598V164.872H22.4272ZM23.9963 155.955H43.5956V136.52H23.9963V155.955Z" fill="#5E0F00" fill-opacity="0.04"/>
<path d="M44.6602 128.097V135.266H51.7939V157.283H44.6602V164.372H22.9268V157.283H15.8711V135.266H22.9268V128.097H44.6602ZM23.4961 156.454H44.0957V136.02H23.4961V156.454Z" stroke="#5E0F00" stroke-opacity="0.07"/>
<path d="M22.8506 220.5V229.313H87.1494V220.5H102.385V283.813H86.1494V287.5H23.8506V283.813H7.61523V220.5H22.8506ZM109.5 264.705V274.581H103.385V264.705H109.5ZM6.61523 264.705V274.581H0.5V264.705H6.61523ZM109.5 249.754V259.63H103.385V249.754H109.5ZM6.61523 249.754V259.63H0.5V249.754H6.61523Z" stroke="#5E0F00" stroke-opacity="0.03"/>
<path d="M64.896 274.872V267.783H57.8398V244.766H64.896V237.597H87.6285V244.766H94.7631V267.783H87.6285V274.872H64.896ZM66.4651 265.955H86.0594V246.52H66.4651V265.955Z" fill="#5E0F00" fill-opacity="0.03"/>
<path d="M87.1289 238.097V245.266H94.2627V267.283H87.1289V274.372H65.3955V267.283H58.3398V245.266H65.3955V238.097H87.1289ZM65.9648 266.454H86.5596V246.02H65.9648V266.454Z" stroke="#5E0F00" stroke-opacity="0.03"/>
<path d="M22.4272 274.872V267.783H15.3711V244.766H22.4272V237.597H45.1598V244.766H52.2944V267.783H45.1598V274.872H22.4272ZM23.9963 265.955H43.5956V246.52H23.9963V265.955Z" fill="#5E0F00" fill-opacity="0.03"/>
<path d="M44.6602 238.097V245.266H51.7939V267.283H44.6602V274.372H22.9268V267.283H15.8711V245.266H22.9268V238.097H44.6602ZM23.4961 266.454H44.0957V246.02H23.4961V266.454Z" stroke="#5E0F00" stroke-opacity="0.03"/>
<path d="M736.851 605.5V614.314H801.149V605.5H816.385V668.814H800.149V672.5H737.851V668.814H721.615V605.5H736.851ZM823.5 649.705V659.581H817.385V649.705H823.5ZM720.615 649.705V659.581H714.5V649.705H720.615ZM823.5 634.754V644.63H817.385V634.754H823.5ZM720.615 634.754V644.63H714.5V634.754H720.615Z" stroke="#5E0F00" stroke-opacity="0.2"/>
<path d="M778.896 659.872V652.783H771.84V629.766H778.896V622.597H801.629V629.766H808.763V652.783H801.629V659.872H778.896ZM780.465 650.955H800.059V631.52H780.465V650.955Z" fill="#5E0F00" fill-opacity="0.2"/>
<path d="M801.129 623.097V630.266H808.263V652.283H801.129V659.372H779.396V652.283H772.34V630.266H779.396V623.097H801.129ZM779.965 651.454H800.56V631.02H779.965V651.454Z" stroke="#5E0F00" stroke-opacity="0.2"/>
<path d="M736.427 659.872V652.783H729.371V629.766H736.427V622.597H759.16V629.766H766.294V652.783H759.16V659.872H736.427ZM737.996 650.955H757.596V631.52H737.996V650.955Z" fill="#5E0F00" fill-opacity="0.2"/>
<path d="M758.66 623.097V630.266H765.794V652.283H758.66V659.372H736.927V652.283H729.871V630.266H736.927V623.097H758.66ZM737.496 651.454H758.096V631.02H737.496V651.454Z" stroke="#5E0F00" stroke-opacity="0.2"/>
<path d="M634.851 550.5V559.314H699.149V550.5H714.385V613.814H698.149V617.5H635.851V613.814H619.615V550.5H634.851ZM721.5 594.705V604.581H715.385V594.705H721.5ZM618.615 594.705V604.581H612.5V594.705H618.615ZM721.5 579.754V589.63H715.385V579.754H721.5ZM618.615 579.754V589.63H612.5V579.754H618.615Z" stroke="#5E0F00" stroke-opacity="0.1"/>
<path d="M676.896 604.872V597.783H669.84V574.766H676.896V567.597H699.629V574.766H706.763V597.783H699.629V604.872H676.896ZM678.465 595.955H698.059V576.52H678.465V595.955Z" fill="#5E0F00" fill-opacity="0.1"/>
<path d="M699.129 568.097V575.266H706.263V597.283H699.129V604.372H677.396V597.283H670.34V575.266H677.396V568.097H699.129ZM677.965 596.454H698.56V576.02H677.965V596.454Z" stroke="#5E0F00" stroke-opacity="0.1"/>
<path d="M634.427 604.872V597.783H627.371V574.766H634.427V567.597H657.16V574.766H664.294V597.783H657.16V604.872H634.427ZM635.996 595.955H655.596V576.52H635.996V595.955Z" fill="#5E0F00" fill-opacity="0.1"/>
<path d="M656.66 568.097V575.266H663.794V597.283H656.66V604.372H634.927V597.283H627.871V575.266H634.927V568.097H656.66ZM635.496 596.454H656.096V576.02H635.496V596.454Z" stroke="#5E0F00" stroke-opacity="0.1"/>
<path d="M430.851 440.5V449.314H495.149V440.5H510.385V503.814H494.149V507.5H431.851V503.814H415.615V440.5H430.851ZM517.5 484.705V494.581H511.385V484.705H517.5ZM414.615 484.705V494.581H408.5V484.705H414.615ZM517.5 469.754V479.63H511.385V469.754H517.5ZM414.615 469.754V479.63H408.5V469.754H414.615Z" stroke="#5E0F00" stroke-opacity="0.06"/>
<path d="M472.896 494.872V487.783H465.84V464.766H472.896V457.597H495.629V464.766H502.763V487.783H495.629V494.872H472.896ZM474.465 485.955H494.059V466.52H474.465V485.955Z" fill="#5E0F00" fill-opacity="0.06"/>
<path d="M495.129 458.097V465.266H502.263V487.283H495.129V494.372H473.396V487.283H466.34V465.266H473.396V458.097H495.129ZM473.965 486.454H494.56V466.02H473.965V486.454Z" stroke="#5E0F00" stroke-opacity="0.06"/>
<path d="M430.427 494.872V487.783H423.371V464.766H430.427V457.597H453.16V464.766H460.294V487.783H453.16V494.872H430.427ZM431.996 485.955H451.596V466.52H431.996V485.955Z" fill="#5E0F00" fill-opacity="0.06"/>
<path d="M452.66 458.097V465.266H459.794V487.283H452.66V494.372H430.927V487.283H423.871V465.266H430.927V458.097H452.66ZM431.496 486.454H452.096V466.02H431.496V486.454Z" stroke="#5E0F00" stroke-opacity="0.06"/>
<path d="M430.851 330.5V339.314H495.149V330.5H510.385V393.814H494.149V397.5H431.851V393.814H415.615V330.5H430.851ZM517.5 374.705V384.581H511.385V374.705H517.5ZM414.615 374.705V384.581H408.5V374.705H414.615ZM517.5 359.754V369.63H511.385V359.754H517.5ZM414.615 359.754V369.63H408.5V359.754H414.615Z" stroke="#5E0F00" stroke-opacity="0.1"/>
<path d="M472.896 384.872V377.783H465.84V354.766H472.896V347.597H495.629V354.766H502.763V377.783H495.629V384.872H472.896ZM474.465 375.955H494.059V356.52H474.465V375.955Z" fill="#5E0F00" fill-opacity="0.1"/>
<path d="M495.129 348.097V355.266H502.263V377.283H495.129V384.372H473.396V377.283H466.34V355.266H473.396V348.097H495.129ZM473.965 376.454H494.56V356.02H473.965V376.454Z" stroke="#5E0F00" stroke-opacity="0.1"/>
<path d="M430.427 384.872V377.783H423.371V354.766H430.427V347.597H453.16V354.766H460.294V377.783H453.16V384.872H430.427ZM431.996 375.955H451.596V356.52H431.996V375.955Z" fill="#5E0F00" fill-opacity="0.1"/>
<path d="M452.66 348.097V355.266H459.794V377.283H452.66V384.372H430.927V377.283H423.871V355.266H430.927V348.097H452.66ZM431.496 376.454H452.096V356.02H431.496V376.454Z" stroke="#5E0F00" stroke-opacity="0.1"/>
<path d="M532.851 495.5V504.314H597.149V495.5H612.385V558.814H596.149V562.5H533.851V558.814H517.615V495.5H532.851ZM619.5 539.705V549.581H613.385V539.705H619.5ZM516.615 539.705V549.581H510.5V539.705H516.615ZM619.5 524.754V534.63H613.385V524.754H619.5ZM516.615 524.754V534.63H510.5V524.754H516.615Z" stroke="#5E0F00" stroke-opacity="0.1"/>
<path d="M574.896 549.872V542.783H567.84V519.766H574.896V512.597H597.629V519.766H604.763V542.783H597.629V549.872H574.896ZM576.465 540.955H596.059V521.52H576.465V540.955Z" fill="#5E0F00" fill-opacity="0.1"/>
<path d="M597.129 513.097V520.266H604.263V542.283H597.129V549.372H575.396V542.283H568.34V520.266H575.396V513.097H597.129ZM575.965 541.454H596.56V521.02H575.965V541.454Z" stroke="#5E0F00" stroke-opacity="0.1"/>
<path d="M532.427 549.872V542.783H525.371V519.766H532.427V512.597H555.16V519.766H562.294V542.783H555.16V549.872H532.427ZM533.996 540.955H553.596V521.52H533.996V540.955Z" fill="#5E0F00" fill-opacity="0.1"/>
<path d="M554.66 513.097V520.266H561.794V542.283H554.66V549.372H532.927V542.283H525.871V520.266H532.927V513.097H554.66ZM533.496 541.454H554.096V521.02H533.496V541.454Z" stroke="#5E0F00" stroke-opacity="0.1"/>
<path d="M736.851 495.5V504.314H801.149V495.5H816.385V558.814H800.149V562.5H737.851V558.814H721.615V495.5H736.851ZM823.5 539.705V549.581H817.385V539.705H823.5ZM720.615 539.705V549.581H714.5V539.705H720.615ZM823.5 524.754V534.63H817.385V524.754H823.5ZM720.615 524.754V534.63H714.5V524.754H720.615Z" stroke="#5E0F00" stroke-opacity="0.2"/>
<path d="M778.896 549.872V542.783H771.84V519.766H778.896V512.597H801.629V519.766H808.763V542.783H801.629V549.872H778.896ZM780.465 540.955H800.059V521.52H780.465V540.955Z" fill="#5E0F00" fill-opacity="0.2"/>
<path d="M801.129 513.097V520.266H808.263V542.283H801.129V549.372H779.396V542.283H772.34V520.266H779.396V513.097H801.129ZM779.965 541.454H800.56V521.02H779.965V541.454Z" stroke="#5E0F00" stroke-opacity="0.2"/>
<path d="M736.427 549.872V542.783H729.371V519.766H736.427V512.597H759.16V519.766H766.294V542.783H759.16V549.872H736.427ZM737.996 540.955H757.596V521.52H737.996V540.955Z" fill="#5E0F00" fill-opacity="0.2"/>
<path d="M758.66 513.097V520.266H765.794V542.283H758.66V549.372H736.927V542.283H729.871V520.266H736.927V513.097H758.66ZM737.496 541.454H758.096V521.02H737.496V541.454Z" stroke="#5E0F00" stroke-opacity="0.2"/>
<path d="M634.851 440.5V449.314H699.149V440.5H714.385V503.814H698.149V507.5H635.851V503.814H619.615V440.5H634.851ZM721.5 484.705V494.581H715.385V484.705H721.5ZM618.615 484.705V494.581H612.5V484.705H618.615ZM721.5 469.754V479.63H715.385V469.754H721.5ZM618.615 469.754V479.63H612.5V469.754H618.615Z" stroke="#5E0F00" stroke-opacity="0.1"/>
<path d="M676.896 494.872V487.783H669.84V464.766H676.896V457.597H699.629V464.766H706.763V487.783H699.629V494.872H676.896ZM678.465 485.955H698.059V466.52H678.465V485.955Z" fill="#5E0F00" fill-opacity="0.1"/>
<path d="M699.129 458.097V465.266H706.263V487.283H699.129V494.372H677.396V487.283H670.34V465.266H677.396V458.097H699.129ZM677.965 486.454H698.56V466.02H677.965V486.454Z" stroke="#5E0F00" stroke-opacity="0.1"/>
<path d="M634.427 494.872V487.783H627.371V464.766H634.427V457.597H657.16V464.766H664.294V487.783H657.16V494.872H634.427ZM635.996 485.955H655.596V466.52H635.996V485.955Z" fill="#5E0F00" fill-opacity="0.1"/>
<path d="M656.66 458.097V465.266H663.794V487.283H656.66V494.372H634.927V487.283H627.871V465.266H634.927V458.097H656.66ZM635.496 486.454H656.096V466.02H635.496V486.454Z" stroke="#5E0F00" stroke-opacity="0.1"/>
<path d="M839.851 660.5V669.314H904.149V660.5H919.385V723.814H903.149V727.5H840.851V723.814H824.615V660.5H839.851ZM926.5 704.705V714.581H920.385V704.705H926.5ZM823.615 704.705V714.581H817.5V704.705H823.615ZM926.5 689.754V699.63H920.385V689.754H926.5ZM823.615 689.754V699.63H817.5V689.754H823.615Z" stroke="#5E0F00" stroke-opacity="0.1"/>
<path d="M881.896 714.872V707.783H874.84V684.766H881.896V677.597H904.629V684.766H911.763V707.783H904.629V714.872H881.896ZM883.465 705.955H903.059V686.52H883.465V705.955Z" fill="#5E0F00" fill-opacity="0.1"/>
<path d="M904.129 678.097V685.266H911.263V707.283H904.129V714.372H882.396V707.283H875.34V685.266H882.396V678.097H904.129ZM882.965 706.454H903.56V686.02H882.965V706.454Z" stroke="#5E0F00" stroke-opacity="0.1"/>
<path d="M839.427 714.872V707.783H832.371V684.766H839.427V677.597H862.16V684.766H869.294V707.783H862.16V714.872H839.427ZM840.996 705.955H860.596V686.52H840.996V705.955Z" fill="#5E0F00" fill-opacity="0.1"/>
<path d="M861.66 678.097V685.266H868.794V707.283H861.66V714.372H839.927V707.283H832.871V685.266H839.927V678.097H861.66ZM840.496 706.454H861.096V686.02H840.496V706.454Z" stroke="#5E0F00" stroke-opacity="0.1"/>
<path d="M634.851 660.5V669.314H699.149V660.5H714.385V723.814H698.149V727.5H635.851V723.814H619.615V660.5H634.851ZM721.5 704.705V714.581H715.385V704.705H721.5ZM618.615 704.705V714.581H612.5V704.705H618.615ZM721.5 689.754V699.63H715.385V689.754H721.5ZM618.615 689.754V699.63H612.5V689.754H618.615Z" stroke="#5E0F00" stroke-opacity="0.1"/>
<path d="M676.896 714.872V707.783H669.84V684.766H676.896V677.597H699.629V684.766H706.763V707.783H699.629V714.872H676.896ZM678.465 705.955H698.059V686.52H678.465V705.955Z" fill="#5E0F00" fill-opacity="0.1"/>
<path d="M699.129 678.097V685.266H706.263V707.283H699.129V714.372H677.396V707.283H670.34V685.266H677.396V678.097H699.129ZM677.965 706.454H698.56V686.02H677.965V706.454Z" stroke="#5E0F00" stroke-opacity="0.1"/>
<path d="M634.427 714.872V707.783H627.371V684.766H634.427V677.597H657.16V684.766H664.294V707.783H657.16V714.872H634.427ZM635.996 705.955H655.596V686.52H635.996V705.955Z" fill="#5E0F00" fill-opacity="0.1"/>
<path d="M656.66 678.097V685.266H663.794V707.283H656.66V714.372H634.927V707.283H627.871V685.266H634.927V678.097H656.66ZM635.496 706.454H656.096V686.02H635.496V706.454Z" stroke="#5E0F00" stroke-opacity="0.1"/>
<path d="M839.851 770.5V779.314H904.149V770.5H919.385V833.814H903.149V837.5H840.851V833.814H824.615V770.5H839.851ZM926.5 814.705V824.581H920.385V814.705H926.5ZM823.615 814.705V824.581H817.5V814.705H823.615ZM926.5 799.754V809.63H920.385V799.754H926.5ZM823.615 799.754V809.63H817.5V799.754H823.615Z" stroke="#5E0F00" stroke-opacity="0.1"/>
<path d="M881.896 824.872V817.783H874.84V794.766H881.896V787.597H904.629V794.766H911.763V817.783H904.629V824.872H881.896ZM883.465 815.955H903.059V796.52H883.465V815.955Z" fill="#5E0F00" fill-opacity="0.1"/>
<path d="M904.129 788.097V795.266H911.263V817.283H904.129V824.372H882.396V817.283H875.34V795.266H882.396V788.097H904.129ZM882.965 816.454H903.56V796.02H882.965V816.454Z" stroke="#5E0F00" stroke-opacity="0.1"/>
<path d="M839.427 824.872V817.783H832.371V794.766H839.427V787.597H862.16V794.766H869.294V817.783H862.16V824.872H839.427ZM840.996 815.955H860.596V796.52H840.996V815.955Z" fill="#5E0F00" fill-opacity="0.1"/>
<path d="M861.66 788.097V795.266H868.794V817.283H861.66V824.372H839.927V817.283H832.871V795.266H839.927V788.097H861.66ZM840.496 816.454H861.096V796.02H840.496V816.454Z" stroke="#5E0F00" stroke-opacity="0.1"/>
<path d="M839.851 550.5V559.314H904.149V550.5H919.385V613.814H903.149V617.5H840.851V613.814H824.615V550.5H839.851ZM926.5 594.705V604.581H920.385V594.705H926.5ZM823.615 594.705V604.581H817.5V594.705H823.615ZM926.5 579.754V589.63H920.385V579.754H926.5ZM823.615 579.754V589.63H817.5V579.754H823.615Z" stroke="#5E0F00" stroke-opacity="0.2"/>
<path d="M881.896 604.872V597.783H874.84V574.766H881.896V567.597H904.629V574.766H911.763V597.783H904.629V604.872H881.896ZM883.465 595.955H903.059V576.52H883.465V595.955Z" fill="#5E0F00" fill-opacity="0.2"/>
<path d="M904.129 568.097V575.266H911.263V597.283H904.129V604.372H882.396V597.283H875.34V575.266H882.396V568.097H904.129ZM882.965 596.454H903.56V576.02H882.965V596.454Z" stroke="#5E0F00" stroke-opacity="0.2"/>
<path d="M839.427 604.872V597.783H832.371V574.766H839.427V567.597H862.16V574.766H869.294V597.783H862.16V604.872H839.427ZM840.996 595.955H860.596V576.52H840.996V595.955Z" fill="#5E0F00" fill-opacity="0.2"/>
<path d="M861.66 568.097V575.266H868.794V597.283H861.66V604.372H839.927V597.283H832.871V575.266H839.927V568.097H861.66ZM840.496 596.454H861.096V576.02H840.496V596.454Z" stroke="#5E0F00" stroke-opacity="0.2"/>
<path d="M941.851 605.5V614.314H1006.15V605.5H1021.38V668.814H1005.15V672.5H942.851V668.814H926.615V605.5H941.851ZM1028.5 649.705V659.581H1022.38V649.705H1028.5ZM925.615 649.705V659.581H919.5V649.705H925.615ZM1028.5 634.754V644.63H1022.38V634.754H1028.5ZM925.615 634.754V644.63H919.5V634.754H925.615Z" stroke="#5E0F00" stroke-opacity="0.1"/>
<path d="M983.896 659.872V652.783H976.84V629.766H983.896V622.597H1006.63V629.766H1013.76V652.783H1006.63V659.872H983.896ZM985.465 650.955H1005.06V631.52H985.465V650.955Z" fill="#5E0F00" fill-opacity="0.1"/>
<path d="M1006.13 623.097V630.266H1013.26V652.283H1006.13V659.372H984.396V652.283H977.34V630.266H984.396V623.097H1006.13ZM984.965 651.454H1005.56V631.02H984.965V651.454Z" stroke="#5E0F00" stroke-opacity="0.1"/>
<path d="M941.427 659.872V652.783H934.371V629.766H941.427V622.597H964.16V629.766H971.294V652.783H964.16V659.872H941.427ZM942.996 650.955H962.596V631.52H942.996V650.955Z" fill="#5E0F00" fill-opacity="0.1"/>
<path d="M963.66 623.097V630.266H970.794V652.283H963.66V659.372H941.927V652.283H934.871V630.266H941.927V623.097H963.66ZM942.496 651.454H963.096V631.02H942.496V651.454Z" stroke="#5E0F00" stroke-opacity="0.1"/>
<path d="M1349.85 605.5V614.314H1414.15V605.5H1429.38V668.814H1413.15V672.5H1350.85V668.814H1334.62V605.5H1349.85ZM1436.5 649.705V659.581H1430.38V649.705H1436.5ZM1333.62 649.705V659.581H1327.5V649.705H1333.62ZM1436.5 634.754V644.63H1430.38V634.754H1436.5ZM1333.62 634.754V644.63H1327.5V634.754H1333.62Z" stroke="#5E0F00" stroke-opacity="0.1"/>
<path d="M1391.9 659.872V652.783H1384.84V629.766H1391.9V622.597H1414.63V629.766H1421.76V652.783H1414.63V659.872H1391.9ZM1393.47 650.955H1413.06V631.52H1393.47V650.955Z" fill="#5E0F00" fill-opacity="0.1"/>
<path d="M1414.13 623.097V630.266H1421.26V652.283H1414.13V659.372H1392.4V652.283H1385.34V630.266H1392.4V623.097H1414.13ZM1392.96 651.454H1413.56V631.02H1392.96V651.454Z" stroke="#5E0F00" stroke-opacity="0.1"/>
<path d="M1349.43 659.872V652.783H1342.37V629.766H1349.43V622.597H1372.16V629.766H1379.29V652.783H1372.16V659.872H1349.43ZM1351 650.955H1370.6V631.52H1351V650.955Z" fill="#5E0F00" fill-opacity="0.1"/>
<path d="M1371.66 623.097V630.266H1378.79V652.283H1371.66V659.372H1349.93V652.283H1342.87V630.266H1349.93V623.097H1371.66ZM1350.5 651.454H1371.1V631.02H1350.5V651.454Z" stroke="#5E0F00" stroke-opacity="0.1"/>
<path d="M1349.85 495.5V504.314H1414.15V495.5H1429.38V558.814H1413.15V562.5H1350.85V558.814H1334.62V495.5H1349.85ZM1436.5 539.705V549.581H1430.38V539.705H1436.5ZM1333.62 539.705V549.581H1327.5V539.705H1333.62ZM1436.5 524.754V534.63H1430.38V524.754H1436.5ZM1333.62 524.754V534.63H1327.5V524.754H1333.62Z" stroke="#5E0F00" stroke-opacity="0.1"/>
<path d="M1391.9 549.872V542.783H1384.84V519.766H1391.9V512.597H1414.63V519.766H1421.76V542.783H1414.63V549.872H1391.9ZM1393.47 540.955H1413.06V521.52H1393.47V540.955Z" fill="#5E0F00" fill-opacity="0.1"/>
<path d="M1414.13 513.097V520.266H1421.26V542.283H1414.13V549.372H1392.4V542.283H1385.34V520.266H1392.4V513.097H1414.13ZM1392.96 541.454H1413.56V521.02H1392.96V541.454Z" stroke="#5E0F00" stroke-opacity="0.1"/>
<path d="M1349.43 549.872V542.783H1342.37V519.766H1349.43V512.597H1372.16V519.766H1379.29V542.783H1372.16V549.872H1349.43ZM1351 540.955H1370.6V521.52H1351V540.955Z" fill="#5E0F00" fill-opacity="0.1"/>
<path d="M1371.66 513.097V520.266H1378.79V542.283H1371.66V549.372H1349.93V542.283H1342.87V520.266H1349.93V513.097H1371.66ZM1350.5 541.454H1371.1V521.02H1350.5V541.454Z" stroke="#5E0F00" stroke-opacity="0.1"/>
<path d="M1349.85 715.5V724.314H1414.15V715.5H1429.38V778.814H1413.15V782.5H1350.85V778.814H1334.62V715.5H1349.85ZM1436.5 759.705V769.581H1430.38V759.705H1436.5ZM1333.62 759.705V769.581H1327.5V759.705H1333.62ZM1436.5 744.754V754.63H1430.38V744.754H1436.5ZM1333.62 744.754V754.63H1327.5V744.754H1333.62Z" stroke="#5E0F00" stroke-opacity="0.1"/>
<path d="M1391.9 769.872V762.783H1384.84V739.766H1391.9V732.597H1414.63V739.766H1421.76V762.783H1414.63V769.872H1391.9ZM1393.47 760.955H1413.06V741.52H1393.47V760.955Z" fill="#5E0F00" fill-opacity="0.1"/>
<path d="M1414.13 733.097V740.266H1421.26V762.283H1414.13V769.372H1392.4V762.283H1385.34V740.266H1392.4V733.097H1414.13ZM1392.96 761.454H1413.56V741.02H1392.96V761.454Z" stroke="#5E0F00" stroke-opacity="0.1"/>
<path d="M1349.43 769.872V762.783H1342.37V739.766H1349.43V732.597H1372.16V739.766H1379.29V762.783H1372.16V769.872H1349.43ZM1351 760.955H1370.6V741.52H1351V760.955Z" fill="#5E0F00" fill-opacity="0.1"/>
<path d="M1371.66 733.097V740.266H1378.79V762.283H1371.66V769.372H1349.93V762.283H1342.87V740.266H1349.93V733.097H1371.66ZM1350.5 761.454H1371.1V741.02H1350.5V761.454Z" stroke="#5E0F00" stroke-opacity="0.1"/>
<path d="M1349.85 825.5V834.314H1414.15V825.5H1429.38V888.814H1413.15V892.5H1350.85V888.814H1334.62V825.5H1349.85ZM1436.5 869.705V879.581H1430.38V869.705H1436.5ZM1333.62 869.705V879.581H1327.5V869.705H1333.62ZM1436.5 854.754V864.63H1430.38V854.754H1436.5ZM1333.62 854.754V864.63H1327.5V854.754H1333.62Z" stroke="#5E0F00" stroke-opacity="0.1"/>
<path d="M1391.9 879.872V872.783H1384.84V849.766H1391.9V842.597H1414.63V849.766H1421.76V872.783H1414.63V879.872H1391.9ZM1393.47 870.955H1413.06V851.52H1393.47V870.955Z" fill="#5E0F00" fill-opacity="0.1"/>
<path d="M1414.13 843.097V850.266H1421.26V872.283H1414.13V879.372H1392.4V872.283H1385.34V850.266H1392.4V843.097H1414.13ZM1392.96 871.454H1413.56V851.02H1392.96V871.454Z" stroke="#5E0F00" stroke-opacity="0.1"/>
<path d="M1349.43 879.872V872.783H1342.37V849.766H1349.43V842.597H1372.16V849.766H1379.29V872.783H1372.16V879.872H1349.43ZM1351 870.955H1370.6V851.52H1351V870.955Z" fill="#5E0F00" fill-opacity="0.1"/>
<path d="M1371.66 843.097V850.266H1378.79V872.283H1371.66V879.372H1349.93V872.283H1342.87V850.266H1349.93V843.097H1371.66ZM1350.5 871.454H1371.1V851.02H1350.5V871.454Z" stroke="#5E0F00" stroke-opacity="0.1"/>
<path d="M1247.85 550.5V559.314H1312.15V550.5H1327.38V613.814H1311.15V617.5H1248.85V613.814H1232.62V550.5H1247.85ZM1334.5 594.705V604.581H1328.38V594.705H1334.5ZM1231.62 594.705V604.581H1225.5V594.705H1231.62ZM1334.5 579.754V589.63H1328.38V579.754H1334.5ZM1231.62 579.754V589.63H1225.5V579.754H1231.62Z" stroke="#5E0F00" stroke-opacity="0.1"/>
<path d="M1289.9 604.872V597.783H1282.84V574.766H1289.9V567.597H1312.63V574.766H1319.76V597.783H1312.63V604.872H1289.9ZM1291.47 595.955H1311.06V576.52H1291.47V595.955Z" fill="#5E0F00" fill-opacity="0.1"/>
<path d="M1312.13 568.097V575.266H1319.26V597.283H1312.13V604.372H1290.4V597.283H1283.34V575.266H1290.4V568.097H1312.13ZM1290.96 596.454H1311.56V576.02H1290.96V596.454Z" stroke="#5E0F00" stroke-opacity="0.1"/>
<path d="M1247.43 604.872V597.783H1240.37V574.766H1247.43V567.597H1270.16V574.766H1277.29V597.783H1270.16V604.872H1247.43ZM1249 595.955H1268.6V576.52H1249V595.955Z" fill="#5E0F00" fill-opacity="0.1"/>
<path d="M1269.66 568.097V575.266H1276.79V597.283H1269.66V604.372H1247.93V597.283H1240.87V575.266H1247.93V568.097H1269.66ZM1248.5 596.454H1269.1V576.02H1248.5V596.454Z" stroke="#5E0F00" stroke-opacity="0.1"/>
<path d="M1247.85 440.5V449.314H1312.15V440.5H1327.38V503.814H1311.15V507.5H1248.85V503.814H1232.62V440.5H1247.85ZM1334.5 484.705V494.581H1328.38V484.705H1334.5ZM1231.62 484.705V494.581H1225.5V484.705H1231.62ZM1334.5 469.754V479.63H1328.38V469.754H1334.5ZM1231.62 469.754V479.63H1225.5V469.754H1231.62Z" stroke="#5E0F00" stroke-opacity="0.1"/>
<path d="M1289.9 494.872V487.783H1282.84V464.766H1289.9V457.597H1312.63V464.766H1319.76V487.783H1312.63V494.872H1289.9ZM1291.47 485.955H1311.06V466.52H1291.47V485.955Z" fill="#5E0F00" fill-opacity="0.1"/>
<path d="M1312.13 458.097V465.266H1319.26V487.283H1312.13V494.372H1290.4V487.283H1283.34V465.266H1290.4V458.097H1312.13ZM1290.96 486.454H1311.56V466.02H1290.96V486.454Z" stroke="#5E0F00" stroke-opacity="0.1"/>
<path d="M1247.43 494.872V487.783H1240.37V464.766H1247.43V457.597H1270.16V464.766H1277.29V487.783H1270.16V494.872H1247.43ZM1249 485.955H1268.6V466.52H1249V485.955Z" fill="#5E0F00" fill-opacity="0.1"/>
<path d="M1269.66 458.097V465.266H1276.79V487.283H1269.66V494.372H1247.93V487.283H1240.87V465.266H1247.93V458.097H1269.66ZM1248.5 486.454H1269.1V466.02H1248.5V486.454Z" stroke="#5E0F00" stroke-opacity="0.1"/>
<path d="M1247.85 660.5V669.314H1312.15V660.5H1327.38V723.814H1311.15V727.5H1248.85V723.814H1232.62V660.5H1247.85ZM1334.5 704.705V714.581H1328.38V704.705H1334.5ZM1231.62 704.705V714.581H1225.5V704.705H1231.62ZM1334.5 689.754V699.63H1328.38V689.754H1334.5ZM1231.62 689.754V699.63H1225.5V689.754H1231.62Z" stroke="#5E0F00" stroke-opacity="0.1"/>
<path d="M1289.9 714.872V707.783H1282.84V684.766H1289.9V677.597H1312.63V684.766H1319.76V707.783H1312.63V714.872H1289.9ZM1291.47 705.955H1311.06V686.52H1291.47V705.955Z" fill="#5E0F00" fill-opacity="0.1"/>
<path d="M1312.13 678.097V685.266H1319.26V707.283H1312.13V714.372H1290.4V707.283H1283.34V685.266H1290.4V678.097H1312.13ZM1290.96 706.454H1311.56V686.02H1290.96V706.454Z" stroke="#5E0F00" stroke-opacity="0.1"/>
<path d="M1247.43 714.872V707.783H1240.37V684.766H1247.43V677.597H1270.16V684.766H1277.29V707.783H1270.16V714.872H1247.43ZM1249 705.955H1268.6V686.52H1249V705.955Z" fill="#5E0F00" fill-opacity="0.1"/>
<path d="M1269.66 678.097V685.266H1276.79V707.283H1269.66V714.372H1247.93V707.283H1240.87V685.266H1247.93V678.097H1269.66ZM1248.5 706.454H1269.1V686.02H1248.5V706.454Z" stroke="#5E0F00" stroke-opacity="0.1"/>
<path d="M1247.85 770.5V779.314H1312.15V770.5H1327.38V833.814H1311.15V837.5H1248.85V833.814H1232.62V770.5H1247.85ZM1334.5 814.705V824.581H1328.38V814.705H1334.5ZM1231.62 814.705V824.581H1225.5V814.705H1231.62ZM1334.5 799.754V809.63H1328.38V799.754H1334.5ZM1231.62 799.754V809.63H1225.5V799.754H1231.62Z" stroke="#5E0F00" stroke-opacity="0.1"/>
<path d="M1289.9 824.872V817.783H1282.84V794.766H1289.9V787.597H1312.63V794.766H1319.76V817.783H1312.63V824.872H1289.9ZM1291.47 815.955H1311.06V796.52H1291.47V815.955Z" fill="#5E0F00" fill-opacity="0.1"/>
<path d="M1312.13 788.097V795.266H1319.26V817.283H1312.13V824.372H1290.4V817.283H1283.34V795.266H1290.4V788.097H1312.13ZM1290.96 816.454H1311.56V796.02H1290.96V816.454Z" stroke="#5E0F00" stroke-opacity="0.1"/>
<path d="M1247.43 824.872V817.783H1240.37V794.766H1247.43V787.597H1270.16V794.766H1277.29V817.783H1270.16V824.872H1247.43ZM1249 815.955H1268.6V796.52H1249V815.955Z" fill="#5E0F00" fill-opacity="0.1"/>
<path d="M1269.66 788.097V795.266H1276.79V817.283H1269.66V824.372H1247.93V817.283H1240.87V795.266H1247.93V788.097H1269.66ZM1248.5 816.454H1269.1V796.02H1248.5V816.454Z" stroke="#5E0F00" stroke-opacity="0.1"/>
<path d="M635.851 110.5V119.313H700.149V110.5H715.385V173.813H699.149V177.5H636.851V173.813H620.615V110.5H635.851ZM722.5 154.705V164.581H716.385V154.705H722.5ZM619.615 154.705V164.581H613.5V154.705H619.615ZM722.5 139.754V149.63H716.385V139.754H722.5ZM619.615 139.754V149.63H613.5V139.754H619.615Z" stroke="#5E0F00" stroke-opacity="0.1"/>
<path d="M677.896 164.872V157.783H670.84V134.766H677.896V127.597H700.629V134.766H707.763V157.783H700.629V164.872H677.896ZM679.465 155.955H699.059V136.52H679.465V155.955Z" fill="#5E0F00" fill-opacity="0.1"/>
<path d="M700.129 128.097V135.266H707.263V157.283H700.129V164.372H678.396V157.283H671.34V135.266H678.396V128.097H700.129ZM678.965 156.454H699.56V136.02H678.965V156.454Z" stroke="#5E0F00" stroke-opacity="0.1"/>
<path d="M635.427 164.872V157.783H628.371V134.766H635.427V127.597H658.16V134.766H665.294V157.783H658.16V164.872H635.427ZM636.996 155.955H656.596V136.52H636.996V155.955Z" fill="#5E0F00" fill-opacity="0.1"/>
<path d="M657.66 128.097V135.266H664.794V157.283H657.66V164.372H635.927V157.283H628.871V135.266H635.927V128.097H657.66ZM636.496 156.454H657.096V136.02H636.496V156.454Z" stroke="#5E0F00" stroke-opacity="0.1"/>
<path d="M737.851 165.5V174.313H802.149V165.5H817.385V228.813H801.149V232.5H738.851V228.813H722.615V165.5H737.851ZM824.5 209.705V219.581H818.385V209.705H824.5ZM721.615 209.705V219.581H715.5V209.705H721.615ZM824.5 194.754V204.63H818.385V194.754H824.5ZM721.615 194.754V204.63H715.5V194.754H721.615Z" stroke="#5E0F00" stroke-opacity="0.2"/>
<path d="M779.896 219.872V212.783H772.84V189.766H779.896V182.597H802.629V189.766H809.763V212.783H802.629V219.872H779.896ZM781.465 210.955H801.059V191.52H781.465V210.955Z" fill="#5E0F00" fill-opacity="0.2"/>
<path d="M802.129 183.097V190.266H809.263V212.283H802.129V219.372H780.396V212.283H773.34V190.266H780.396V183.097H802.129ZM780.965 211.454H801.56V191.02H780.965V211.454Z" stroke="#5E0F00" stroke-opacity="0.2"/>
<path d="M737.427 219.872V212.783H730.371V189.766H737.427V182.597H760.16V189.766H767.294V212.783H760.16V219.872H737.427ZM738.996 210.955H758.596V191.52H738.996V210.955Z" fill="#5E0F00" fill-opacity="0.2"/>
<path d="M759.66 183.097V190.266H766.794V212.283H759.66V219.372H737.927V212.283H730.871V190.266H737.927V183.097H759.66ZM738.496 211.454H759.096V191.02H738.496V211.454Z" stroke="#5E0F00" stroke-opacity="0.2"/>
<path d="M941.851 165.5V174.313H1006.15V165.5H1021.38V228.813H1005.15V232.5H942.851V228.813H926.615V165.5H941.851ZM1028.5 209.705V219.581H1022.38V209.705H1028.5ZM925.615 209.705V219.581H919.5V209.705H925.615ZM1028.5 194.754V204.63H1022.38V194.754H1028.5ZM925.615 194.754V204.63H919.5V194.754H925.615Z" fill="#5E0F00" stroke="#5E0F00"/>
<path d="M983.896 219.872V212.783H976.84V189.766H983.896V182.597H1006.63V189.766H1013.76V212.783H1006.63V219.872H983.896ZM985.465 210.955H1005.06V191.52H985.465V210.955Z" fill="white"/>
<path d="M941.427 219.872V212.783H934.371V189.766H941.427V182.597H964.16V189.766H971.294V212.783H964.16V219.872H941.427ZM942.996 210.955H962.596V191.52H942.996V210.955Z" fill="white"/>
<path d="M839.851 110.5V119.313H904.149V110.5H919.385V173.813H903.149V177.5H840.851V173.813H824.615V110.5H839.851ZM926.5 154.705V164.581H920.385V154.705H926.5ZM823.615 154.705V164.581H817.5V154.705H823.615ZM926.5 139.754V149.63H920.385V139.754H926.5ZM823.615 139.754V149.63H817.5V139.754H823.615Z" stroke="#5E0F00" stroke-opacity="0.4"/>
<path d="M881.896 164.872V157.783H874.84V134.766H881.896V127.597H904.629V134.766H911.763V157.783H904.629V164.872H881.896ZM883.465 155.955H903.059V136.52H883.465V155.955Z" fill="#5E0F00" fill-opacity="0.4"/>
<path d="M904.129 128.097V135.266H911.263V157.283H904.129V164.372H882.396V157.283H875.34V135.266H882.396V128.097H904.129ZM882.965 156.454H903.56V136.02H882.965V156.454Z" stroke="#5E0F00" stroke-opacity="0.4"/>
<path d="M839.427 164.872V157.783H832.371V134.766H839.427V127.597H862.16V134.766H869.294V157.783H862.16V164.872H839.427ZM840.996 155.955H860.596V136.52H840.996V155.955Z" fill="#5E0F00" fill-opacity="0.4"/>
<path d="M861.66 128.097V135.266H868.794V157.283H861.66V164.372H839.927V157.283H832.871V135.266H839.927V128.097H861.66ZM840.496 156.454H861.096V136.02H840.496V156.454Z" stroke="#5E0F00" stroke-opacity="0.4"/>
<path d="M1043.85 110.5V119.313H1108.15V110.5H1123.38V173.813H1107.15V177.5H1044.85V173.813H1028.62V110.5H1043.85ZM1130.5 154.705V164.581H1124.38V154.705H1130.5ZM1027.62 154.705V164.581H1021.5V154.705H1027.62ZM1130.5 139.754V149.63H1124.38V139.754H1130.5ZM1027.62 139.754V149.63H1021.5V139.754H1027.62Z" stroke="#5E0F00" stroke-opacity="0.4"/>
<path d="M1085.9 164.872V157.783H1078.84V134.766H1085.9V127.597H1108.63V134.766H1115.76V157.783H1108.63V164.872H1085.9ZM1087.47 155.955H1107.06V136.52H1087.47V155.955Z" fill="#5E0F00" fill-opacity="0.4"/>
<path d="M1108.13 128.097V135.266H1115.26V157.283H1108.13V164.372H1086.4V157.283H1079.34V135.266H1086.4V128.097H1108.13ZM1086.96 156.454H1107.56V136.02H1086.96V156.454Z" stroke="#5E0F00" stroke-opacity="0.4"/>
<path d="M1043.43 164.872V157.783H1036.37V134.766H1043.43V127.597H1066.16V134.766H1073.29V157.783H1066.16V164.872H1043.43ZM1045 155.955H1064.6V136.52H1045V155.955Z" fill="#5E0F00" fill-opacity="0.4"/>
<path d="M1065.66 128.097V135.266H1072.79V157.283H1065.66V164.372H1043.93V157.283H1036.87V135.266H1043.93V128.097H1065.66ZM1044.5 156.454H1065.1V136.02H1044.5V156.454Z" stroke="#5E0F00" stroke-opacity="0.4"/>
<path d="M1145.85 165.5V174.313H1210.15V165.5H1225.38V228.813H1209.15V232.5H1146.85V228.813H1130.62V165.5H1145.85ZM1232.5 209.705V219.581H1226.38V209.705H1232.5ZM1129.62 209.705V219.581H1123.5V209.705H1129.62ZM1232.5 194.754V204.63H1226.38V194.754H1232.5ZM1129.62 194.754V204.63H1123.5V194.754H1129.62Z" stroke="#5E0F00" stroke-opacity="0.2"/>
<path d="M1187.9 219.872V212.783H1180.84V189.766H1187.9V182.597H1210.63V189.766H1217.76V212.783H1210.63V219.872H1187.9ZM1189.47 210.955H1209.06V191.52H1189.47V210.955Z" fill="#5E0F00" fill-opacity="0.2"/>
<path d="M1210.13 183.097V190.266H1217.26V212.283H1210.13V219.372H1188.4V212.283H1181.34V190.266H1188.4V183.097H1210.13ZM1188.96 211.454H1209.56V191.02H1188.96V211.454Z" stroke="#5E0F00" stroke-opacity="0.2"/>
<path d="M1145.43 219.872V212.783H1138.37V189.766H1145.43V182.597H1168.16V189.766H1175.29V212.783H1168.16V219.872H1145.43ZM1147 210.955H1166.6V191.52H1147V210.955Z" fill="#5E0F00" fill-opacity="0.2"/>
<path d="M1167.66 183.097V190.266H1174.79V212.283H1167.66V219.372H1145.93V212.283H1138.87V190.266H1145.93V183.097H1167.66ZM1146.5 211.454H1167.1V191.02H1146.5V211.454Z" stroke="#5E0F00" stroke-opacity="0.2"/>
<path d="M1349.85 165.5V174.313H1414.15V165.5H1429.38V228.813H1413.15V232.5H1350.85V228.813H1334.62V165.5H1349.85ZM1436.5 209.705V219.581H1430.38V209.705H1436.5ZM1333.62 209.705V219.581H1327.5V209.705H1333.62ZM1436.5 194.754V204.63H1430.38V194.754H1436.5ZM1333.62 194.754V204.63H1327.5V194.754H1333.62Z" stroke="#5E0F00" stroke-opacity="0.1"/>
<path d="M1391.9 219.872V212.783H1384.84V189.766H1391.9V182.597H1414.63V189.766H1421.76V212.783H1414.63V219.872H1391.9ZM1393.47 210.955H1413.06V191.52H1393.47V210.955Z" fill="#5E0F00" fill-opacity="0.1"/>
<path d="M1414.13 183.097V190.266H1421.26V212.283H1414.13V219.372H1392.4V212.283H1385.34V190.266H1392.4V183.097H1414.13ZM1392.96 211.454H1413.56V191.02H1392.96V211.454Z" stroke="#5E0F00" stroke-opacity="0.1"/>
<path d="M1349.43 219.872V212.783H1342.37V189.766H1349.43V182.597H1372.16V189.766H1379.29V212.783H1372.16V219.872H1349.43ZM1351 210.955H1370.6V191.52H1351V210.955Z" fill="#5E0F00" fill-opacity="0.1"/>
<path d="M1371.66 183.097V190.266H1378.79V212.283H1371.66V219.372H1349.93V212.283H1342.87V190.266H1349.93V183.097H1371.66ZM1350.5 211.454H1371.1V191.02H1350.5V211.454Z" stroke="#5E0F00" stroke-opacity="0.1"/>
<path d="M1247.85 110.5V119.313H1312.15V110.5H1327.38V173.813H1311.15V177.5H1248.85V173.813H1232.62V110.5H1247.85ZM1334.5 154.705V164.581H1328.38V154.705H1334.5ZM1231.62 154.705V164.581H1225.5V154.705H1231.62ZM1334.5 139.754V149.63H1328.38V139.754H1334.5ZM1231.62 139.754V149.63H1225.5V139.754H1231.62Z" stroke="#5E0F00" stroke-opacity="0.1"/>
<path d="M1289.9 164.872V157.783H1282.84V134.766H1289.9V127.597H1312.63V134.766H1319.76V157.783H1312.63V164.872H1289.9ZM1291.47 155.955H1311.06V136.52H1291.47V155.955Z" fill="#5E0F00" fill-opacity="0.1"/>
<path d="M1312.13 128.097V135.266H1319.26V157.283H1312.13V164.372H1290.4V157.283H1283.34V135.266H1290.4V128.097H1312.13ZM1290.96 156.454H1311.56V136.02H1290.96V156.454Z" stroke="#5E0F00" stroke-opacity="0.1"/>
<path d="M1247.43 164.872V157.783H1240.37V134.766H1247.43V127.597H1270.16V134.766H1277.29V157.783H1270.16V164.872H1247.43ZM1249 155.955H1268.6V136.52H1249V155.955Z" fill="#5E0F00" fill-opacity="0.1"/>
<path d="M1269.66 128.097V135.266H1276.79V157.283H1269.66V164.372H1247.93V157.283H1240.87V135.266H1247.93V128.097H1269.66ZM1248.5 156.454H1269.1V136.02H1248.5V156.454Z" stroke="#5E0F00" stroke-opacity="0.1"/>
<path d="M635.851 0.5V9.31348H700.149V0.5H715.385V63.8135H699.149V67.5H636.851V63.8135H620.615V0.5H635.851ZM722.5 44.7051V54.5811H716.385V44.7051H722.5ZM619.615 44.7051V54.5811H613.5V44.7051H619.615ZM722.5 29.7539V39.6299H716.385V29.7539H722.5ZM619.615 29.7539V39.6299H613.5V29.7539H619.615Z" stroke="#5E0F00" stroke-opacity="0.1"/>
<path d="M677.896 54.8724V47.783H670.84V24.7659H677.896V17.5967H700.629V24.7659H707.763V47.783H700.629V54.8724H677.896ZM679.465 45.9546H699.059V26.5196H679.465V45.9546Z" fill="#5E0F00" fill-opacity="0.1"/>
<path d="M700.129 18.0967V25.2657H707.263V47.2833H700.129V54.3721H678.396V47.2833H671.34V25.2657H678.396V18.0967H700.129ZM678.965 46.4542H699.56V26.0196H678.965V46.4542Z" stroke="#5E0F00" stroke-opacity="0.1"/>
<path d="M635.427 54.8724V47.783H628.371V24.7659H635.427V17.5967H658.16V24.7659H665.294V47.783H658.16V54.8724H635.427ZM636.996 45.9546H656.596V26.5196H636.996V45.9546Z" fill="#5E0F00" fill-opacity="0.1"/>
<path d="M657.66 18.0967V25.2657H664.794V47.2833H657.66V54.3721H635.927V47.2833H628.871V25.2657H635.927V18.0967H657.66ZM636.496 46.4542H657.096V26.0196H636.496V46.4542Z" stroke="#5E0F00" stroke-opacity="0.1"/>
<path d="M737.851 55.5V64.3135H802.149V55.5H817.385V118.813H801.149V122.5H738.851V118.813H722.615V55.5H737.851ZM824.5 99.7051V109.581H818.385V99.7051H824.5ZM721.615 99.7051V109.581H715.5V99.7051H721.615ZM824.5 84.7539V94.6299H818.385V84.7539H824.5ZM721.615 84.7539V94.6299H715.5V84.7539H721.615Z" stroke="#5E0F00" stroke-opacity="0.2"/>
<path d="M779.896 109.872V102.783H772.84V79.7659H779.896V72.5967H802.629V79.7659H809.763V102.783H802.629V109.872H779.896ZM781.465 100.955H801.059V81.5196H781.465V100.955Z" fill="#5E0F00" fill-opacity="0.2"/>
<path d="M802.129 73.0967V80.2657H809.263V102.283H802.129V109.372H780.396V102.283H773.34V80.2657H780.396V73.0967H802.129ZM780.965 101.454H801.56V81.0196H780.965V101.454Z" stroke="#5E0F00" stroke-opacity="0.2"/>
<path d="M737.427 109.872V102.783H730.371V79.7659H737.427V72.5967H760.16V79.7659H767.294V102.783H760.16V109.872H737.427ZM738.996 100.955H758.596V81.5196H738.996V100.955Z" fill="#5E0F00" fill-opacity="0.2"/>
<path d="M759.66 73.0967V80.2657H766.794V102.283H759.66V109.372H737.927V102.283H730.871V80.2657H737.927V73.0967H759.66ZM738.496 101.454H759.096V81.0196H738.496V101.454Z" stroke="#5E0F00" stroke-opacity="0.2"/>
<path d="M941.851 55.5V64.3135H1006.15V55.5H1021.38V118.813H1005.15V122.5H942.851V118.813H926.615V55.5H941.851ZM1028.5 99.7051V109.581H1022.38V99.7051H1028.5ZM925.615 99.7051V109.581H919.5V99.7051H925.615ZM1028.5 84.7539V94.6299H1022.38V84.7539H1028.5ZM925.615 84.7539V94.6299H919.5V84.7539H925.615Z" stroke="#5E0F00" stroke-opacity="0.4"/>
<path d="M983.896 109.872V102.783H976.84V79.7659H983.896V72.5967H1006.63V79.7659H1013.76V102.783H1006.63V109.872H983.896ZM985.465 100.955H1005.06V81.5196H985.465V100.955Z" fill="#5E0F00" fill-opacity="0.4"/>
<path d="M1006.13 73.0967V80.2657H1013.26V102.283H1006.13V109.372H984.396V102.283H977.34V80.2657H984.396V73.0967H1006.13ZM984.965 101.454H1005.56V81.0196H984.965V101.454Z" stroke="#5E0F00" stroke-opacity="0.4"/>
<path d="M941.427 109.872V102.783H934.371V79.7659H941.427V72.5967H964.16V79.7659H971.294V102.783H964.16V109.872H941.427ZM942.996 100.955H962.596V81.5196H942.996V100.955Z" fill="#5E0F00" fill-opacity="0.4"/>
<path d="M963.66 73.0967V80.2657H970.794V102.283H963.66V109.372H941.927V102.283H934.871V80.2657H941.927V73.0967H963.66ZM942.496 101.454H963.096V81.0196H942.496V101.454Z" stroke="#5E0F00" stroke-opacity="0.4"/>
<path d="M839.851 0.5V9.31348H904.149V0.5H919.385V63.8135H903.149V67.5H840.851V63.8135H824.615V0.5H839.851ZM926.5 44.7051V54.5811H920.385V44.7051H926.5ZM823.615 44.7051V54.5811H817.5V44.7051H823.615ZM926.5 29.7539V39.6299H920.385V29.7539H926.5ZM823.615 29.7539V39.6299H817.5V29.7539H823.615Z" stroke="#5E0F00" stroke-opacity="0.4"/>
<path d="M881.896 54.8724V47.783H874.84V24.7659H881.896V17.5967H904.629V24.7659H911.763V47.783H904.629V54.8724H881.896ZM883.465 45.9546H903.059V26.5196H883.465V45.9546Z" fill="#5E0F00" fill-opacity="0.4"/>
<path d="M904.129 18.0967V25.2657H911.263V47.2833H904.129V54.3721H882.396V47.2833H875.34V25.2657H882.396V18.0967H904.129ZM882.965 46.4542H903.56V26.0196H882.965V46.4542Z" stroke="#5E0F00" stroke-opacity="0.4"/>
<path d="M839.427 54.8724V47.783H832.371V24.7659H839.427V17.5967H862.16V24.7659H869.294V47.783H862.16V54.8724H839.427ZM840.996 45.9546H860.596V26.5196H840.996V45.9546Z" fill="#5E0F00" fill-opacity="0.4"/>
<path d="M861.66 18.0967V25.2657H868.794V47.2833H861.66V54.3721H839.927V47.2833H832.871V25.2657H839.927V18.0967H861.66ZM840.496 46.4542H861.096V26.0196H840.496V46.4542Z" stroke="#5E0F00" stroke-opacity="0.4"/>
<path d="M1043.85 0.5V9.31348H1108.15V0.5H1123.38V63.8135H1107.15V67.5H1044.85V63.8135H1028.62V0.5H1043.85ZM1130.5 44.7051V54.5811H1124.38V44.7051H1130.5ZM1027.62 44.7051V54.5811H1021.5V44.7051H1027.62ZM1130.5 29.7539V39.6299H1124.38V29.7539H1130.5ZM1027.62 29.7539V39.6299H1021.5V29.7539H1027.62Z" stroke="#5E0F00" stroke-opacity="0.4"/>
<path d="M1085.9 54.8724V47.783H1078.84V24.7659H1085.9V17.5967H1108.63V24.7659H1115.76V47.783H1108.63V54.8724H1085.9ZM1087.47 45.9546H1107.06V26.5196H1087.47V45.9546Z" fill="#5E0F00" fill-opacity="0.4"/>
<path d="M1108.13 18.0967V25.2657H1115.26V47.2833H1108.13V54.3721H1086.4V47.2833H1079.34V25.2657H1086.4V18.0967H1108.13ZM1086.96 46.4542H1107.56V26.0196H1086.96V46.4542Z" stroke="#5E0F00" stroke-opacity="0.4"/>
<path d="M1043.43 54.8724V47.783H1036.37V24.7659H1043.43V17.5967H1066.16V24.7659H1073.29V47.783H1066.16V54.8724H1043.43ZM1045 45.9546H1064.6V26.5196H1045V45.9546Z" fill="#5E0F00" fill-opacity="0.4"/>
<path d="M1065.66 18.0967V25.2657H1072.79V47.2833H1065.66V54.3721H1043.93V47.2833H1036.87V25.2657H1043.93V18.0967H1065.66ZM1044.5 46.4542H1065.1V26.0196H1044.5V46.4542Z" stroke="#5E0F00" stroke-opacity="0.4"/>
<path d="M1145.85 55.5V64.3135H1210.15V55.5H1225.38V118.813H1209.15V122.5H1146.85V118.813H1130.62V55.5H1145.85ZM1232.5 99.7051V109.581H1226.38V99.7051H1232.5ZM1129.62 99.7051V109.581H1123.5V99.7051H1129.62ZM1232.5 84.7539V94.6299H1226.38V84.7539H1232.5ZM1129.62 84.7539V94.6299H1123.5V84.7539H1129.62Z" stroke="#5E0F00" stroke-opacity="0.2"/>
<path d="M1187.9 109.872V102.783H1180.84V79.7659H1187.9V72.5967H1210.63V79.7659H1217.76V102.783H1210.63V109.872H1187.9ZM1189.47 100.955H1209.06V81.5196H1189.47V100.955Z" fill="#5E0F00" fill-opacity="0.2"/>
<path d="M1210.13 73.0967V80.2657H1217.26V102.283H1210.13V109.372H1188.4V102.283H1181.34V80.2657H1188.4V73.0967H1210.13ZM1188.96 101.454H1209.56V81.0196H1188.96V101.454Z" stroke="#5E0F00" stroke-opacity="0.2"/>
<path d="M1145.43 109.872V102.783H1138.37V79.7659H1145.43V72.5967H1168.16V79.7659H1175.29V102.783H1168.16V109.872H1145.43ZM1147 100.955H1166.6V81.5196H1147V100.955Z" fill="#5E0F00" fill-opacity="0.2"/>
<path d="M1167.66 73.0967V80.2657H1174.79V102.283H1167.66V109.372H1145.93V102.283H1138.87V80.2657H1145.93V73.0967H1167.66ZM1146.5 101.454H1167.1V81.0196H1146.5V101.454Z" stroke="#5E0F00" stroke-opacity="0.2"/>
<path d="M1349.85 55.5V64.3135H1414.15V55.5H1429.38V118.813H1413.15V122.5H1350.85V118.813H1334.62V55.5H1349.85ZM1436.5 99.7051V109.581H1430.38V99.7051H1436.5ZM1333.62 99.7051V109.581H1327.5V99.7051H1333.62ZM1436.5 84.7539V94.6299H1430.38V84.7539H1436.5ZM1333.62 84.7539V94.6299H1327.5V84.7539H1333.62Z" stroke="#5E0F00" stroke-opacity="0.1"/>
<path d="M1391.9 109.872V102.783H1384.84V79.7659H1391.9V72.5967H1414.63V79.7659H1421.76V102.783H1414.63V109.872H1391.9ZM1393.47 100.955H1413.06V81.5196H1393.47V100.955Z" fill="#5E0F00" fill-opacity="0.1"/>
<path d="M1414.13 73.0967V80.2657H1421.26V102.283H1414.13V109.372H1392.4V102.283H1385.34V80.2657H1392.4V73.0967H1414.13ZM1392.96 101.454H1413.56V81.0196H1392.96V101.454Z" stroke="#5E0F00" stroke-opacity="0.1"/>
<path d="M1349.43 109.872V102.783H1342.37V79.7659H1349.43V72.5967H1372.16V79.7659H1379.29V102.783H1372.16V109.872H1349.43ZM1351 100.955H1370.6V81.5196H1351V100.955Z" fill="#5E0F00" fill-opacity="0.1"/>
<path d="M1371.66 73.0967V80.2657H1378.79V102.283H1371.66V109.372H1349.93V102.283H1342.87V80.2657H1349.93V73.0967H1371.66ZM1350.5 101.454H1371.1V81.0196H1350.5V101.454Z" stroke="#5E0F00" stroke-opacity="0.1"/>
<path d="M1247.85 0.5V9.31348H1312.15V0.5H1327.38V63.8135H1311.15V67.5H1248.85V63.8135H1232.62V0.5H1247.85ZM1334.5 44.7051V54.5811H1328.38V44.7051H1334.5ZM1231.62 44.7051V54.5811H1225.5V44.7051H1231.62ZM1334.5 29.7539V39.6299H1328.38V29.7539H1334.5ZM1231.62 29.7539V39.6299H1225.5V29.7539H1231.62Z" stroke="#5E0F00" stroke-opacity="0.1"/>
<path d="M1289.9 54.8724V47.783H1282.84V24.7659H1289.9V17.5967H1312.63V24.7659H1319.76V47.783H1312.63V54.8724H1289.9ZM1291.47 45.9546H1311.06V26.5196H1291.47V45.9546Z" fill="#5E0F00" fill-opacity="0.1"/>
<path d="M1312.13 18.0967V25.2657H1319.26V47.2833H1312.13V54.3721H1290.4V47.2833H1283.34V25.2657H1290.4V18.0967H1312.13ZM1290.96 46.4542H1311.56V26.0196H1290.96V46.4542Z" stroke="#5E0F00" stroke-opacity="0.1"/>
<path d="M1247.43 54.8724V47.783H1240.37V24.7659H1247.43V17.5967H1270.16V24.7659H1277.29V47.783H1270.16V54.8724H1247.43ZM1249 45.9546H1268.6V26.5196H1249V45.9546Z" fill="#5E0F00" fill-opacity="0.1"/>
<path d="M1269.66 18.0967V25.2657H1276.79V47.2833H1269.66V54.3721H1247.93V47.2833H1240.87V25.2657H1247.93V18.0967H1269.66ZM1248.5 46.4542H1269.1V26.0196H1248.5V46.4542Z" stroke="#5E0F00" stroke-opacity="0.1"/>
<path d="M635.851 220.5V229.313H700.149V220.5H715.385V283.813H699.149V287.5H636.851V283.813H620.615V220.5H635.851ZM722.5 264.705V274.581H716.385V264.705H722.5ZM619.615 264.705V274.581H613.5V264.705H619.615ZM722.5 249.754V259.63H716.385V249.754H722.5ZM619.615 249.754V259.63H613.5V249.754H619.615Z" stroke="#5E0F00" stroke-opacity="0.1"/>
<path d="M677.896 274.872V267.783H670.84V244.766H677.896V237.597H700.629V244.766H707.763V267.783H700.629V274.872H677.896ZM679.465 265.955H699.059V246.52H679.465V265.955Z" fill="#5E0F00" fill-opacity="0.1"/>
<path d="M700.129 238.097V245.266H707.263V267.283H700.129V274.372H678.396V267.283H671.34V245.266H678.396V238.097H700.129ZM678.965 266.454H699.56V246.02H678.965V266.454Z" stroke="#5E0F00" stroke-opacity="0.1"/>
<path d="M635.427 274.872V267.783H628.371V244.766H635.427V237.597H658.16V244.766H665.294V267.783H658.16V274.872H635.427ZM636.996 265.955H656.596V246.52H636.996V265.955Z" fill="#5E0F00" fill-opacity="0.1"/>
<path d="M657.66 238.097V245.266H664.794V267.283H657.66V274.372H635.927V267.283H628.871V245.266H635.927V238.097H657.66ZM636.496 266.454H657.096V246.02H636.496V266.454Z" stroke="#5E0F00" stroke-opacity="0.1"/>
<path d="M737.851 275.5V284.313H802.149V275.5H817.385V338.813H801.149V342.5H738.851V338.813H722.615V275.5H737.851ZM824.5 319.705V329.581H818.385V319.705H824.5ZM721.615 319.705V329.581H715.5V319.705H721.615ZM824.5 304.754V314.63H818.385V304.754H824.5ZM721.615 304.754V314.63H715.5V304.754H721.615Z" stroke="#5E0F00" stroke-opacity="0.2"/>
<path d="M779.896 329.872V322.783H772.84V299.766H779.896V292.597H802.629V299.766H809.763V322.783H802.629V329.872H779.896ZM781.465 320.955H801.059V301.52H781.465V320.955Z" fill="#5E0F00" fill-opacity="0.2"/>
<path d="M802.129 293.097V300.266H809.263V322.283H802.129V329.372H780.396V322.283H773.34V300.266H780.396V293.097H802.129ZM780.965 321.454H801.56V301.02H780.965V321.454Z" stroke="#5E0F00" stroke-opacity="0.2"/>
<path d="M737.427 329.872V322.783H730.371V299.766H737.427V292.597H760.16V299.766H767.294V322.783H760.16V329.872H737.427ZM738.996 320.955H758.596V301.52H738.996V320.955Z" fill="#5E0F00" fill-opacity="0.2"/>
<path d="M759.66 293.097V300.266H766.794V322.283H759.66V329.372H737.927V322.283H730.871V300.266H737.927V293.097H759.66ZM738.496 321.454H759.096V301.02H738.496V321.454Z" stroke="#5E0F00" stroke-opacity="0.2"/>
<path d="M941.851 275.5V284.313H1006.15V275.5H1021.38V338.813H1005.15V342.5H942.851V338.813H926.615V275.5H941.851ZM1028.5 319.705V329.581H1022.38V319.705H1028.5ZM925.615 319.705V329.581H919.5V319.705H925.615ZM1028.5 304.754V314.63H1022.38V304.754H1028.5ZM925.615 304.754V314.63H919.5V304.754H925.615Z" stroke="#5E0F00" stroke-opacity="0.4"/>
<path d="M983.896 329.872V322.783H976.84V299.766H983.896V292.597H1006.63V299.766H1013.76V322.783H1006.63V329.872H983.896ZM985.465 320.955H1005.06V301.52H985.465V320.955Z" fill="#5E0F00" fill-opacity="0.4"/>
<path d="M1006.13 293.097V300.266H1013.26V322.283H1006.13V329.372H984.396V322.283H977.34V300.266H984.396V293.097H1006.13ZM984.965 321.454H1005.56V301.02H984.965V321.454Z" stroke="#5E0F00" stroke-opacity="0.4"/>
<path d="M941.427 329.872V322.783H934.371V299.766H941.427V292.597H964.16V299.766H971.294V322.783H964.16V329.872H941.427ZM942.996 320.955H962.596V301.52H942.996V320.955Z" fill="#5E0F00" fill-opacity="0.4"/>
<path d="M963.66 293.097V300.266H970.794V322.283H963.66V329.372H941.927V322.283H934.871V300.266H941.927V293.097H963.66ZM942.496 321.454H963.096V301.02H942.496V321.454Z" stroke="#5E0F00" stroke-opacity="0.4"/>
<path d="M839.851 220.5V229.313H904.149V220.5H919.385V283.813H903.149V287.5H840.851V283.813H824.615V220.5H839.851ZM926.5 264.705V274.581H920.385V264.705H926.5ZM823.615 264.705V274.581H817.5V264.705H823.615ZM926.5 249.754V259.63H920.385V249.754H926.5ZM823.615 249.754V259.63H817.5V249.754H823.615Z" stroke="#5E0F00" stroke-opacity="0.4"/>
<path d="M881.896 274.872V267.783H874.84V244.766H881.896V237.597H904.629V244.766H911.763V267.783H904.629V274.872H881.896ZM883.465 265.955H903.059V246.52H883.465V265.955Z" fill="#5E0F00" fill-opacity="0.4"/>
<path d="M904.129 238.097V245.266H911.263V267.283H904.129V274.372H882.396V267.283H875.34V245.266H882.396V238.097H904.129ZM882.965 266.454H903.56V246.02H882.965V266.454Z" stroke="#5E0F00" stroke-opacity="0.4"/>
<path d="M839.427 274.872V267.783H832.371V244.766H839.427V237.597H862.16V244.766H869.294V267.783H862.16V274.872H839.427ZM840.996 265.955H860.596V246.52H840.996V265.955Z" fill="#5E0F00" fill-opacity="0.4"/>
<path d="M861.66 238.097V245.266H868.794V267.283H861.66V274.372H839.927V267.283H832.871V245.266H839.927V238.097H861.66ZM840.496 266.454H861.096V246.02H840.496V266.454Z" stroke="#5E0F00" stroke-opacity="0.4"/>
<path d="M1043.85 220.5V229.313H1108.15V220.5H1123.38V283.813H1107.15V287.5H1044.85V283.813H1028.62V220.5H1043.85ZM1130.5 264.705V274.581H1124.38V264.705H1130.5ZM1027.62 264.705V274.581H1021.5V264.705H1027.62ZM1130.5 249.754V259.63H1124.38V249.754H1130.5ZM1027.62 249.754V259.63H1021.5V249.754H1027.62Z" stroke="#5E0F00" stroke-opacity="0.4"/>
<path d="M1085.9 274.872V267.783H1078.84V244.766H1085.9V237.597H1108.63V244.766H1115.76V267.783H1108.63V274.872H1085.9ZM1087.47 265.955H1107.06V246.52H1087.47V265.955Z" fill="#5E0F00" fill-opacity="0.4"/>
<path d="M1108.13 238.097V245.266H1115.26V267.283H1108.13V274.372H1086.4V267.283H1079.34V245.266H1086.4V238.097H1108.13ZM1086.96 266.454H1107.56V246.02H1086.96V266.454Z" stroke="#5E0F00" stroke-opacity="0.4"/>
<path d="M1043.43 274.872V267.783H1036.37V244.766H1043.43V237.597H1066.16V244.766H1073.29V267.783H1066.16V274.872H1043.43ZM1045 265.955H1064.6V246.52H1045V265.955Z" fill="#5E0F00" fill-opacity="0.4"/>
<path d="M1065.66 238.097V245.266H1072.79V267.283H1065.66V274.372H1043.93V267.283H1036.87V245.266H1043.93V238.097H1065.66ZM1044.5 266.454H1065.1V246.02H1044.5V266.454Z" stroke="#5E0F00" stroke-opacity="0.4"/>
<path d="M1145.85 275.5V284.313H1210.15V275.5H1225.38V338.813H1209.15V342.5H1146.85V338.813H1130.62V275.5H1145.85ZM1232.5 319.705V329.581H1226.38V319.705H1232.5ZM1129.62 319.705V329.581H1123.5V319.705H1129.62ZM1232.5 304.754V314.63H1226.38V304.754H1232.5ZM1129.62 304.754V314.63H1123.5V304.754H1129.62Z" stroke="#5E0F00" stroke-opacity="0.2"/>
<path d="M1187.9 329.872V322.783H1180.84V299.766H1187.9V292.597H1210.63V299.766H1217.76V322.783H1210.63V329.872H1187.9ZM1189.47 320.955H1209.06V301.52H1189.47V320.955Z" fill="#5E0F00" fill-opacity="0.2"/>
<path d="M1210.13 293.097V300.266H1217.26V322.283H1210.13V329.372H1188.4V322.283H1181.34V300.266H1188.4V293.097H1210.13ZM1188.96 321.454H1209.56V301.02H1188.96V321.454Z" stroke="#5E0F00" stroke-opacity="0.2"/>
<path d="M1145.43 329.872V322.783H1138.37V299.766H1145.43V292.597H1168.16V299.766H1175.29V322.783H1168.16V329.872H1145.43ZM1147 320.955H1166.6V301.52H1147V320.955Z" fill="#5E0F00" fill-opacity="0.2"/>
<path d="M1167.66 293.097V300.266H1174.79V322.283H1167.66V329.372H1145.93V322.283H1138.87V300.266H1145.93V293.097H1167.66ZM1146.5 321.454H1167.1V301.02H1146.5V321.454Z" stroke="#5E0F00" stroke-opacity="0.2"/>
<path d="M1349.85 275.5V284.313H1414.15V275.5H1429.38V338.813H1413.15V342.5H1350.85V338.813H1334.62V275.5H1349.85ZM1436.5 319.705V329.581H1430.38V319.705H1436.5ZM1333.62 319.705V329.581H1327.5V319.705H1333.62ZM1436.5 304.754V314.63H1430.38V304.754H1436.5ZM1333.62 304.754V314.63H1327.5V304.754H1333.62Z" stroke="#5E0F00" stroke-opacity="0.1"/>
<path d="M1391.9 329.872V322.783H1384.84V299.766H1391.9V292.597H1414.63V299.766H1421.76V322.783H1414.63V329.872H1391.9ZM1393.47 320.955H1413.06V301.52H1393.47V320.955Z" fill="#5E0F00" fill-opacity="0.1"/>
<path d="M1414.13 293.097V300.266H1421.26V322.283H1414.13V329.372H1392.4V322.283H1385.34V300.266H1392.4V293.097H1414.13ZM1392.96 321.454H1413.56V301.02H1392.96V321.454Z" stroke="#5E0F00" stroke-opacity="0.1"/>
<path d="M1349.43 329.872V322.783H1342.37V299.766H1349.43V292.597H1372.16V299.766H1379.29V322.783H1372.16V329.872H1349.43ZM1351 320.955H1370.6V301.52H1351V320.955Z" fill="#5E0F00" fill-opacity="0.1"/>
<path d="M1371.66 293.097V300.266H1378.79V322.283H1371.66V329.372H1349.93V322.283H1342.87V300.266H1349.93V293.097H1371.66ZM1350.5 321.454H1371.1V301.02H1350.5V321.454Z" stroke="#5E0F00" stroke-opacity="0.1"/>
<path d="M1247.85 220.5V229.313H1312.15V220.5H1327.38V283.813H1311.15V287.5H1248.85V283.813H1232.62V220.5H1247.85ZM1334.5 264.705V274.581H1328.38V264.705H1334.5ZM1231.62 264.705V274.581H1225.5V264.705H1231.62ZM1334.5 249.754V259.63H1328.38V249.754H1334.5ZM1231.62 249.754V259.63H1225.5V249.754H1231.62Z" stroke="#5E0F00" stroke-opacity="0.1"/>
<path d="M1289.9 274.872V267.783H1282.84V244.766H1289.9V237.597H1312.63V244.766H1319.76V267.783H1312.63V274.872H1289.9ZM1291.47 265.955H1311.06V246.52H1291.47V265.955Z" fill="#5E0F00" fill-opacity="0.1"/>
<path d="M1312.13 238.097V245.266H1319.26V267.283H1312.13V274.372H1290.4V267.283H1283.34V245.266H1290.4V238.097H1312.13ZM1290.96 266.454H1311.56V246.02H1290.96V266.454Z" stroke="#5E0F00" stroke-opacity="0.1"/>
<path d="M1247.43 274.872V267.783H1240.37V244.766H1247.43V237.597H1270.16V244.766H1277.29V267.783H1270.16V274.872H1247.43ZM1249 265.955H1268.6V246.52H1249V265.955Z" fill="#5E0F00" fill-opacity="0.1"/>
<path d="M1269.66 238.097V245.266H1276.79V267.283H1269.66V274.372H1247.93V267.283H1240.87V245.266H1247.93V238.097H1269.66ZM1248.5 266.454H1269.1V246.02H1248.5V266.454Z" stroke="#5E0F00" stroke-opacity="0.1"/>
<path d="M635.851 330.5V339.314H700.149V330.5H715.385V393.814H699.149V397.5H636.851V393.814H620.615V330.5H635.851ZM722.5 374.705V384.581H716.385V374.705H722.5ZM619.615 374.705V384.581H613.5V374.705H619.615ZM722.5 359.754V369.63H716.385V359.754H722.5ZM619.615 359.754V369.63H613.5V359.754H619.615Z" stroke="#5E0F00" stroke-opacity="0.1"/>
<path d="M677.896 384.872V377.783H670.84V354.766H677.896V347.597H700.629V354.766H707.763V377.783H700.629V384.872H677.896ZM679.465 375.955H699.059V356.52H679.465V375.955Z" fill="#5E0F00" fill-opacity="0.1"/>
<path d="M700.129 348.097V355.266H707.263V377.283H700.129V384.372H678.396V377.283H671.34V355.266H678.396V348.097H700.129ZM678.965 376.454H699.56V356.02H678.965V376.454Z" stroke="#5E0F00" stroke-opacity="0.1"/>
<path d="M635.427 384.872V377.783H628.371V354.766H635.427V347.597H658.16V354.766H665.294V377.783H658.16V384.872H635.427ZM636.996 375.955H656.596V356.52H636.996V375.955Z" fill="#5E0F00" fill-opacity="0.1"/>
<path d="M657.66 348.097V355.266H664.794V377.283H657.66V384.372H635.927V377.283H628.871V355.266H635.927V348.097H657.66ZM636.496 376.454H657.096V356.02H636.496V376.454Z" stroke="#5E0F00" stroke-opacity="0.1"/>
<path d="M737.851 385.5V394.314H802.149V385.5H817.385V448.814H801.149V452.5H738.851V448.814H722.615V385.5H737.851ZM824.5 429.705V439.581H818.385V429.705H824.5ZM721.615 429.705V439.581H715.5V429.705H721.615ZM824.5 414.754V424.63H818.385V414.754H824.5ZM721.615 414.754V424.63H715.5V414.754H721.615Z" stroke="#5E0F00" stroke-opacity="0.2"/>
<path d="M779.896 439.872V432.783H772.84V409.766H779.896V402.597H802.629V409.766H809.763V432.783H802.629V439.872H779.896ZM781.465 430.955H801.059V411.52H781.465V430.955Z" fill="#5E0F00" fill-opacity="0.2"/>
<path d="M802.129 403.097V410.266H809.263V432.283H802.129V439.372H780.396V432.283H773.34V410.266H780.396V403.097H802.129ZM780.965 431.454H801.56V411.02H780.965V431.454Z" stroke="#5E0F00" stroke-opacity="0.2"/>
<path d="M737.427 439.872V432.783H730.371V409.766H737.427V402.597H760.16V409.766H767.294V432.783H760.16V439.872H737.427ZM738.996 430.955H758.596V411.52H738.996V430.955Z" fill="#5E0F00" fill-opacity="0.2"/>
<path d="M759.66 403.097V410.266H766.794V432.283H759.66V439.372H737.927V432.283H730.871V410.266H737.927V403.097H759.66ZM738.496 431.454H759.096V411.02H738.496V431.454Z" stroke="#5E0F00" stroke-opacity="0.2"/>
<path d="M941.851 385.5V394.314H1006.15V385.5H1021.38V448.814H1005.15V452.5H942.851V448.814H926.615V385.5H941.851ZM1028.5 429.705V439.581H1022.38V429.705H1028.5ZM925.615 429.705V439.581H919.5V429.705H925.615ZM1028.5 414.754V424.63H1022.38V414.754H1028.5ZM925.615 414.754V424.63H919.5V414.754H925.615Z" stroke="#5E0F00" stroke-opacity="0.4"/>
<path d="M983.896 439.872V432.783H976.84V409.766H983.896V402.597H1006.63V409.766H1013.76V432.783H1006.63V439.872H983.896ZM985.465 430.955H1005.06V411.52H985.465V430.955Z" fill="#5E0F00" fill-opacity="0.4"/>
<path d="M1006.13 403.097V410.266H1013.26V432.283H1006.13V439.372H984.396V432.283H977.34V410.266H984.396V403.097H1006.13ZM984.965 431.454H1005.56V411.02H984.965V431.454Z" stroke="#5E0F00" stroke-opacity="0.4"/>
<path d="M941.427 439.872V432.783H934.371V409.766H941.427V402.597H964.16V409.766H971.294V432.783H964.16V439.872H941.427ZM942.996 430.955H962.596V411.52H942.996V430.955Z" fill="#5E0F00" fill-opacity="0.4"/>
<path d="M963.66 403.097V410.266H970.794V432.283H963.66V439.372H941.927V432.283H934.871V410.266H941.927V403.097H963.66ZM942.496 431.454H963.096V411.02H942.496V431.454Z" stroke="#5E0F00" stroke-opacity="0.4"/>
<path d="M839.851 330.5V339.314H904.149V330.5H919.385V393.814H903.149V397.5H840.851V393.814H824.615V330.5H839.851ZM926.5 374.705V384.581H920.385V374.705H926.5ZM823.615 374.705V384.581H817.5V374.705H823.615ZM926.5 359.754V369.63H920.385V359.754H926.5ZM823.615 359.754V369.63H817.5V359.754H823.615Z" stroke="#5E0F00" stroke-opacity="0.4"/>
<path d="M881.896 384.872V377.783H874.84V354.766H881.896V347.597H904.629V354.766H911.763V377.783H904.629V384.872H881.896ZM883.465 375.955H903.059V356.52H883.465V375.955Z" fill="#5E0F00" fill-opacity="0.4"/>
<path d="M904.129 348.097V355.266H911.263V377.283H904.129V384.372H882.396V377.283H875.34V355.266H882.396V348.097H904.129ZM882.965 376.454H903.56V356.02H882.965V376.454Z" stroke="#5E0F00" stroke-opacity="0.4"/>
<path d="M839.427 384.872V377.783H832.371V354.766H839.427V347.597H862.16V354.766H869.294V377.783H862.16V384.872H839.427ZM840.996 375.955H860.596V356.52H840.996V375.955Z" fill="#5E0F00" fill-opacity="0.4"/>
<path d="M861.66 348.097V355.266H868.794V377.283H861.66V384.372H839.927V377.283H832.871V355.266H839.927V348.097H861.66ZM840.496 376.454H861.096V356.02H840.496V376.454Z" stroke="#5E0F00" stroke-opacity="0.4"/>
<path d="M839.851 440.5V449.314H904.149V440.5H919.385V503.814H903.149V507.5H840.851V503.814H824.615V440.5H839.851ZM926.5 484.705V494.581H920.385V484.705H926.5ZM823.615 484.705V494.581H817.5V484.705H823.615ZM926.5 469.754V479.63H920.385V469.754H926.5ZM823.615 469.754V479.63H817.5V469.754H823.615Z" stroke="#5E0F00" stroke-opacity="0.2"/>
<path d="M881.896 494.872V487.783H874.84V464.766H881.896V457.597H904.629V464.766H911.763V487.783H904.629V494.872H881.896ZM883.465 485.955H903.059V466.52H883.465V485.955Z" fill="#5E0F00" fill-opacity="0.2"/>
<path d="M904.129 458.097V465.266H911.263V487.283H904.129V494.372H882.396V487.283H875.34V465.266H882.396V458.097H904.129ZM882.965 486.454H903.56V466.02H882.965V486.454Z" stroke="#5E0F00" stroke-opacity="0.2"/>
<path d="M839.427 494.872V487.783H832.371V464.766H839.427V457.597H862.16V464.766H869.294V487.783H862.16V494.872H839.427ZM840.996 485.955H860.596V466.52H840.996V485.955Z" fill="#5E0F00" fill-opacity="0.2"/>
<path d="M861.66 458.097V465.266H868.794V487.283H861.66V494.372H839.927V487.283H832.871V465.266H839.927V458.097H861.66ZM840.496 486.454H861.096V466.02H840.496V486.454Z" stroke="#5E0F00" stroke-opacity="0.2"/>
<path d="M941.851 495.5V504.314H1006.15V495.5H1021.38V558.814H1005.15V562.5H942.851V558.814H926.615V495.5H941.851ZM1028.5 539.705V549.581H1022.38V539.705H1028.5ZM925.615 539.705V549.581H919.5V539.705H925.615ZM1028.5 524.754V534.63H1022.38V524.754H1028.5ZM925.615 524.754V534.63H919.5V524.754H925.615Z" stroke="#5E0F00" stroke-opacity="0.1"/>
<path d="M983.896 549.872V542.783H976.84V519.766H983.896V512.597H1006.63V519.766H1013.76V542.783H1006.63V549.872H983.896ZM985.465 540.955H1005.06V521.52H985.465V540.955Z" fill="#5E0F00" fill-opacity="0.1"/>
<path d="M1006.13 513.097V520.266H1013.26V542.283H1006.13V549.372H984.396V542.283H977.34V520.266H984.396V513.097H1006.13ZM984.965 541.454H1005.56V521.02H984.965V541.454Z" stroke="#5E0F00" stroke-opacity="0.1"/>
<path d="M941.427 549.872V542.783H934.371V519.766H941.427V512.597H964.16V519.766H971.294V542.783H964.16V549.872H941.427ZM942.996 540.955H962.596V521.52H942.996V540.955Z" fill="#5E0F00" fill-opacity="0.1"/>
<path d="M963.66 513.097V520.266H970.794V542.283H963.66V549.372H941.927V542.283H934.871V520.266H941.927V513.097H963.66ZM942.496 541.454H963.096V521.02H942.496V541.454Z" stroke="#5E0F00" stroke-opacity="0.1"/>
<path d="M1145.85 495.5V504.314H1210.15V495.5H1225.38V558.814H1209.15V562.5H1146.85V558.814H1130.62V495.5H1145.85ZM1232.5 539.705V549.581H1226.38V539.705H1232.5ZM1129.62 539.705V549.581H1123.5V539.705H1129.62ZM1232.5 524.754V534.63H1226.38V524.754H1232.5ZM1129.62 524.754V534.63H1123.5V524.754H1129.62Z" stroke="#5E0F00" stroke-opacity="0.2"/>
<path d="M1187.9 549.872V542.783H1180.84V519.766H1187.9V512.597H1210.63V519.766H1217.76V542.783H1210.63V549.872H1187.9ZM1189.47 540.955H1209.06V521.52H1189.47V540.955Z" fill="#5E0F00" fill-opacity="0.2"/>
<path d="M1210.13 513.097V520.266H1217.26V542.283H1210.13V549.372H1188.4V542.283H1181.34V520.266H1188.4V513.097H1210.13ZM1188.96 541.454H1209.56V521.02H1188.96V541.454Z" stroke="#5E0F00" stroke-opacity="0.2"/>
<path d="M1145.43 549.872V542.783H1138.37V519.766H1145.43V512.597H1168.16V519.766H1175.29V542.783H1168.16V549.872H1145.43ZM1147 540.955H1166.6V521.52H1147V540.955Z" fill="#5E0F00" fill-opacity="0.2"/>
<path d="M1167.66 513.097V520.266H1174.79V542.283H1167.66V549.372H1145.93V542.283H1138.87V520.266H1145.93V513.097H1167.66ZM1146.5 541.454H1167.1V521.02H1146.5V541.454Z" stroke="#5E0F00" stroke-opacity="0.2"/>
<path d="M1043.85 440.5V449.314H1108.15V440.5H1123.38V503.814H1107.15V507.5H1044.85V503.814H1028.62V440.5H1043.85ZM1130.5 484.705V494.581H1124.38V484.705H1130.5ZM1027.62 484.705V494.581H1021.5V484.705H1027.62ZM1130.5 469.754V479.63H1124.38V469.754H1130.5ZM1027.62 469.754V479.63H1021.5V469.754H1027.62Z" stroke="#5E0F00" stroke-opacity="0.2"/>
<path d="M1085.9 494.872V487.783H1078.84V464.766H1085.9V457.597H1108.63V464.766H1115.76V487.783H1108.63V494.872H1085.9ZM1087.47 485.955H1107.06V466.52H1087.47V485.955Z" fill="#5E0F00" fill-opacity="0.2"/>
<path d="M1108.13 458.097V465.266H1115.26V487.283H1108.13V494.372H1086.4V487.283H1079.34V465.266H1086.4V458.097H1108.13ZM1086.96 486.454H1107.56V466.02H1086.96V486.454Z" stroke="#5E0F00" stroke-opacity="0.2"/>
<path d="M1043.43 494.872V487.783H1036.37V464.766H1043.43V457.597H1066.16V464.766H1073.29V487.783H1066.16V494.872H1043.43ZM1045 485.955H1064.6V466.52H1045V485.955Z" fill="#5E0F00" fill-opacity="0.2"/>
<path d="M1065.66 458.097V465.266H1072.79V487.283H1065.66V494.372H1043.93V487.283H1036.87V465.266H1043.93V458.097H1065.66ZM1044.5 486.454H1065.1V466.02H1044.5V486.454Z" stroke="#5E0F00" stroke-opacity="0.2"/>
<path d="M1043.85 330.5V339.314H1108.15V330.5H1123.38V393.814H1107.15V397.5H1044.85V393.814H1028.62V330.5H1043.85ZM1130.5 374.705V384.581H1124.38V374.705H1130.5ZM1027.62 374.705V384.581H1021.5V374.705H1027.62ZM1130.5 359.754V369.63H1124.38V359.754H1130.5ZM1027.62 359.754V369.63H1021.5V359.754H1027.62Z" stroke="#5E0F00" stroke-opacity="0.4"/>
<path d="M1085.9 384.872V377.783H1078.84V354.766H1085.9V347.597H1108.63V354.766H1115.76V377.783H1108.63V384.872H1085.9ZM1087.47 375.955H1107.06V356.52H1087.47V375.955Z" fill="#5E0F00" fill-opacity="0.4"/>
<path d="M1108.13 348.097V355.266H1115.26V377.283H1108.13V384.372H1086.4V377.283H1079.34V355.266H1086.4V348.097H1108.13ZM1086.96 376.454H1107.56V356.02H1086.96V376.454Z" stroke="#5E0F00" stroke-opacity="0.4"/>
<path d="M1043.43 384.872V377.783H1036.37V354.766H1043.43V347.597H1066.16V354.766H1073.29V377.783H1066.16V384.872H1043.43ZM1045 375.955H1064.6V356.52H1045V375.955Z" fill="#5E0F00" fill-opacity="0.4"/>
<path d="M1065.66 348.097V355.266H1072.79V377.283H1065.66V384.372H1043.93V377.283H1036.87V355.266H1043.93V348.097H1065.66ZM1044.5 376.454H1065.1V356.02H1044.5V376.454Z" stroke="#5E0F00" stroke-opacity="0.4"/>
<path d="M1145.85 385.5V394.314H1210.15V385.5H1225.38V448.814H1209.15V452.5H1146.85V448.814H1130.62V385.5H1145.85ZM1232.5 429.705V439.581H1226.38V429.705H1232.5ZM1129.62 429.705V439.581H1123.5V429.705H1129.62ZM1232.5 414.754V424.63H1226.38V414.754H1232.5ZM1129.62 414.754V424.63H1123.5V414.754H1129.62Z" stroke="#5E0F00" stroke-opacity="0.2"/>
<path d="M1187.9 439.872V432.783H1180.84V409.766H1187.9V402.597H1210.63V409.766H1217.76V432.783H1210.63V439.872H1187.9ZM1189.47 430.955H1209.06V411.52H1189.47V430.955Z" fill="#5E0F00" fill-opacity="0.2"/>
<path d="M1210.13 403.097V410.266H1217.26V432.283H1210.13V439.372H1188.4V432.283H1181.34V410.266H1188.4V403.097H1210.13ZM1188.96 431.454H1209.56V411.02H1188.96V431.454Z" stroke="#5E0F00" stroke-opacity="0.2"/>
<path d="M1145.43 439.872V432.783H1138.37V409.766H1145.43V402.597H1168.16V409.766H1175.29V432.783H1168.16V439.872H1145.43ZM1147 430.955H1166.6V411.52H1147V430.955Z" fill="#5E0F00" fill-opacity="0.2"/>
<path d="M1167.66 403.097V410.266H1174.79V432.283H1167.66V439.372H1145.93V432.283H1138.87V410.266H1145.93V403.097H1167.66ZM1146.5 431.454H1167.1V411.02H1146.5V431.454Z" stroke="#5E0F00" stroke-opacity="0.2"/>
<path d="M1349.85 385.5V394.314H1414.15V385.5H1429.38V448.814H1413.15V452.5H1350.85V448.814H1334.62V385.5H1349.85ZM1436.5 429.705V439.581H1430.38V429.705H1436.5ZM1333.62 429.705V439.581H1327.5V429.705H1333.62ZM1436.5 414.754V424.63H1430.38V414.754H1436.5ZM1333.62 414.754V424.63H1327.5V414.754H1333.62Z" stroke="#5E0F00" stroke-opacity="0.1"/>
<path d="M1391.9 439.872V432.783H1384.84V409.766H1391.9V402.597H1414.63V409.766H1421.76V432.783H1414.63V439.872H1391.9ZM1393.47 430.955H1413.06V411.52H1393.47V430.955Z" fill="#5E0F00" fill-opacity="0.1"/>
<path d="M1414.13 403.097V410.266H1421.26V432.283H1414.13V439.372H1392.4V432.283H1385.34V410.266H1392.4V403.097H1414.13ZM1392.96 431.454H1413.56V411.02H1392.96V431.454Z" stroke="#5E0F00" stroke-opacity="0.1"/>
<path d="M1349.43 439.872V432.783H1342.37V409.766H1349.43V402.597H1372.16V409.766H1379.29V432.783H1372.16V439.872H1349.43ZM1351 430.955H1370.6V411.52H1351V430.955Z" fill="#5E0F00" fill-opacity="0.1"/>
<path d="M1371.66 403.097V410.266H1378.79V432.283H1371.66V439.372H1349.93V432.283H1342.87V410.266H1349.93V403.097H1371.66ZM1350.5 431.454H1371.1V411.02H1350.5V431.454Z" stroke="#5E0F00" stroke-opacity="0.1"/>
<path d="M1247.85 330.5V339.314H1312.15V330.5H1327.38V393.814H1311.15V397.5H1248.85V393.814H1232.62V330.5H1247.85ZM1334.5 374.705V384.581H1328.38V374.705H1334.5ZM1231.62 374.705V384.581H1225.5V374.705H1231.62ZM1334.5 359.754V369.63H1328.38V359.754H1334.5ZM1231.62 359.754V369.63H1225.5V359.754H1231.62Z" stroke="#5E0F00" stroke-opacity="0.1"/>
<path d="M1289.9 384.872V377.783H1282.84V354.766H1289.9V347.597H1312.63V354.766H1319.76V377.783H1312.63V384.872H1289.9ZM1291.47 375.955H1311.06V356.52H1291.47V375.955Z" fill="#5E0F00" fill-opacity="0.1"/>
<path d="M1312.13 348.097V355.266H1319.26V377.283H1312.13V384.372H1290.4V377.283H1283.34V355.266H1290.4V348.097H1312.13ZM1290.96 376.454H1311.56V356.02H1290.96V376.454Z" stroke="#5E0F00" stroke-opacity="0.1"/>
<path d="M1247.43 384.872V377.783H1240.37V354.766H1247.43V347.597H1270.16V354.766H1277.29V377.783H1270.16V384.872H1247.43ZM1249 375.955H1268.6V356.52H1249V375.955Z" fill="#5E0F00" fill-opacity="0.1"/>
<path d="M1269.66 348.097V355.266H1276.79V377.283H1269.66V384.372H1247.93V377.283H1240.87V355.266H1247.93V348.097H1269.66ZM1248.5 376.454H1269.1V356.02H1248.5V376.454Z" stroke="#5E0F00" stroke-opacity="0.1"/>
</svg>
