<svg xmlns="http://www.w3.org/2000/svg" xmlns:xlink="http://www.w3.org/1999/xlink" width="433" zoomAndPan="magnify" viewBox="0 0 324.75 54.75" height="73" preserveAspectRatio="xMidYMid meet" version="1.0"><defs><clipPath id="5a16f7dfef"><path d="M 61 0 L 264 0 L 264 54.5 L 61 54.5 Z M 61 0 " clip-rule="nonzero"/></clipPath><clipPath id="2b0974b948"><path d="M 41 0.675781 L 49 0.675781 L 49 8 L 41 8 Z M 41 0.675781 " clip-rule="nonzero"/></clipPath><clipPath id="91c8159f31"><path d="M 0.34375 0.675781 L 8 0.675781 L 8 8 L 0.34375 8 Z M 0.34375 0.675781 " clip-rule="nonzero"/></clipPath><clipPath id="07c370b9ce"><path d="M 0.34375 41 L 8 41 L 8 49 L 0.34375 49 Z M 0.34375 41 " clip-rule="nonzero"/></clipPath><clipPath id="b0949e91b4"><path d="M 192 43 L 201.746094 43 L 201.746094 54 L 192 54 Z M 192 43 " clip-rule="nonzero"/></clipPath><clipPath id="6b0865e957"><rect x="0" width="203" y="0" height="55"/></clipPath></defs><g clip-path="url(#5a16f7dfef)"><g transform="matrix(1, 0, 0, 1, 61, -0.000000000000013267)"><g clip-path="url(#6b0865e957)"><path fill="#1e3cff" d="M 27.941406 21.222656 L 21.148438 21.222656 L 21.148438 28.074219 L 27.941406 28.074219 Z M 27.941406 21.222656 " fill-opacity="1" fill-rule="nonzero"/><path fill="#1e3cff" d="M 44.925781 21.222656 L 38.132812 21.222656 L 38.132812 28.074219 L 44.925781 28.074219 Z M 44.925781 21.222656 " fill-opacity="1" fill-rule="nonzero"/><path fill="#1e3cff" d="M 10.949219 21.222656 L 4.152344 21.222656 L 4.152344 28.074219 L 10.949219 28.074219 Z M 10.949219 21.222656 " fill-opacity="1" fill-rule="nonzero"/><path fill="#1e3cff" d="M 27.941406 4.109375 L 21.148438 4.109375 L 21.148438 10.957031 L 27.941406 10.957031 Z M 27.941406 4.109375 " fill-opacity="1" fill-rule="nonzero"/><path fill="#1e3cff" d="M 27.941406 38.351562 L 21.148438 38.351562 L 21.148438 45.199219 L 27.941406 45.199219 Z M 27.941406 38.351562 " fill-opacity="1" fill-rule="nonzero"/><path fill="#1e3cff" d="M 34.730469 14.382812 L 27.933594 14.382812 L 27.933594 21.230469 L 34.730469 21.230469 Z M 34.730469 14.382812 " fill-opacity="1" fill-rule="nonzero"/><path fill="#1e3cff" d="M 41.523438 7.53125 L 34.730469 7.53125 L 34.730469 14.382812 L 41.523438 14.382812 Z M 41.523438 7.53125 " fill-opacity="1" fill-rule="nonzero"/><g clip-path="url(#2b0974b948)"><path fill="#1e3cff" d="M 48.320312 0.6875 L 41.523438 0.6875 L 41.523438 7.535156 L 48.320312 7.535156 Z M 48.320312 0.6875 " fill-opacity="1" fill-rule="nonzero"/></g><path fill="#1e3cff" d="M 14.34375 21.222656 L 21.140625 21.222656 L 21.140625 14.375 L 14.34375 14.375 Z M 14.34375 21.222656 " fill-opacity="1" fill-rule="nonzero"/><path fill="#1e3cff" d="M 7.546875 14.375 L 14.34375 14.375 L 14.34375 7.527344 L 7.546875 7.527344 Z M 7.546875 14.375 " fill-opacity="1" fill-rule="nonzero"/><g clip-path="url(#91c8159f31)"><path fill="#1e3cff" d="M 0.761719 7.527344 L 7.554688 7.527344 L 7.554688 0.675781 L 0.761719 0.675781 Z M 0.761719 7.527344 " fill-opacity="1" fill-rule="nonzero"/></g><path fill="#1e3cff" d="M 34.730469 28.074219 L 27.933594 28.074219 L 27.933594 34.925781 L 34.730469 34.925781 Z M 34.730469 28.074219 " fill-opacity="1" fill-rule="nonzero"/><path fill="#1e3cff" d="M 41.523438 34.921875 L 34.730469 34.921875 L 34.730469 41.769531 L 41.523438 41.769531 Z M 41.523438 34.921875 " fill-opacity="1" fill-rule="nonzero"/><path fill="#1e3cff" d="M 48.320312 41.769531 L 41.523438 41.769531 L 41.523438 48.621094 L 48.320312 48.621094 Z M 48.320312 41.769531 " fill-opacity="1" fill-rule="nonzero"/><path fill="#1e3cff" d="M 14.34375 34.921875 L 21.140625 34.921875 L 21.140625 28.074219 L 14.34375 28.074219 Z M 14.34375 34.921875 " fill-opacity="1" fill-rule="nonzero"/><path fill="#1e3cff" d="M 7.546875 41.769531 L 14.34375 41.769531 L 14.34375 34.921875 L 7.546875 34.921875 Z M 7.546875 41.769531 " fill-opacity="1" fill-rule="nonzero"/><g clip-path="url(#07c370b9ce)"><path fill="#1e3cff" d="M 0.761719 48.621094 L 7.554688 48.621094 L 7.554688 41.769531 L 0.761719 41.769531 Z M 0.761719 48.621094 " fill-opacity="1" fill-rule="nonzero"/></g><path fill="#0f0f1c" d="M 71.121094 34.386719 C 69.15625 34.386719 67.484375 33.972656 66.121094 33.140625 C 64.753906 32.3125 63.707031 31.136719 62.992188 29.617188 C 62.277344 28.097656 61.917969 26.328125 61.917969 24.300781 C 61.917969 22.269531 62.265625 20.472656 62.960938 18.960938 C 63.65625 17.453125 64.664062 16.285156 65.980469 15.453125 C 67.296875 14.621094 68.871094 14.207031 70.710938 14.207031 C 72.164062 14.207031 73.417969 14.480469 74.464844 15.03125 C 75.511719 15.578125 76.3125 16.371094 76.867188 17.40625 L 76.996094 17.40625 L 76.996094 6.84375 L 81.777344 6.84375 L 81.777344 29.179688 L 84.148438 29.179688 L 84.148438 34 L 79.273438 34 L 79.273438 30.894531 L 77.925781 30.894531 C 77.238281 32.019531 76.332031 32.878906 75.195312 33.480469 C 74.0625 34.085938 72.707031 34.386719 71.121094 34.386719 Z M 71.957031 30.21875 C 73.496094 30.21875 74.722656 29.78125 75.628906 28.910156 C 76.535156 28.035156 76.992188 26.84375 76.992188 25.335938 L 76.992188 23.265625 C 76.992188 21.757812 76.535156 20.566406 75.628906 19.695312 C 74.71875 18.820312 73.496094 18.382812 71.957031 18.382812 C 70.246094 18.382812 68.9375 18.90625 68.039062 19.953125 C 67.144531 21 66.691406 22.449219 66.691406 24.304688 C 66.691406 26.160156 67.144531 27.609375 68.039062 28.652344 C 68.9375 29.699219 70.242188 30.222656 71.957031 30.222656 Z M 71.957031 30.21875 " fill-opacity="1" fill-rule="nonzero"/><path fill="#0f0f1c" d="M 96.402344 34.386719 C 94.414062 34.386719 92.671875 33.972656 91.175781 33.140625 C 89.675781 32.3125 88.511719 31.140625 87.679688 29.632812 C 86.84375 28.121094 86.429688 26.34375 86.429688 24.300781 C 86.429688 22.253906 86.839844 20.472656 87.664062 18.960938 C 88.484375 17.453125 89.648438 16.285156 91.148438 15.453125 C 92.644531 14.621094 94.398438 14.207031 96.40625 14.207031 C 98.886719 14.207031 100.941406 14.839844 102.5625 16.097656 C 104.1875 17.359375 105.214844 19.113281 105.644531 21.355469 L 100.863281 21.355469 C 100.542969 20.386719 100.007812 19.648438 99.257812 19.152344 C 98.507812 18.65625 97.558594 18.40625 96.402344 18.40625 C 94.820312 18.40625 93.554688 18.921875 92.617188 19.945312 C 91.675781 20.96875 91.207031 22.417969 91.207031 24.292969 C 91.207031 26.171875 91.675781 27.617188 92.617188 28.644531 C 93.558594 29.667969 94.820312 30.183594 96.402344 30.183594 C 98.882812 30.183594 100.402344 29.105469 100.957031 26.949219 L 105.769531 26.949219 C 105.363281 29.300781 104.351562 31.128906 102.722656 32.429688 C 101.097656 33.734375 98.992188 34.382812 96.402344 34.382812 Z M 96.402344 34.386719 " fill-opacity="1" fill-rule="nonzero"/><path fill="#0f0f1c" d="M 110.875 12.46875 C 110.125 12.46875 109.488281 12.207031 108.964844 11.679688 C 108.441406 11.152344 108.179688 10.511719 108.179688 9.757812 C 108.179688 9.003906 108.441406 8.359375 108.964844 7.832031 C 109.488281 7.304688 110.125 7.042969 110.875 7.042969 C 111.621094 7.042969 112.257812 7.304688 112.78125 7.832031 C 113.304688 8.359375 113.566406 9.003906 113.566406 9.757812 C 113.566406 10.511719 113.304688 11.152344 112.78125 11.679688 C 112.257812 12.207031 111.621094 12.46875 110.875 12.46875 Z M 108.5 34 L 108.5 14.601562 L 113.28125 14.601562 L 113.28125 34 Z M 108.5 34 " fill-opacity="1" fill-rule="nonzero"/><path fill="#0f0f1c" d="M 119.121094 41.761719 L 119.121094 19.421875 L 116.746094 19.421875 L 116.746094 14.605469 L 121.652344 14.605469 L 121.652344 17.710938 L 123.003906 17.710938 C 123.667969 16.589844 124.5625 15.726562 125.695312 15.121094 C 126.828125 14.519531 128.199219 14.21875 129.800781 14.21875 C 131.789062 14.21875 133.464844 14.632812 134.820312 15.464844 C 136.179688 16.296875 137.210938 17.464844 137.917969 18.972656 C 138.621094 20.480469 138.976562 22.261719 138.976562 24.308594 C 138.976562 26.359375 138.628906 28.136719 137.933594 29.644531 C 137.238281 31.152344 136.238281 32.320312 134.933594 33.152344 C 133.632812 33.984375 132.058594 34.398438 130.214844 34.398438 C 128.761719 34.398438 127.507812 34.117188 126.460938 33.558594 C 125.417969 32.996094 124.605469 32.210938 124.023438 31.199219 L 123.898438 31.199219 L 123.898438 41.773438 L 119.113281 41.773438 Z M 128.933594 30.21875 C 130.667969 30.21875 131.976562 29.699219 132.863281 28.652344 C 133.753906 27.605469 134.195312 26.15625 134.195312 24.300781 C 134.195312 22.445312 133.753906 20.996094 132.863281 19.949219 C 131.976562 18.90625 130.667969 18.382812 128.933594 18.382812 C 127.414062 18.382812 126.199219 18.820312 125.277344 19.691406 C 124.355469 20.5625 123.898438 21.753906 123.898438 23.265625 L 123.898438 25.332031 C 123.898438 26.84375 124.355469 28.035156 125.277344 28.90625 C 126.199219 29.777344 127.414062 30.214844 128.933594 30.214844 Z M 128.933594 30.21875 " fill-opacity="1" fill-rule="nonzero"/><path fill="#0f0f1c" d="M 142.40625 34 L 142.40625 6.84375 L 147.1875 6.84375 L 147.1875 17.480469 L 147.316406 17.480469 C 147.933594 16.425781 148.78125 15.621094 149.851562 15.070312 C 150.917969 14.519531 152.183594 14.246094 153.636719 14.246094 C 156.054688 14.246094 157.96875 14.980469 159.394531 16.449219 C 160.816406 17.910156 161.527344 19.867188 161.527344 22.296875 L 161.527344 34.003906 L 156.746094 34.003906 L 156.746094 23.207031 C 156.746094 21.675781 156.34375 20.511719 155.53125 19.714844 C 154.71875 18.921875 153.53125 18.519531 151.96875 18.519531 C 150.410156 18.519531 149.222656 18.921875 148.410156 19.714844 C 147.597656 20.511719 147.191406 21.679688 147.191406 23.207031 L 147.191406 34.003906 L 142.410156 34.003906 Z M 142.40625 34 " fill-opacity="1" fill-rule="nonzero"/><path fill="#0f0f1c" d="M 174.96875 34.386719 C 172.894531 34.386719 171.097656 33.972656 169.578125 33.140625 C 168.058594 32.316406 166.890625 31.136719 166.0625 29.621094 C 165.238281 28.101562 164.828125 26.304688 164.828125 24.238281 C 164.828125 22.167969 165.234375 20.386719 166.046875 18.886719 C 166.859375 17.390625 168.011719 16.234375 169.507812 15.425781 C 171.007812 14.617188 172.761719 14.210938 174.769531 14.210938 C 176.777344 14.210938 178.425781 14.59375 179.839844 15.359375 C 181.25 16.121094 182.34375 17.222656 183.109375 18.652344 C 183.882812 20.085938 184.265625 21.785156 184.265625 23.746094 L 184.265625 25.425781 L 169.441406 25.425781 C 169.613281 27.0625 170.171875 28.324219 171.125 29.195312 C 172.078125 30.070312 173.34375 30.503906 174.925781 30.503906 C 176.105469 30.503906 177.058594 30.28125 177.800781 29.84375 C 178.539062 29.402344 179.058594 28.738281 179.355469 27.855469 L 184.167969 27.855469 C 183.71875 29.902344 182.691406 31.503906 181.074219 32.65625 C 179.460938 33.8125 177.421875 34.382812 174.964844 34.382812 Z M 169.546875 22.167969 L 179.679688 22.167969 C 179.488281 20.832031 178.976562 19.8125 178.144531 19.113281 C 177.308594 18.414062 176.1875 18.0625 174.773438 18.0625 C 173.363281 18.0625 172.238281 18.417969 171.339844 19.132812 C 170.441406 19.84375 169.84375 20.855469 169.546875 22.171875 Z M 169.546875 22.167969 " fill-opacity="1" fill-rule="nonzero"/><path fill="#0f0f1c" d="M 189.246094 33.996094 L 189.246094 19.417969 L 186.871094 19.417969 L 186.871094 14.597656 L 191.75 14.597656 L 191.75 18.347656 L 193.097656 18.347656 C 193.628906 17.058594 194.457031 16.078125 195.570312 15.40625 C 196.679688 14.738281 197.957031 14.40625 199.386719 14.40625 L 200.992188 14.40625 L 200.992188 18.542969 L 199.164062 18.542969 C 197.433594 18.542969 196.132812 19.050781 195.269531 20.0625 C 194.402344 21.078125 193.96875 22.421875 193.96875 24.105469 L 193.96875 33.996094 Z M 189.246094 33.996094 " fill-opacity="1" fill-rule="nonzero"/><path fill="#0f0f1c" d="M 140.53125 53.355469 L 138.78125 53.355469 L 133.476562 46.214844 L 133.429688 46.214844 L 133.429688 53.355469 L 131.914062 53.355469 L 131.914062 43.964844 L 133.625 43.964844 L 138.964844 51.1875 L 139.011719 51.1875 L 139.011719 43.964844 L 140.53125 43.964844 Z M 140.53125 53.355469 " fill-opacity="1" fill-rule="nonzero"/><path fill="#0f0f1c" d="M 149.296875 53.355469 L 142.671875 53.355469 L 142.671875 43.964844 L 149.296875 43.964844 L 149.296875 45.355469 L 144.269531 45.355469 L 144.269531 47.804688 L 148.976562 47.804688 L 148.976562 49.171875 L 144.269531 49.171875 L 144.269531 51.964844 L 149.296875 51.964844 Z M 149.296875 53.355469 " fill-opacity="1" fill-rule="nonzero"/><path fill="#0f0f1c" d="M 154.929688 53.355469 L 153.339844 53.355469 L 153.339844 45.355469 L 150.15625 45.355469 L 150.15625 43.964844 L 158.117188 43.964844 L 158.117188 45.355469 L 154.929688 45.355469 Z M 154.929688 53.355469 " fill-opacity="1" fill-rule="nonzero"/><path fill="#0f0f1c" d="M 161.457031 53.355469 L 158.742188 43.964844 L 160.410156 43.964844 L 162.332031 51.027344 L 162.390625 51.027344 L 164.472656 43.964844 L 165.933594 43.964844 L 168.140625 51.027344 L 168.1875 51.027344 L 170.085938 43.964844 L 171.765625 43.964844 L 169.050781 53.355469 L 167.417969 53.355469 L 165.21875 46.15625 L 165.171875 46.15625 L 163.089844 53.355469 Z M 161.457031 53.355469 " fill-opacity="1" fill-rule="nonzero"/><path fill="#0f0f1c" d="M 176.835938 53.496094 C 175.894531 53.496094 175.066406 53.300781 174.351562 52.90625 C 173.644531 52.503906 173.097656 51.9375 172.707031 51.210938 C 172.316406 50.484375 172.121094 49.636719 172.121094 48.660156 C 172.121094 47.679688 172.316406 46.828125 172.707031 46.109375 C 173.097656 45.382812 173.644531 44.824219 174.351562 44.429688 C 175.058594 44.027344 175.886719 43.824219 176.835938 43.824219 C 177.789062 43.824219 178.617188 44.023438 179.320312 44.417969 C 180.035156 44.8125 180.582031 45.371094 180.964844 46.097656 C 181.359375 46.816406 181.554688 47.671875 181.554688 48.660156 C 181.554688 49.636719 181.359375 50.484375 180.964844 51.210938 C 180.574219 51.9375 180.027344 52.503906 179.320312 52.90625 C 178.617188 53.300781 177.789062 53.496094 176.835938 53.496094 Z M 176.835938 52.09375 C 177.808594 52.09375 178.570312 51.785156 179.113281 51.164062 C 179.667969 50.546875 179.941406 49.710938 179.941406 48.660156 C 179.941406 47.601562 179.671875 46.765625 179.125 46.15625 C 178.582031 45.539062 177.816406 45.230469 176.835938 45.230469 C 175.863281 45.230469 175.097656 45.539062 174.546875 46.15625 C 174.003906 46.765625 173.730469 47.601562 173.730469 48.660156 C 173.730469 49.71875 174.003906 50.558594 174.546875 51.175781 C 175.097656 51.789062 175.863281 52.09375 176.835938 52.09375 Z M 176.835938 52.09375 " fill-opacity="1" fill-rule="nonzero"/><path fill="#0f0f1c" d="M 183.195312 53.355469 L 183.195312 43.964844 L 187.820312 43.964844 C 188.789062 43.964844 189.546875 44.1875 190.101562 44.636719 C 190.652344 45.085938 190.929688 45.714844 190.929688 46.527344 C 190.929688 46.992188 190.824219 47.398438 190.617188 47.746094 C 190.410156 48.085938 190.105469 48.347656 189.695312 48.535156 L 189.695312 48.578125 C 190.089844 48.578125 190.390625 48.6875 190.605469 48.90625 C 190.820312 49.113281 190.929688 49.417969 190.929688 49.820312 L 190.929688 53.355469 L 189.339844 53.355469 L 189.339844 49.636719 L 184.796875 49.636719 L 184.796875 53.355469 Z M 184.796875 48.265625 L 187.695312 48.265625 C 188.226562 48.265625 188.632812 48.140625 188.914062 47.882812 C 189.207031 47.628906 189.351562 47.269531 189.351562 46.804688 C 189.351562 46.335938 189.207031 45.976562 188.914062 45.726562 C 188.632812 45.472656 188.226562 45.34375 187.695312 45.34375 L 184.796875 45.34375 Z M 184.796875 48.265625 " fill-opacity="1" fill-rule="nonzero"/><g clip-path="url(#b0949e91b4)"><path fill="#0f0f1c" d="M 192.90625 53.355469 L 192.90625 43.964844 L 194.503906 43.964844 L 194.503906 48.152344 L 194.550781 48.152344 L 198.933594 43.964844 L 200.910156 43.964844 L 196.734375 47.929688 L 201.027344 53.355469 L 199.09375 53.355469 L 195.574219 48.90625 L 194.503906 49.773438 L 194.503906 53.355469 Z M 192.90625 53.355469 " fill-opacity="1" fill-rule="nonzero"/></g></g></g></g></svg>