<svg xmlns="http://www.w3.org/2000/svg" xmlns:xlink="http://www.w3.org/1999/xlink" width="433" zoomAndPan="magnify" viewBox="0 0 324.75 54.75" height="73" preserveAspectRatio="xMidYMid meet" version="1.0"><defs><clipPath id="6f8ed2226f"><path d="M 1.359375 10 L 323.140625 10 L 323.140625 45 L 1.359375 45 Z M 1.359375 10 " clip-rule="nonzero"/></clipPath><clipPath id="482076fbf2"><path d="M 2 0.0585938 L 37 0.0585938 L 37 34.242188 L 2 34.242188 Z M 2 0.0585938 " clip-rule="nonzero"/></clipPath><clipPath id="1864a6ce00"><rect x="0" width="323" y="0" height="35"/></clipPath></defs><g clip-path="url(#6f8ed2226f)"><g transform="matrix(1, 0, 0, 1, 1, 10)"><g clip-path="url(#1864a6ce00)"><g clip-path="url(#482076fbf2)"><path fill="#1a1a71" d="M 19.390625 21.824219 L 5.652344 14.09375 L 5.652344 11.644531 L 19.390625 19.371094 L 36.5625 9.710938 L 19.390625 0.0585938 L 2.21875 9.710938 L 2.21875 17.144531 L 19.390625 26.796875 L 19.390625 29.253906 L 6.660156 22.089844 L 2.21875 24.585938 L 19.390625 34.242188 L 36.5625 24.585938 L 36.5625 17.144531 L 32.136719 14.65625 Z M 19.390625 21.824219 " fill-opacity="1" fill-rule="nonzero"/></g><path fill="#1a1a71" d="M 313.15625 31.570312 L 306.828125 22.140625 L 310.804688 17.898438 L 320.136719 31.570312 Z M 299.71875 31.570312 L 299.71875 2.691406 L 305.675781 2.691406 L 305.675781 31.570312 Z M 305.121094 25.335938 L 305.132812 18.132812 L 306.003906 18.132812 L 312.886719 9.910156 L 319.726562 9.910156 L 310.476562 20.796875 L 309.0625 20.796875 Z M 305.121094 25.335938 " fill-opacity="1" fill-rule="nonzero"/><path fill="#1a1a71" d="M 286.695312 31.992188 C 284.492188 31.992188 282.597656 31.519531 281.011719 30.582031 C 279.4375 29.632812 278.222656 28.316406 277.378906 26.636719 C 276.542969 24.957031 276.117188 23.023438 276.117188 20.828125 C 276.117188 18.636719 276.542969 16.667969 277.390625 14.996094 C 278.246094 13.316406 279.464844 12 281.046875 11.0625 C 282.621094 10.109375 284.5 9.636719 286.667969 9.636719 C 288.542969 9.636719 290.183594 9.980469 291.597656 10.671875 C 293.003906 11.359375 294.121094 12.324219 294.945312 13.558594 C 295.769531 14.796875 296.214844 16.253906 296.304688 17.929688 L 290.679688 17.929688 C 290.519531 16.847656 290.105469 15.980469 289.421875 15.316406 C 288.753906 14.648438 287.867188 14.320312 286.777344 14.320312 C 285.851562 14.320312 285.050781 14.574219 284.351562 15.082031 C 283.671875 15.582031 283.140625 16.308594 282.761719 17.269531 C 282.378906 18.226562 282.183594 19.386719 282.183594 20.75 C 282.183594 22.109375 282.371094 23.304688 282.746094 24.277344 C 283.128906 25.246094 283.664062 25.984375 284.351562 26.488281 C 285.042969 26.996094 285.851562 27.25 286.777344 27.25 C 287.460938 27.25 288.070312 27.109375 288.609375 26.828125 C 289.160156 26.542969 289.617188 26.136719 289.96875 25.597656 C 290.332031 25.050781 290.574219 24.398438 290.6875 23.636719 L 296.308594 23.636719 C 296.214844 25.289062 295.769531 26.746094 294.964844 28.007812 C 294.175781 29.253906 293.078125 30.234375 291.675781 30.941406 C 290.277344 31.648438 288.625 32 286.710938 32 Z M 286.695312 31.992188 " fill-opacity="1" fill-rule="nonzero"/><path fill="#1a1a71" d="M 262.363281 27.832031 C 263.238281 27.832031 264.015625 27.65625 264.683594 27.3125 C 265.355469 26.957031 265.882812 26.476562 266.265625 25.875 C 266.648438 25.277344 266.839844 24.59375 266.839844 23.832031 L 266.839844 21.53125 C 266.652344 21.652344 266.398438 21.769531 266.070312 21.871094 C 265.757812 21.964844 265.394531 22.050781 264.992188 22.140625 C 264.589844 22.214844 264.1875 22.289062 263.789062 22.347656 C 263.386719 22.402344 263.023438 22.457031 262.695312 22.503906 C 261.992188 22.605469 261.382812 22.773438 260.863281 22.996094 C 260.339844 23.21875 259.929688 23.527344 259.644531 23.914062 C 259.355469 24.292969 259.207031 24.757812 259.207031 25.324219 C 259.207031 26.140625 259.503906 26.765625 260.09375 27.199219 C 260.6875 27.625 261.445312 27.832031 262.363281 27.832031 Z M 260.65625 31.980469 C 259.28125 31.980469 258.0625 31.738281 256.984375 31.257812 C 255.914062 30.773438 255.0625 30.050781 254.441406 29.101562 C 253.824219 28.144531 253.519531 26.949219 253.519531 25.519531 C 253.519531 24.316406 253.738281 23.304688 254.175781 22.492188 C 254.609375 21.675781 255.210938 21.011719 255.96875 20.515625 C 256.726562 20.015625 257.582031 19.636719 258.546875 19.386719 C 259.515625 19.132812 260.535156 18.957031 261.597656 18.855469 C 262.851562 18.71875 263.855469 18.597656 264.617188 18.488281 C 265.382812 18.367188 265.9375 18.1875 266.285156 17.957031 C 266.632812 17.722656 266.800781 17.378906 266.800781 16.910156 L 266.800781 16.824219 C 266.800781 15.933594 266.519531 15.238281 265.964844 14.753906 C 265.414062 14.265625 264.632812 14.019531 263.613281 14.019531 C 262.542969 14.019531 261.683594 14.261719 261.054688 14.738281 C 260.417969 15.210938 260.003906 15.796875 259.796875 16.515625 L 254.28125 16.0625 C 254.5625 14.746094 255.113281 13.605469 255.933594 12.648438 C 256.757812 11.675781 257.816406 10.933594 259.109375 10.421875 C 260.414062 9.894531 261.925781 9.632812 263.640625 9.632812 C 264.832031 9.632812 265.976562 9.773438 267.066406 10.058594 C 268.164062 10.339844 269.144531 10.78125 269.992188 11.367188 C 270.851562 11.960938 271.527344 12.722656 272.023438 13.652344 C 272.515625 14.578125 272.765625 15.675781 272.765625 16.964844 L 272.765625 31.570312 L 267.113281 31.570312 L 267.113281 28.566406 L 266.949219 28.566406 C 266.597656 29.242188 266.136719 29.84375 265.5625 30.355469 C 264.984375 30.863281 264.289062 31.257812 263.480469 31.554688 C 262.667969 31.839844 261.730469 31.980469 260.667969 31.980469 Z M 260.65625 31.980469 " fill-opacity="1" fill-rule="nonzero"/><path fill="#1a1a71" d="M 241.03125 4.730469 L 246.988281 4.730469 L 246.988281 24.921875 C 246.988281 25.476562 247.078125 25.90625 247.246094 26.214844 C 247.410156 26.519531 247.644531 26.730469 247.949219 26.851562 C 248.253906 26.972656 248.609375 27.03125 249.011719 27.03125 C 249.292969 27.03125 249.574219 27.011719 249.847656 26.964844 C 250.128906 26.910156 250.34375 26.863281 250.492188 26.835938 L 251.429688 31.308594 C 251.128906 31.402344 250.710938 31.511719 250.171875 31.632812 C 249.628906 31.769531 248.972656 31.84375 248.195312 31.875 C 246.757812 31.929688 245.496094 31.742188 244.417969 31.296875 C 243.347656 30.859375 242.511719 30.167969 241.914062 29.238281 C 241.320312 28.308594 241.023438 27.132812 241.03125 25.710938 Z M 251.035156 9.917969 L 251.035156 14.433594 L 238.09375 14.433594 L 238.09375 9.917969 Z M 251.035156 9.917969 " fill-opacity="1" fill-rule="nonzero"/><path fill="#1a1a71" d="M 235.757812 16.089844 L 230.300781 16.425781 C 230.207031 15.953125 230.007812 15.535156 229.699219 15.15625 C 229.390625 14.773438 228.980469 14.46875 228.480469 14.242188 C 227.984375 14.003906 227.394531 13.890625 226.707031 13.890625 C 225.78125 13.890625 225.003906 14.085938 224.367188 14.484375 C 223.734375 14.867188 223.417969 15.386719 223.417969 16.035156 C 223.417969 16.554688 223.625 16.984375 224.035156 17.34375 C 224.441406 17.699219 225.152344 17.984375 226.148438 18.199219 L 230.039062 18.988281 C 232.128906 19.421875 233.6875 20.117188 234.710938 21.074219 C 235.738281 22.03125 236.253906 23.292969 236.253906 24.851562 C 236.253906 26.269531 235.835938 27.515625 235.007812 28.589844 C 234.183594 29.660156 233.058594 30.496094 231.621094 31.097656 C 230.195312 31.691406 228.546875 31.988281 226.679688 31.988281 C 223.832031 31.988281 221.5625 31.394531 219.875 30.199219 C 218.195312 29 217.210938 27.359375 216.925781 25.296875 L 222.789062 24.984375 C 222.964844 25.863281 223.398438 26.53125 224.074219 26.988281 C 224.757812 27.441406 225.628906 27.664062 226.691406 27.664062 C 227.757812 27.664062 228.574219 27.460938 229.210938 27.058594 C 229.851562 26.644531 230.179688 26.113281 230.1875 25.464844 C 230.179688 24.917969 229.945312 24.472656 229.503906 24.121094 C 229.054688 23.765625 228.367188 23.496094 227.433594 23.304688 L 223.714844 22.558594 C 221.609375 22.132812 220.050781 21.402344 219.027344 20.359375 C 218.007812 19.3125 217.5 17.984375 217.5 16.371094 C 217.5 14.984375 217.875 13.78125 218.617188 12.777344 C 219.375 11.773438 220.433594 10.996094 221.792969 10.449219 C 223.164062 9.902344 224.765625 9.632812 226.605469 9.632812 C 229.316406 9.632812 231.457031 10.214844 233.011719 11.367188 C 234.578125 12.519531 235.496094 14.097656 235.757812 16.089844 Z M 235.757812 16.089844 " fill-opacity="1" fill-rule="nonzero"/><path fill="#1a1a71" d="M 199.710938 19.050781 L 199.710938 31.570312 L 193.753906 31.570312 L 193.753906 9.917969 L 199.4375 9.917969 L 199.4375 13.734375 L 199.691406 13.734375 C 200.167969 12.472656 200.964844 11.480469 202.082031 10.746094 C 203.199219 10.003906 204.558594 9.632812 206.152344 9.632812 C 207.644531 9.632812 208.945312 9.964844 210.054688 10.617188 C 211.167969 11.277344 212.03125 12.214844 212.648438 13.4375 C 213.261719 14.652344 213.570312 16.09375 213.570312 17.78125 L 213.570312 31.570312 L 207.613281 31.570312 L 207.613281 18.855469 C 207.617188 17.53125 207.285156 16.492188 206.609375 15.75 C 205.925781 15.003906 204.988281 14.625 203.796875 14.625 C 202.992188 14.625 202.285156 14.800781 201.667969 15.144531 C 201.058594 15.496094 200.582031 16 200.242188 16.667969 C 199.90625 17.328125 199.734375 18.121094 199.726562 19.050781 Z M 199.710938 19.050781 " fill-opacity="1" fill-rule="nonzero"/><path fill="#1a1a71" d="M 179.722656 27.339844 C 180.710938 27.339844 181.535156 27.054688 182.199219 26.496094 C 182.863281 25.921875 183.359375 25.140625 183.699219 24.15625 C 184.046875 23.171875 184.214844 22.042969 184.214844 20.78125 C 184.214844 19.519531 184.039062 18.402344 183.699219 17.410156 C 183.363281 16.425781 182.863281 15.640625 182.199219 15.070312 C 181.535156 14.496094 180.710938 14.210938 179.722656 14.210938 C 178.730469 14.210938 177.886719 14.496094 177.203125 15.070312 C 176.535156 15.640625 176.027344 16.425781 175.679688 17.410156 C 175.34375 18.394531 175.175781 19.519531 175.175781 20.78125 C 175.175781 22.042969 175.34375 23.164062 175.679688 24.15625 C 176.027344 25.140625 176.527344 25.921875 177.203125 26.496094 C 177.886719 27.0625 178.722656 27.339844 179.722656 27.339844 Z M 179.695312 31.992188 C 177.519531 31.992188 175.644531 31.527344 174.058594 30.597656 C 172.484375 29.660156 171.265625 28.351562 170.402344 26.679688 C 169.546875 25 169.117188 23.042969 169.117188 20.828125 C 169.117188 18.617188 169.546875 16.640625 170.402344 14.96875 C 171.261719 13.289062 172.476562 11.980469 174.058594 11.046875 C 175.644531 10.109375 177.527344 9.636719 179.695312 9.636719 C 181.863281 9.636719 183.746094 10.109375 185.320312 11.046875 C 186.90625 11.980469 188.125 13.289062 188.988281 14.96875 C 189.84375 16.640625 190.273438 18.597656 190.273438 20.828125 C 190.273438 23.0625 189.84375 25 188.988281 26.679688 C 188.128906 28.351562 186.90625 29.660156 185.320312 30.597656 C 183.746094 31.527344 181.863281 31.992188 179.695312 31.992188 Z M 179.695312 31.992188 " fill-opacity="1" fill-rule="nonzero"/><path fill="#1a1a71" d="M 134.4375 31.570312 L 134.4375 9.917969 L 140.121094 9.917969 L 140.121094 13.734375 L 140.375 13.734375 C 140.824219 12.464844 141.570312 11.46875 142.613281 10.734375 C 143.65625 9.996094 144.910156 9.632812 146.363281 9.632812 C 147.816406 9.632812 149.09375 10.003906 150.125 10.746094 C 151.160156 11.480469 151.851562 12.472656 152.191406 13.734375 L 152.414062 13.734375 C 152.847656 12.492188 153.644531 11.5 154.789062 10.757812 C 155.949219 10.011719 157.316406 9.632812 158.886719 9.632812 C 160.894531 9.632812 162.523438 10.273438 163.769531 11.5625 C 165.027344 12.84375 165.65625 14.652344 165.65625 17.007812 L 165.65625 31.570312 L 159.710938 31.570312 L 159.710938 18.1875 C 159.710938 16.984375 159.394531 16.082031 158.761719 15.480469 C 158.125 14.882812 157.335938 14.578125 156.382812 14.578125 C 155.300781 14.578125 154.457031 14.929688 153.851562 15.625 C 153.242188 16.3125 152.941406 17.214844 152.941406 18.339844 L 152.941406 31.570312 L 147.164062 31.570312 L 147.164062 18.066406 C 147.164062 17.007812 146.863281 16.15625 146.253906 15.527344 C 145.660156 14.902344 144.867188 14.585938 143.890625 14.585938 C 143.230469 14.585938 142.632812 14.753906 142.097656 15.089844 C 141.574219 15.421875 141.160156 15.886719 140.851562 16.488281 C 140.542969 17.082031 140.390625 17.773438 140.390625 18.570312 L 140.390625 31.570312 L 134.433594 31.570312 Z M 134.4375 31.570312 " fill-opacity="1" fill-rule="nonzero"/><path fill="#1a1a71" d="M 98.890625 31.570312 L 98.890625 9.917969 L 104.574219 9.917969 L 104.574219 13.734375 L 104.828125 13.734375 C 105.277344 12.464844 106.019531 11.46875 107.066406 10.734375 C 108.109375 9.996094 109.359375 9.632812 110.8125 9.632812 C 112.265625 9.632812 113.546875 10.003906 114.574219 10.746094 C 115.613281 11.480469 116.304688 12.472656 116.644531 13.734375 L 116.867188 13.734375 C 117.300781 12.492188 118.097656 11.5 119.242188 10.757812 C 120.398438 10.011719 121.765625 9.632812 123.339844 9.632812 C 125.347656 9.632812 126.976562 10.273438 128.21875 11.5625 C 129.476562 12.84375 130.105469 14.652344 130.105469 17.007812 L 130.105469 31.570312 L 124.164062 31.570312 L 124.164062 18.1875 C 124.164062 16.984375 123.847656 16.082031 123.210938 15.480469 C 122.574219 14.882812 121.785156 14.578125 120.835938 14.578125 C 119.75 14.578125 118.90625 14.929688 118.304688 15.625 C 117.695312 16.3125 117.394531 17.214844 117.394531 18.339844 L 117.394531 31.570312 L 111.617188 31.570312 L 111.617188 18.066406 C 111.617188 17.007812 111.316406 16.15625 110.707031 15.527344 C 110.109375 14.902344 109.320312 14.585938 108.34375 14.585938 C 107.679688 14.585938 107.085938 14.753906 106.550781 15.089844 C 106.027344 15.421875 105.613281 15.886719 105.304688 16.488281 C 104.996094 17.082031 104.839844 17.773438 104.839844 18.570312 L 104.839844 31.570312 L 98.882812 31.570312 Z M 98.890625 31.570312 " fill-opacity="1" fill-rule="nonzero"/><path fill="#1a1a71" d="M 84.859375 27.339844 C 85.847656 27.339844 86.671875 27.054688 87.335938 26.496094 C 88 25.921875 88.492188 25.140625 88.835938 24.15625 C 89.183594 23.171875 89.351562 22.042969 89.351562 20.78125 C 89.351562 19.519531 89.175781 18.402344 88.835938 17.410156 C 88.5 16.425781 88 15.640625 87.335938 15.070312 C 86.671875 14.496094 85.847656 14.210938 84.859375 14.210938 C 83.867188 14.210938 83.023438 14.496094 82.339844 15.070312 C 81.671875 15.640625 81.164062 16.425781 80.816406 17.410156 C 80.480469 18.394531 80.3125 19.519531 80.3125 20.78125 C 80.3125 22.042969 80.480469 23.164062 80.816406 24.15625 C 81.164062 25.140625 81.664062 25.921875 82.339844 26.496094 C 83.023438 27.0625 83.859375 27.339844 84.859375 27.339844 Z M 84.832031 31.992188 C 82.65625 31.992188 80.78125 31.527344 79.195312 30.597656 C 77.621094 29.660156 76.402344 28.351562 75.539062 26.679688 C 74.683594 25 74.253906 23.042969 74.253906 20.828125 C 74.253906 18.617188 74.683594 16.640625 75.539062 14.96875 C 76.398438 13.289062 77.613281 11.980469 79.195312 11.046875 C 80.78125 10.109375 82.664062 9.636719 84.832031 9.636719 C 87 9.636719 88.882812 10.109375 90.457031 11.046875 C 92.042969 11.980469 93.261719 13.289062 94.125 14.96875 C 94.980469 16.640625 95.410156 18.597656 95.410156 20.828125 C 95.410156 23.0625 94.980469 25 94.125 26.679688 C 93.265625 28.351562 92.042969 29.660156 90.457031 30.597656 C 88.882812 31.527344 87 31.992188 84.832031 31.992188 Z M 84.832031 31.992188 " fill-opacity="1" fill-rule="nonzero"/><path fill="#1a1a71" d="M 71.28125 12.804688 L 65.15625 12.804688 C 65.042969 12.011719 64.8125 11.296875 64.472656 10.675781 C 64.125 10.046875 63.683594 9.507812 63.140625 9.070312 C 62.597656 8.628906 61.976562 8.285156 61.265625 8.058594 C 60.5625 7.820312 59.804688 7.707031 58.984375 7.707031 C 57.496094 7.707031 56.203125 8.078125 55.105469 8.820312 C 54.007812 9.554688 53.152344 10.628906 52.550781 12.039062 C 51.941406 13.441406 51.640625 15.140625 51.640625 17.144531 C 51.640625 19.148438 51.941406 20.933594 52.550781 22.332031 C 53.164062 23.734375 54.023438 24.785156 55.125 25.5 C 56.230469 26.214844 57.503906 26.574219 58.949219 26.574219 C 59.757812 26.574219 60.507812 26.464844 61.207031 26.25 C 61.910156 26.035156 62.523438 25.71875 63.066406 25.304688 C 63.609375 24.882812 64.058594 24.367188 64.414062 23.769531 C 64.773438 23.167969 65.027344 22.480469 65.167969 21.710938 L 71.292969 21.738281 C 71.132812 23.058594 70.738281 24.339844 70.101562 25.574219 C 69.480469 26.796875 68.636719 27.890625 67.570312 28.859375 C 66.519531 29.820312 65.253906 30.582031 63.796875 31.148438 C 62.34375 31.699219 60.695312 31.976562 58.855469 31.976562 C 56.296875 31.976562 54.015625 31.398438 52 30.230469 C 49.992188 29.0625 48.410156 27.375 47.242188 25.171875 C 46.082031 22.964844 45.507812 20.289062 45.507812 17.152344 C 45.507812 14.015625 46.09375 11.320312 47.265625 9.117188 C 48.445312 6.910156 50.039062 5.222656 52.054688 4.070312 C 54.070312 2.902344 56.339844 2.324219 58.855469 2.324219 C 60.515625 2.324219 62.054688 2.558594 63.476562 3.03125 C 64.902344 3.503906 66.167969 4.183594 67.265625 5.089844 C 68.363281 5.980469 69.257812 7.078125 69.949219 8.375 C 70.652344 9.667969 71.09375 11.152344 71.292969 12.828125 Z M 71.28125 12.804688 " fill-opacity="1" fill-rule="nonzero"/></g></g></g></svg>