<svg xmlns="http://www.w3.org/2000/svg" xmlns:xlink="http://www.w3.org/1999/xlink" width="433" zoomAndPan="magnify" viewBox="0 0 324.75 54.75" height="73" preserveAspectRatio="xMidYMid meet" version="1.0"><defs><clipPath id="e93ab31ec3"><path d="M 38 0 L 288 0 L 288 54.5 L 38 54.5 Z M 38 0 " clip-rule="nonzero"/></clipPath><clipPath id="33556259a2"><path d="M 20 0.765625 L 55 0.765625 L 55 21 L 20 21 Z M 20 0.765625 " clip-rule="nonzero"/></clipPath><clipPath id="fc7d18f430"><rect x="0" width="250" y="0" height="55"/></clipPath></defs><g clip-path="url(#e93ab31ec3)"><g transform="matrix(1, 0, 0, 1, 38, -0.000000000000013323)"><g clip-path="url(#fc7d18f430)"><path fill="#0f0f1c" d="M 73.210938 41.632812 L 73.210938 25.3125 L 70.789062 25.3125 L 70.789062 20.480469 L 75.769531 20.480469 L 75.769531 24.535156 L 77.246094 24.535156 C 77.804688 23.148438 78.699219 22.089844 79.929688 21.363281 C 81.15625 20.632812 82.5625 20.269531 84.15625 20.269531 L 85.914062 20.269531 L 85.914062 24.394531 L 83.945312 24.394531 C 81.957031 24.394531 80.453125 24.972656 79.441406 26.121094 C 78.421875 27.273438 77.914062 28.808594 77.914062 30.742188 L 77.914062 41.632812 Z M 73.210938 41.632812 " fill-opacity="1" fill-rule="nonzero"/><path fill="#0f0f1c" d="M 94.503906 42.019531 C 92.09375 42.019531 90.191406 41.421875 88.800781 40.222656 C 87.410156 39.027344 86.714844 37.449219 86.714844 35.5 C 86.714844 33.546875 87.417969 31.867188 88.820312 30.738281 C 90.222656 29.609375 92.234375 29.046875 94.855469 29.046875 L 101.519531 29.046875 L 101.519531 28.167969 C 101.519531 25.347656 99.929688 23.9375 96.75 23.9375 C 94.058594 23.9375 92.445312 24.910156 91.90625 26.863281 L 87.136719 26.863281 C 87.535156 24.675781 88.570312 23 90.242188 21.820312 C 91.914062 20.648438 94.09375 20.058594 96.785156 20.058594 C 99.804688 20.058594 102.105469 20.757812 103.699219 22.15625 C 105.289062 23.550781 106.085938 25.582031 106.085938 28.234375 L 106.085938 36.800781 L 108.367188 36.800781 L 108.367188 41.632812 L 103.421875 41.632812 L 103.421875 38.28125 L 101.945312 38.28125 C 101.222656 39.457031 100.238281 40.375 99 41.03125 C 97.757812 41.6875 96.261719 42.015625 94.507812 42.015625 Z M 95.207031 38.285156 C 96.398438 38.285156 97.472656 38.050781 98.4375 37.578125 C 99.394531 37.109375 100.148438 36.480469 100.699219 35.695312 C 101.25 34.910156 101.523438 34.03125 101.523438 33.070312 L 101.523438 32.402344 L 95.101562 32.402344 C 92.527344 32.402344 91.242188 33.363281 91.242188 35.289062 C 91.242188 36.230469 91.589844 36.964844 92.292969 37.492188 C 92.996094 38.019531 93.964844 38.285156 95.207031 38.285156 Z M 95.207031 38.285156 " fill-opacity="1" fill-rule="nonzero"/><path fill="#0f0f1c" d="M 112.1875 41.632812 L 112.1875 25.3125 L 109.769531 25.3125 L 109.769531 20.484375 L 114.75 20.484375 L 114.75 23.832031 L 116.222656 23.832031 C 116.96875 22.636719 117.96875 21.714844 119.222656 21.0625 C 120.472656 20.417969 121.988281 20.09375 123.765625 20.09375 C 126.574219 20.09375 128.765625 20.886719 130.34375 22.472656 C 131.921875 24.058594 132.714844 26.183594 132.714844 28.835938 L 132.714844 41.632812 L 127.941406 41.632812 L 127.941406 29.683594 C 127.941406 27.945312 127.480469 26.617188 126.554688 25.699219 C 125.632812 24.78125 124.269531 24.324219 122.46875 24.324219 C 120.667969 24.324219 119.300781 24.78125 118.363281 25.699219 C 117.429688 26.617188 116.960938 27.941406 116.960938 29.683594 L 116.960938 41.632812 Z M 112.1875 41.632812 " fill-opacity="1" fill-rule="nonzero"/><path fill="#0f0f1c" d="M 145.976562 42.058594 C 143.847656 42.058594 142.03125 41.605469 140.535156 40.703125 C 139.039062 39.800781 137.902344 38.523438 137.132812 36.875 C 136.363281 35.234375 135.976562 33.292969 135.976562 31.058594 C 135.976562 28.828125 136.355469 26.882812 137.113281 25.222656 C 137.875 23.566406 138.976562 22.292969 140.410156 21.398438 C 141.851562 20.507812 143.5625 20.058594 145.550781 20.058594 C 147.183594 20.058594 148.589844 20.371094 149.757812 20.988281 C 150.929688 21.613281 151.832031 22.5 152.464844 23.652344 L 152.601562 23.652344 L 152.601562 12.023438 L 157.371094 12.023438 L 157.371094 36.804688 L 159.757812 36.804688 L 159.757812 41.636719 L 154.8125 41.636719 L 154.8125 38.285156 L 153.339844 38.285156 C 152.613281 39.507812 151.636719 40.441406 150.410156 41.085938 C 149.179688 41.734375 147.703125 42.058594 145.972656 42.058594 Z M 146.78125 37.933594 C 148.5625 37.933594 149.972656 37.425781 151.027344 36.417969 C 152.078125 35.410156 152.605469 34.046875 152.605469 32.328125 L 152.605469 29.789062 C 152.605469 28.074219 152.078125 26.710938 151.027344 25.699219 C 149.972656 24.691406 148.558594 24.183594 146.78125 24.183594 C 144.839844 24.183594 143.351562 24.796875 142.308594 26.015625 C 141.269531 27.242188 140.75 28.921875 140.75 31.058594 C 140.75 33.199219 141.269531 34.878906 142.308594 36.101562 C 143.351562 37.324219 144.839844 37.933594 146.78125 37.933594 Z M 146.78125 37.933594 " fill-opacity="1" fill-rule="nonzero"/><path fill="#0f0f1c" d="M 169.617188 42.019531 C 167.207031 42.019531 165.304688 41.421875 163.914062 40.222656 C 162.523438 39.027344 161.828125 37.449219 161.828125 35.5 C 161.828125 33.546875 162.53125 31.867188 163.933594 30.738281 C 165.335938 29.609375 167.34375 29.046875 169.964844 29.046875 L 176.628906 29.046875 L 176.628906 28.167969 C 176.628906 25.347656 175.039062 23.9375 171.859375 23.9375 C 169.167969 23.9375 167.554688 24.910156 167.019531 26.863281 L 162.25 26.863281 C 162.648438 24.675781 163.679688 23 165.355469 21.820312 C 167.027344 20.648438 169.207031 20.058594 171.898438 20.058594 C 174.917969 20.058594 177.21875 20.757812 178.8125 22.15625 C 180.402344 23.550781 181.199219 25.582031 181.199219 28.234375 L 181.199219 36.800781 L 183.480469 36.800781 L 183.480469 41.632812 L 178.53125 41.632812 L 178.53125 38.28125 L 177.058594 38.28125 C 176.332031 39.457031 175.351562 40.375 174.113281 41.03125 C 172.871094 41.6875 171.375 42.015625 169.621094 42.015625 Z M 170.320312 38.285156 C 171.511719 38.285156 172.585938 38.050781 173.546875 37.578125 C 174.507812 37.109375 175.261719 36.480469 175.8125 35.695312 C 176.359375 34.910156 176.632812 34.03125 176.632812 33.070312 L 176.632812 32.402344 L 170.214844 32.402344 C 167.640625 32.402344 166.351562 33.363281 166.351562 35.289062 C 166.351562 36.230469 166.703125 36.964844 167.40625 37.492188 C 168.109375 38.019531 169.078125 38.285156 170.320312 38.285156 Z M 170.320312 38.285156 " fill-opacity="1" fill-rule="nonzero"/><path fill="#0f0f1c" d="M 187.308594 41.632812 L 187.308594 25.3125 L 184.886719 25.3125 L 184.886719 20.484375 L 189.867188 20.484375 L 189.867188 23.832031 L 191.480469 23.832031 C 192.132812 22.636719 193.050781 21.714844 194.234375 21.0625 C 195.414062 20.417969 196.847656 20.09375 198.53125 20.09375 C 200.214844 20.09375 201.613281 20.410156 202.792969 21.046875 C 203.972656 21.679688 204.929688 22.632812 205.65625 23.902344 L 205.757812 23.902344 C 207.304688 21.363281 209.710938 20.09375 212.988281 20.09375 C 215.632812 20.09375 217.714844 20.863281 219.230469 22.402344 C 220.75 23.941406 221.515625 26.039062 221.515625 28.695312 L 221.515625 41.628906 L 216.742188 41.628906 L 216.742188 29.539062 C 216.742188 26.0625 215.082031 24.324219 211.761719 24.324219 C 208.445312 24.324219 206.78125 26.066406 206.78125 29.539062 L 206.78125 41.628906 L 202.011719 41.628906 L 202.011719 29.539062 C 202.011719 26.0625 200.339844 24.324219 196.992188 24.324219 C 195.382812 24.324219 194.15625 24.765625 193.328125 25.644531 C 192.5 26.527344 192.085938 27.824219 192.085938 29.539062 L 192.085938 41.628906 L 187.3125 41.628906 Z M 187.308594 41.632812 " fill-opacity="1" fill-rule="nonzero"/><path fill="#0f0f1c" d="M 234.667969 42.027344 C 231.859375 42.027344 229.679688 41.261719 228.121094 39.734375 C 226.566406 38.207031 225.789062 36.125 225.789062 33.496094 L 225.789062 20.488281 L 230.558594 20.488281 L 230.558594 32.542969 C 230.558594 34.285156 231 35.589844 231.890625 36.472656 C 232.78125 37.355469 234.101562 37.796875 235.859375 37.796875 C 237.613281 37.796875 239.058594 37.328125 240.050781 36.386719 C 241.042969 35.445312 241.542969 34.132812 241.542969 32.441406 L 241.542969 20.488281 L 246.3125 20.488281 L 246.3125 36.808594 L 248.734375 36.808594 L 248.734375 41.640625 L 243.785156 41.640625 L 243.785156 38.292969 L 242.3125 38.292969 C 241.515625 39.515625 240.5 40.441406 239.261719 41.074219 C 238.019531 41.710938 236.488281 42.027344 234.664062 42.027344 Z M 234.667969 42.027344 " fill-opacity="1" fill-rule="nonzero"/><path fill="#1e3cff" d="M 36.023438 43.46875 L 19.035156 53.324219 L 2.046875 43.46875 L 19.035156 33.613281 Z M 36.023438 43.46875 " fill-opacity="1" fill-rule="nonzero"/><path fill="#1e3cff" d="M 19.980469 12.261719 L 19.980469 31.972656 C 25.640625 35.257812 31.304688 38.542969 36.96875 41.828125 L 36.96875 22.117188 C 31.304688 18.832031 25.640625 15.546875 19.980469 12.261719 Z M 32.984375 34.28125 C 32.121094 33.78125 31.6875 33.527344 30.820312 33.027344 L 30.820312 28.066406 C 30.820312 27.402344 30.667969 26.800781 30.355469 26.277344 C 30.046875 25.75 29.597656 25.316406 29.007812 24.972656 C 28.417969 24.632812 27.96875 24.542969 27.660156 24.710938 C 27.355469 24.878906 27.195312 25.296875 27.195312 25.964844 L 27.195312 30.925781 C 26.332031 30.425781 25.898438 30.171875 25.035156 29.667969 L 25.035156 23.078125 C 24.605469 22.832031 24.390625 22.703125 23.964844 22.457031 L 23.964844 19.976562 C 24.839844 20.484375 25.277344 20.738281 26.15625 21.25 L 26.15625 22.730469 L 26.703125 23.050781 C 27.007812 22.699219 27.390625 22.519531 27.851562 22.496094 C 28.3125 22.476562 28.882812 22.664062 29.570312 23.0625 C 30.660156 23.691406 31.496094 24.527344 32.09375 25.5625 C 32.691406 26.597656 32.988281 27.691406 32.988281 28.855469 L 32.988281 34.28125 Z M 32.984375 34.28125 " fill-opacity="1" fill-rule="nonzero"/><path fill="#1e3cff" d="M 1.101562 22.117188 L 1.101562 41.828125 C 6.765625 38.542969 12.429688 35.257812 18.089844 31.972656 L 18.089844 12.261719 C 12.429688 15.546875 6.765625 18.832031 1.101562 22.117188 Z M 12.558594 22.917969 C 12.253906 23.09375 12.105469 23.179688 11.800781 23.355469 C 11.121094 23.75 10.628906 24.261719 10.308594 24.890625 C 9.992188 25.519531 9.835938 26.195312 9.835938 26.917969 L 9.835938 31.5 C 8.984375 31.996094 8.558594 32.242188 7.710938 32.734375 L 7.710938 26.140625 C 7.28125 26.386719 7.066406 26.511719 6.640625 26.761719 L 6.640625 24.277344 C 7.515625 23.769531 7.953125 23.515625 8.832031 23.007812 L 8.832031 24.792969 C 9.050781 24.667969 9.160156 24.601562 9.378906 24.472656 C 9.585938 23.71875 9.917969 23.050781 10.367188 22.476562 C 10.820312 21.90625 11.324219 21.453125 11.890625 21.125 C 12.15625 20.96875 12.292969 20.890625 12.558594 20.734375 Z M 12.558594 22.917969 " fill-opacity="1" fill-rule="nonzero"/><path fill="#1e3cff" d="M 48.242188 26.277344 C 47.898438 26.097656 47.433594 26.175781 46.851562 26.515625 C 46.191406 26.898438 45.695312 27.414062 45.363281 28.058594 C 45.03125 28.703125 44.871094 29.421875 44.871094 30.207031 C 44.871094 30.992188 45.035156 31.519531 45.363281 31.78125 C 45.695312 32.042969 46.191406 31.980469 46.851562 31.597656 C 47.433594 31.261719 47.898438 30.800781 48.242188 30.222656 C 48.585938 29.648438 48.753906 29.027344 48.753906 28.363281 L 48.753906 27.546875 C 48.753906 26.882812 48.585938 26.457031 48.242188 26.28125 Z M 48.242188 26.277344 " fill-opacity="1" fill-rule="nonzero"/><path fill="#1e3cff" d="M 38.855469 22.117188 L 38.855469 41.824219 C 44.519531 38.539062 50.179688 35.257812 55.84375 31.972656 L 55.84375 12.261719 C 50.179688 15.546875 44.519531 18.832031 38.855469 22.117188 Z M 51.988281 30.613281 C 51.113281 31.121094 50.675781 31.375 49.800781 31.882812 L 49.800781 30.402344 C 49.582031 30.527344 49.472656 30.589844 49.253906 30.71875 C 48.972656 31.40625 48.601562 32.027344 48.140625 32.589844 C 47.675781 33.152344 47.113281 33.625 46.449219 34.007812 C 45.652344 34.46875 44.972656 34.667969 44.414062 34.601562 C 43.855469 34.53125 43.425781 34.222656 43.140625 33.679688 C 42.851562 33.136719 42.710938 32.394531 42.710938 31.457031 C 42.710938 30.523438 42.847656 29.601562 43.125 28.726562 C 43.40625 27.855469 43.808594 27.070312 44.34375 26.371094 C 44.878906 25.675781 45.519531 25.109375 46.265625 24.671875 C 46.839844 24.339844 47.335938 24.175781 47.746094 24.183594 C 48.15625 24.191406 48.480469 24.359375 48.703125 24.679688 C 48.726562 24.667969 48.734375 24.660156 48.757812 24.648438 L 48.757812 19.777344 C 49.621094 19.277344 50.054688 19.023438 50.921875 18.523438 L 50.921875 28.746094 C 51.347656 28.5 51.5625 28.375 51.988281 28.128906 Z M 51.988281 30.613281 " fill-opacity="1" fill-rule="nonzero"/><g clip-path="url(#33556259a2)"><path fill="#1e3cff" d="M 54.898438 10.617188 L 37.910156 20.472656 L 20.921875 10.617188 L 37.910156 0.765625 Z M 54.898438 10.617188 " fill-opacity="1" fill-rule="nonzero"/></g></g></g></g></svg>