<svg xmlns="http://www.w3.org/2000/svg" xmlns:xlink="http://www.w3.org/1999/xlink" width="433" zoomAndPan="magnify" viewBox="0 0 324.75 54.75" height="73" preserveAspectRatio="xMidYMid meet" version="1.0"><defs><clipPath id="1563920f01"><path d="M 37 0 L 288 0 L 288 54.5 L 37 54.5 Z M 37 0 " clip-rule="nonzero"/></clipPath><clipPath id="3b8b81dcec"><path d="M 204 0.757812 L 215 0.757812 L 215 39 L 204 39 Z M 204 0.757812 " clip-rule="nonzero"/></clipPath><clipPath id="2468f2f1f1"><path d="M 219 0.757812 L 249 0.757812 L 249 40 L 219 40 Z M 219 0.757812 " clip-rule="nonzero"/></clipPath><clipPath id="481fe384ff"><path d="M 40 15 L 71 15 L 71 53.523438 L 40 53.523438 Z M 40 15 " clip-rule="nonzero"/></clipPath><clipPath id="916032d568"><path d="M 1.015625 12 L 17 12 L 17 34 L 1.015625 34 Z M 1.015625 12 " clip-rule="nonzero"/></clipPath><clipPath id="15e884a626"><rect x="0" width="251" y="0" height="55"/></clipPath></defs><g clip-path="url(#1563920f01)"><g transform="matrix(1, 0, 0, 1, 37, -0.000000000000013323)"><g clip-path="url(#15e884a626)"><path fill="#1a1a1a" d="M 191.203125 7.792969 C 191.203125 6.835938 191.523438 5.875 192.328125 5.074219 C 192.972656 4.277344 193.933594 3.957031 195.058594 3.957031 C 196.183594 3.957031 197.148438 4.277344 197.792969 5.074219 C 198.59375 5.875 198.917969 6.675781 198.917969 7.792969 C 198.917969 8.914062 198.59375 9.871094 197.792969 10.511719 C 196.988281 11.3125 196.183594 11.632812 195.058594 11.632812 C 193.933594 11.632812 193.132812 11.3125 192.328125 10.511719 C 191.523438 9.710938 191.203125 8.753906 191.203125 7.792969 Z M 192.007812 16.90625 L 197.953125 15.789062 L 197.953125 39.453125 L 192.007812 39.453125 Z M 192.007812 16.90625 " fill-opacity="1" fill-rule="nonzero"/><path fill="#1a1a1a" d="M 185.898438 15.148438 L 179.953125 15.148438 L 179.953125 28.582031 C 179.953125 31.300781 177.703125 33.699219 174.8125 33.699219 C 172.078125 33.699219 169.667969 31.460938 169.667969 28.582031 L 169.667969 15.148438 L 163.722656 15.148438 L 163.722656 28.582031 C 163.722656 34.65625 168.703125 39.613281 174.8125 39.613281 C 180.917969 39.613281 185.898438 34.65625 185.898438 28.582031 Z M 185.898438 15.148438 " fill-opacity="1" fill-rule="nonzero"/><path fill="#1a1a1a" d="M 105.359375 26.023438 L 105.359375 39.453125 L 111.304688 39.453125 L 111.304688 26.023438 C 111.304688 23.304688 113.554688 21.066406 116.285156 21.066406 C 119.019531 21.066406 121.429688 23.304688 121.429688 26.183594 L 121.429688 39.613281 L 127.375 39.613281 L 127.375 26.183594 C 127.375 20.105469 122.394531 15.148438 116.285156 15.148438 C 110.179688 15.148438 105.359375 19.945312 105.359375 26.023438 Z M 105.359375 26.023438 " fill-opacity="1" fill-rule="nonzero"/><g clip-path="url(#3b8b81dcec)"><path fill="#1a1a1a" d="M 214.183594 34.015625 C 213.859375 34.015625 213.539062 34.015625 213.21875 34.015625 C 211.933594 34.015625 210.96875 33.695312 210.648438 33.054688 C 210.324219 32.417969 210.003906 31.457031 210.003906 30.496094 L 210.003906 0.757812 L 204.21875 1.875 L 204.21875 30.496094 C 204.21875 31.617188 204.378906 32.738281 204.539062 33.695312 C 204.703125 34.65625 205.183594 35.613281 205.664062 36.414062 C 206.308594 37.214844 206.949219 37.851562 208.078125 38.171875 C 209.039062 38.652344 210.324219 38.8125 211.933594 38.8125 C 212.574219 38.8125 213.21875 38.8125 214.023438 38.652344 L 214.023438 34.015625 Z M 214.183594 34.015625 " fill-opacity="1" fill-rule="nonzero"/></g><g clip-path="url(#2468f2f1f1)"><path fill="#1a1a1a" d="M 248.730469 34.015625 C 247.445312 34.015625 246.484375 33.695312 246.160156 33.054688 C 245.839844 32.417969 245.519531 31.457031 245.519531 30.496094 L 245.519531 0.757812 L 239.734375 1.875 L 239.734375 15.789062 C 239.089844 15.46875 238.445312 15.148438 237.644531 14.828125 C 236.039062 14.1875 234.429688 13.867188 232.5 13.867188 C 230.734375 13.867188 228.964844 14.1875 227.359375 14.828125 C 225.753906 15.46875 224.464844 16.265625 223.179688 17.386719 C 222.054688 18.503906 221.09375 19.785156 220.449219 21.382812 C 219.804688 22.984375 219.484375 24.582031 219.484375 26.5 C 219.484375 28.417969 219.804688 30.019531 220.449219 31.617188 C 221.09375 33.214844 222.054688 34.496094 223.179688 35.613281 C 224.304688 36.734375 225.753906 37.53125 227.359375 38.171875 C 228.964844 38.8125 230.574219 39.132812 232.5 39.132812 C 234.269531 39.132812 236.039062 38.8125 237.644531 38.171875 C 238.125 38.011719 238.609375 37.691406 239.089844 37.53125 L 238.929688 37.375 C 238.285156 36.574219 237.964844 35.773438 237.804688 34.65625 C 237.644531 33.855469 237.484375 33.054688 237.484375 32.097656 C 237 32.578125 236.359375 33.054688 235.714844 33.375 C 234.910156 33.855469 233.789062 34.015625 232.664062 34.015625 C 231.535156 34.015625 230.414062 33.855469 229.609375 33.375 C 228.804688 32.894531 228 32.257812 227.519531 31.617188 C 226.878906 30.816406 226.554688 30.019531 226.234375 29.21875 C 225.914062 28.257812 225.753906 27.300781 225.753906 26.5 C 225.753906 25.542969 225.914062 24.742188 226.234375 23.78125 C 226.554688 22.824219 226.878906 22.023438 227.519531 21.382812 C 228.160156 20.585938 228.804688 20.105469 229.609375 19.625 C 230.414062 19.144531 231.535156 18.984375 232.664062 18.984375 C 233.789062 18.984375 234.910156 19.144531 235.714844 19.625 C 236.519531 20.105469 237.320312 20.585938 237.804688 21.382812 C 238.285156 22.183594 238.769531 22.984375 239.089844 23.78125 C 239.25 24.101562 239.25 24.742188 239.25 25.222656 L 239.25 30.496094 C 239.25 31.617188 239.410156 32.738281 239.574219 33.695312 C 239.734375 34.65625 240.214844 35.613281 240.695312 36.414062 C 241.339844 37.214844 241.984375 37.851562 243.109375 38.171875 C 244.070312 38.652344 245.359375 38.8125 246.964844 38.8125 C 247.445312 38.8125 248.25 38.8125 248.894531 38.652344 L 248.894531 34.015625 C 249.054688 34.015625 248.894531 34.015625 248.730469 34.015625 Z M 248.730469 34.015625 " fill-opacity="1" fill-rule="nonzero"/></g><g clip-path="url(#481fe384ff)"><path fill="#1a1a1a" d="M 41.199219 20.265625 C 42.484375 20.265625 43.449219 20.585938 43.773438 21.226562 C 44.09375 21.863281 44.414062 22.824219 44.414062 23.785156 L 44.414062 53.523438 L 50.199219 52.40625 L 50.199219 38.492188 C 50.84375 38.8125 51.484375 39.132812 52.289062 39.453125 C 53.894531 40.09375 55.503906 40.414062 57.429688 40.414062 C 59.199219 40.414062 60.964844 40.09375 62.574219 39.453125 C 64.179688 38.8125 65.464844 38.015625 66.75 36.894531 C 67.875 35.777344 68.839844 34.496094 69.484375 32.898438 C 70.125 31.296875 70.449219 29.699219 70.449219 27.78125 C 70.449219 25.863281 70.125 24.261719 69.484375 22.664062 C 68.839844 21.066406 67.875 19.785156 66.75 18.667969 C 65.625 17.546875 64.179688 16.75 62.574219 16.109375 C 60.964844 15.46875 59.359375 15.148438 57.429688 15.148438 C 55.664062 15.148438 53.894531 15.46875 52.289062 16.109375 C 51.804688 16.269531 51.324219 16.589844 50.84375 16.75 L 51.003906 16.910156 C 51.644531 17.707031 51.96875 18.507812 52.128906 19.625 C 52.289062 20.425781 52.449219 21.226562 52.449219 22.183594 C 52.929688 21.703125 53.574219 21.226562 54.21875 20.90625 C 55.019531 20.425781 56.144531 20.265625 57.269531 20.265625 C 58.394531 20.265625 59.519531 20.425781 60.324219 20.90625 C 61.125 21.386719 61.929688 22.023438 62.414062 22.664062 C 63.054688 23.464844 63.375 24.261719 63.699219 25.0625 C 64.019531 26.023438 64.179688 26.980469 64.179688 27.78125 C 64.179688 28.742188 64.019531 29.539062 63.699219 30.5 C 63.375 31.457031 63.054688 32.257812 62.414062 32.898438 C 61.769531 33.695312 61.125 34.175781 60.324219 34.65625 C 59.519531 35.136719 58.394531 35.296875 57.269531 35.296875 C 56.144531 35.296875 55.019531 35.136719 54.21875 34.65625 C 53.414062 34.175781 52.609375 33.695312 52.128906 32.898438 C 51.644531 32.097656 51.164062 31.296875 50.84375 30.5 C 50.683594 30.179688 50.683594 29.539062 50.683594 29.058594 L 50.683594 23.785156 C 50.683594 22.664062 50.519531 21.546875 50.359375 20.585938 C 50.199219 19.625 49.71875 18.667969 49.234375 17.867188 C 48.59375 17.066406 47.949219 16.429688 46.824219 16.109375 C 45.859375 15.628906 44.574219 15.46875 42.96875 15.46875 C 42.484375 15.46875 41.683594 15.46875 41.039062 15.628906 L 41.039062 20.265625 C 40.878906 20.265625 41.039062 20.265625 41.199219 20.265625 Z M 41.199219 20.265625 " fill-opacity="1" fill-rule="nonzero"/></g><path fill="#1a1a1a" d="M 99.210938 22.34375 C 98.570312 20.746094 97.765625 19.46875 96.800781 18.347656 C 95.835938 17.230469 94.550781 16.429688 93.105469 15.949219 C 91.660156 15.46875 90.214844 15.148438 88.445312 15.148438 C 86.679688 15.148438 85.070312 15.46875 83.464844 16.109375 C 81.855469 16.75 80.570312 17.546875 79.445312 18.667969 C 78.320312 19.785156 77.359375 21.066406 76.714844 22.664062 C 76.070312 24.265625 75.75 26.023438 75.75 27.941406 C 75.75 29.859375 76.070312 31.621094 76.714844 33.21875 C 77.359375 34.816406 78.320312 36.097656 79.445312 37.054688 C 80.570312 38.175781 81.855469 38.972656 83.464844 39.453125 C 85.070312 39.933594 86.679688 40.253906 88.605469 40.253906 C 91.660156 40.253906 94.875 39.453125 97.765625 36.894531 L 94.550781 33.058594 C 94.070312 33.539062 92.625 34.496094 92.300781 34.65625 C 91.339844 35.136719 90.050781 35.457031 88.605469 35.457031 C 87.804688 35.457031 86.839844 35.296875 86.195312 34.976562 C 85.390625 34.65625 84.75 34.335938 84.105469 33.699219 C 83.464844 33.21875 82.980469 32.578125 82.660156 31.9375 C 82.339844 31.300781 82.019531 30.5 82.019531 29.539062 C 81.855469 27.300781 82.019531 25.222656 82.019531 25.222656 C 82.179688 23.464844 82.820312 22.183594 84.105469 21.066406 C 85.390625 19.945312 86.839844 19.46875 88.605469 19.46875 C 89.570312 19.46875 90.375 19.628906 91.175781 19.945312 C 91.820312 20.265625 92.464844 20.746094 92.945312 21.226562 C 93.425781 21.707031 93.75 22.34375 93.910156 22.984375 C 94.070312 23.625 94.230469 24.425781 94.230469 25.222656 L 83.945312 25.222656 L 83.945312 29.539062 L 100.015625 29.539062 C 100.015625 29.222656 100.015625 29.0625 100.015625 28.742188 C 100.015625 28.421875 100.015625 28.261719 100.015625 27.941406 C 100.175781 25.863281 99.855469 23.945312 99.210938 22.34375 Z M 99.210938 22.34375 " fill-opacity="1" fill-rule="nonzero"/><path fill="#1a1a1a" d="M 155.285156 22.339844 C 153.140625 19.875 146.375 20.039062 146.375 20.039062 L 141.589844 20.039062 L 141.589844 25.621094 L 147.363281 25.621094 C 148.847656 25.621094 151.984375 25.621094 151.984375 29.5625 C 151.984375 33.996094 148.519531 33.996094 148.023438 33.996094 L 139.113281 33.996094 L 139.113281 12.160156 L 144.722656 12.160156 C 145.21875 12.160156 145.550781 12.324219 146.042969 12.488281 C 146.375 12.652344 146.867188 12.980469 147.035156 13.308594 C 147.199219 13.636719 147.527344 14.128906 147.695312 14.457031 C 147.859375 14.949219 148.023438 15.441406 148.023438 15.933594 C 148.023438 16.425781 147.859375 16.917969 147.695312 17.414062 C 147.695312 17.414062 147.695312 17.578125 147.527344 17.578125 C 151.324219 17.742188 152.972656 18.398438 154.128906 18.890625 C 154.296875 18.234375 154.460938 17.25 154.460938 15.605469 C 154.460938 13.800781 153.964844 6.410156 144.558594 6.410156 L 132.675781 6.410156 L 132.675781 39.578125 L 148.023438 39.578125 C 149.507812 39.578125 150.828125 39.414062 151.984375 39.085938 C 153.304688 38.757812 154.296875 38.265625 155.285156 37.445312 C 156.273438 36.621094 156.933594 35.636719 157.59375 34.488281 C 158.089844 33.175781 158.417969 31.695312 158.417969 29.890625 C 158.417969 27.59375 157.59375 24.472656 155.285156 22.339844 Z M 155.285156 22.339844 " fill-opacity="1" fill-rule="nonzero"/><path fill="#1a1a1a" d="M 7.964844 10.527344 C 14.359375 4.972656 24.058594 5.085938 30.335938 11.03125 C 36.972656 17.320312 37.230469 27.804688 30.898438 34.425781 C 24.789062 40.808594 14.746094 41.269531 8.0625 35.59375 L 12.859375 30.582031 C 16.75 33.640625 22.394531 33.304688 25.878906 29.667969 C 29.566406 25.808594 29.429688 19.699219 25.554688 16.027344 C 22.054688 12.714844 16.75 12.507812 13.019531 15.3125 Z M 7.964844 10.527344 " fill-opacity="1" fill-rule="nonzero"/><g clip-path="url(#916032d568)"><path fill="#01db83" d="M 11.695312 17.996094 L 6.300781 12.628906 L 1.042969 17.816406 L 6.4375 23.183594 L 1.023438 28.53125 L 6.261719 33.738281 L 11.675781 28.390625 L 16.933594 23.203125 Z M 11.695312 17.996094 " fill-opacity="1" fill-rule="nonzero"/></g></g></g></g></svg>