<svg width="146" height="90" viewBox="0 0 146 90" fill="none" xmlns="http://www.w3.org/2000/svg">
<path d="M114.939 0V11.6646H30.9741V0H9.43806V85.1205H30.9741V90H114.939V85.1205H136.475V0H114.939Z" fill="#E2FEA5"/>
<path d="M9.43799 38.7187H0.00012207V53.1132H9.43799V38.7187Z" fill="#E2FEA5"/>
<path d="M9.43799 58.5069H0.00012207V72.9014H9.43799V58.5069Z" fill="#E2FEA5"/>
<path d="M146 38.7187H136.562V53.1132H146V38.7187Z" fill="#E2FEA5"/>
<path d="M146 58.507H136.562V72.9014H146V58.507Z" fill="#E2FEA5"/>
<path d="M86.083 72.6245V63.2414H76.7231V32.7777H86.083V23.2891H116.237V32.7777H125.701V63.2414H116.237V72.6245H86.083ZM88.1644 60.8215H114.156V35.0987H88.1644V60.8215Z" fill="black"/>
<path d="M29.7495 72.6245V63.2414H20.3896V32.7777H29.7495V23.2891H59.9038V32.7777H69.3677V63.2414H59.9038V72.6245H29.7495ZM31.8309 60.8215H57.8289V35.0987H31.8309V60.8215Z" fill="black"/>
</svg>
