<svg width="140" height="90" viewBox="0 0 140 90" fill="none" xmlns="http://www.w3.org/2000/svg">
<path d="M110.216 0V11.6646H29.7013V0H9.05032V85.1205H29.7013V90H110.216V85.1205H130.867V0H110.216Z" fill="#0F2C23"/>
<path d="M9.05025 38.7187H0.000244141V53.1132H9.05025V38.7187Z" fill="#0F2C23"/>
<path d="M9.05025 58.5069H0.000244141V72.9014H9.05025V58.5069Z" fill="#0F2C23"/>
<path d="M140 38.7187H130.95V53.1132H140V38.7187Z" fill="#0F2C23"/>
<path d="M140 58.507H130.95V72.9014H140V58.507Z" fill="#0F2C23"/>
<path d="M82.546 72.6245V63.2414H73.5708V32.7777H82.546V23.2891H111.461V32.7777H120.536V63.2414H111.461V72.6245H82.546ZM84.5418 60.8215H109.465V35.0987H84.5418V60.8215Z" fill="white"/>
<path d="M28.5262 72.6245V63.2414H19.551V32.7777H28.5262V23.2891H57.4413V32.7777H66.5163V63.2414H57.4413V72.6245H28.5262ZM30.5221 60.8215H55.4517V35.0987H30.5221V60.8215Z" fill="white"/>
</svg>
