<svg xmlns="http://www.w3.org/2000/svg" xmlns:xlink="http://www.w3.org/1999/xlink" width="1080" zoomAndPan="magnify" viewBox="0 0 810 809.999993" height="1080" preserveAspectRatio="xMidYMid meet" version="1.0"><defs><clipPath id="cdfa76861d"><path d="M 124 44 L 568 44 L 568 488 L 124 488 Z M 124 44 " clip-rule="nonzero"/></clipPath><clipPath id="d2f8715b0e"><path d="M 93.746094 397.785156 L 478.261719 13.269531 L 599.1875 134.199219 L 214.675781 518.710938 Z M 93.746094 397.785156 " clip-rule="nonzero"/></clipPath><clipPath id="a975449670"><path d="M 146.777344 344.75 L 424.785156 66.742188 C 454.074219 37.453125 501.5625 37.453125 530.851562 66.742188 L 545.714844 81.605469 C 575.003906 110.894531 575.003906 158.382812 545.714844 187.671875 L 267.707031 465.679688 C 238.417969 494.96875 190.929688 494.96875 161.640625 465.679688 L 146.777344 450.816406 C 117.488281 421.527344 117.488281 374.039062 146.777344 344.75 Z M 146.777344 344.75 " clip-rule="nonzero"/></clipPath><clipPath id="fe16908258"><path d="M 0 0 L 444 0 L 444 444 L 0 444 Z M 0 0 " clip-rule="nonzero"/></clipPath><clipPath id="1972850547"><path d="M -30.253906 353.785156 L 354.261719 -30.730469 L 475.1875 90.199219 L 90.675781 474.710938 Z M -30.253906 353.785156 " clip-rule="nonzero"/></clipPath><clipPath id="986d4ec37f"><path d="M 22.777344 300.75 L 300.785156 22.742188 C 330.074219 -6.546875 377.5625 -6.546875 406.851562 22.742188 L 421.714844 37.605469 C 451.003906 66.894531 451.003906 114.382812 421.714844 143.671875 L 143.707031 421.679688 C 114.417969 450.96875 66.929688 450.96875 37.640625 421.679688 L 22.777344 406.816406 C -6.511719 377.527344 -6.511719 330.039062 22.777344 300.75 Z M 22.777344 300.75 " clip-rule="nonzero"/></clipPath><clipPath id="4571b85ce8"><rect x="0" width="444" y="0" height="444"/></clipPath><clipPath id="cb08053e39"><path d="M 124 322 L 568 322 L 568 766 L 124 766 Z M 124 322 " clip-rule="nonzero"/></clipPath><clipPath id="92e64eaed2"><path d="M 214.667969 291.285156 L 599.183594 675.800781 L 478.253906 796.726562 L 93.742188 412.214844 Z M 214.667969 291.285156 " clip-rule="nonzero"/></clipPath><clipPath id="499e889cd8"><path d="M 267.703125 344.320312 L 545.710938 622.324219 C 575 651.617188 575 699.101562 545.710938 728.390625 L 530.847656 743.253906 C 501.558594 772.542969 454.070312 772.542969 424.78125 743.253906 L 146.773438 465.246094 C 117.484375 435.957031 117.484375 388.472656 146.773438 359.179688 L 161.636719 344.320312 C 190.925781 315.03125 238.414062 315.03125 267.703125 344.320312 Z M 267.703125 344.320312 " clip-rule="nonzero"/></clipPath><clipPath id="9bab68f85e"><path d="M 0 0 L 444 0 L 444 444 L 0 444 Z M 0 0 " clip-rule="nonzero"/></clipPath><clipPath id="64246e61c5"><path d="M 90.667969 -30.714844 L 475.183594 353.800781 L 354.253906 474.726562 L -30.257812 90.214844 Z M 90.667969 -30.714844 " clip-rule="nonzero"/></clipPath><clipPath id="a882bacc3d"><path d="M 143.703125 22.320312 L 421.710938 300.324219 C 451 329.617188 451 377.101562 421.710938 406.390625 L 406.847656 421.253906 C 377.558594 450.542969 330.070312 450.542969 300.78125 421.253906 L 22.773438 143.246094 C -6.515625 113.957031 -6.515625 66.472656 22.773438 37.179688 L 37.636719 22.320312 C 66.925781 -6.96875 114.414062 -6.96875 143.703125 22.320312 Z M 143.703125 22.320312 " clip-rule="nonzero"/></clipPath><clipPath id="55fd6cc49c"><rect x="0" width="444" y="0" height="444"/></clipPath></defs><g clip-path="url(#cdfa76861d)"><g clip-path="url(#d2f8715b0e)"><g clip-path="url(#a975449670)"><g transform="matrix(1, 0, 0, 1, 124, 44)"><g clip-path="url(#4571b85ce8)"><g clip-path="url(#fe16908258)"><g clip-path="url(#1972850547)"><g clip-path="url(#986d4ec37f)"><path fill="#61706a" d="M -30.253906 353.785156 L 353.789062 -30.257812 L 474.714844 90.671875 L 90.675781 474.710938 Z M -30.253906 353.785156 " fill-opacity="1" fill-rule="nonzero"/></g></g></g></g></g></g></g></g><g clip-path="url(#cb08053e39)"><g clip-path="url(#92e64eaed2)"><g clip-path="url(#499e889cd8)"><g transform="matrix(1, 0, 0, 1, 124, 322)"><g clip-path="url(#55fd6cc49c)"><g clip-path="url(#9bab68f85e)"><g clip-path="url(#64246e61c5)"><g clip-path="url(#a882bacc3d)"><path fill="#61706a" d="M 90.667969 -30.714844 L 474.710938 353.328125 L 353.78125 474.257812 L -30.257812 90.214844 Z M 90.667969 -30.714844 " fill-opacity="1" fill-rule="nonzero"/></g></g></g></g></g></g></g></g></svg>