<svg xmlns="http://www.w3.org/2000/svg" xmlns:xlink="http://www.w3.org/1999/xlink" width="1080" zoomAndPan="magnify" viewBox="0 0 810 809.999993" height="1080" preserveAspectRatio="xMidYMid meet" version="1.0"><defs><clipPath id="869b5697b2"><path d="M 242 44 L 686 44 L 686 488 L 242 488 Z M 242 44 " clip-rule="nonzero"/></clipPath><clipPath id="c69c38f2b2"><path d="M 716.253906 397.785156 L 331.738281 13.269531 L 210.8125 134.199219 L 595.324219 518.710938 Z M 716.253906 397.785156 " clip-rule="nonzero"/></clipPath><clipPath id="3b1e2eb90d"><path d="M 663.222656 344.75 L 385.214844 66.742188 C 355.925781 37.453125 308.4375 37.453125 279.148438 66.742188 L 264.285156 81.605469 C 234.996094 110.894531 234.996094 158.382812 264.285156 187.671875 L 542.292969 465.679688 C 571.582031 494.96875 619.070312 494.96875 648.359375 465.679688 L 663.222656 450.816406 C 692.511719 421.527344 692.511719 374.039062 663.222656 344.75 Z M 663.222656 344.75 " clip-rule="nonzero"/></clipPath><clipPath id="b39b7b747f"><path d="M 716.253906 397.785156 L 331.738281 13.269531 L 210.8125 134.199219 L 595.324219 518.710938 Z M 716.253906 397.785156 " clip-rule="nonzero"/></clipPath><clipPath id="6460638272"><path d="M 663.222656 344.75 L 385.214844 66.742188 C 355.925781 37.453125 308.4375 37.453125 279.148438 66.742188 L 264.285156 81.605469 C 234.996094 110.894531 234.996094 158.382812 264.285156 187.671875 L 542.292969 465.679688 C 571.582031 494.96875 619.070312 494.96875 648.359375 465.679688 L 663.222656 450.816406 C 692.511719 421.527344 692.511719 374.039062 663.222656 344.75 Z M 663.222656 344.75 " clip-rule="nonzero"/></clipPath><clipPath id="f2e302ed12"><path d="M 242 322 L 686 322 L 686 766 L 242 766 Z M 242 322 " clip-rule="nonzero"/></clipPath><clipPath id="10f010cbde"><path d="M 595.332031 291.285156 L 210.816406 675.800781 L 331.746094 796.726562 L 716.257812 412.214844 Z M 595.332031 291.285156 " clip-rule="nonzero"/></clipPath><clipPath id="1bcc4e0192"><path d="M 542.296875 344.320312 L 264.289062 622.324219 C 235 651.617188 235 699.101562 264.289062 728.390625 L 279.152344 743.253906 C 308.441406 772.542969 355.929688 772.542969 385.21875 743.253906 L 663.226562 465.246094 C 692.515625 435.957031 692.515625 388.472656 663.226562 359.179688 L 648.363281 344.320312 C 619.074219 315.03125 571.585938 315.03125 542.296875 344.320312 Z M 542.296875 344.320312 " clip-rule="nonzero"/></clipPath><clipPath id="c7d09e3b74"><path d="M 595.332031 291.285156 L 210.816406 675.800781 L 331.746094 796.726562 L 716.257812 412.214844 Z M 595.332031 291.285156 " clip-rule="nonzero"/></clipPath><clipPath id="4bd1c97c1b"><path d="M 542.296875 344.320312 L 264.289062 622.324219 C 235 651.617188 235 699.101562 264.289062 728.390625 L 279.152344 743.253906 C 308.441406 772.542969 355.929688 772.542969 385.21875 743.253906 L 663.226562 465.246094 C 692.515625 435.957031 692.515625 388.472656 663.226562 359.179688 L 648.363281 344.320312 C 619.074219 315.03125 571.585938 315.03125 542.296875 344.320312 Z M 542.296875 344.320312 " clip-rule="nonzero"/></clipPath><clipPath id="010416255b"><rect x="0" width="810" y="0" height="810"/></clipPath></defs><g transform="matrix(1, 0, 0, 1, 0, 0.000000000000039746)"><g clip-path="url(#010416255b)"><g clip-path="url(#869b5697b2)"><g clip-path="url(#c69c38f2b2)"><g clip-path="url(#3b1e2eb90d)"><g clip-path="url(#b39b7b747f)"><g clip-path="url(#6460638272)"><path fill="#61706a" d="M 716.253906 397.785156 L 332.210938 13.742188 L 211.285156 134.671875 L 595.324219 518.710938 Z M 716.253906 397.785156 " fill-opacity="1" fill-rule="nonzero"/></g></g></g></g></g><g clip-path="url(#f2e302ed12)"><g clip-path="url(#10f010cbde)"><g clip-path="url(#1bcc4e0192)"><g clip-path="url(#c7d09e3b74)"><g clip-path="url(#4bd1c97c1b)"><path fill="#61706a" d="M 595.332031 291.285156 L 211.289062 675.328125 L 332.21875 796.257812 L 716.257812 412.214844 Z M 595.332031 291.285156 " fill-opacity="1" fill-rule="nonzero"/></g></g></g></g></g></g></g></svg>